<svg xmlns="http://www.w3.org/2000/svg" version="1.1" xmlns:xlink="http://www.w3.org/1999/xlink" xmlns:svgjs="http://svgjs.com/svgjs" width="512" height="512" x="0" y="0" viewBox="0 0 512 512" style="enable-background:new 0 0 512 512" xml:space="preserve" class=""><g><path d="M217.824 23v179.824a15 15 0 0 1-15 15H23a15 15 0 0 1-15-15V23A15 15 0 0 1 23 8h179.824a15 15 0 0 1 15 15ZM489 8H309.176a15 15 0 0 0-15 15v179.824a15 15 0 0 0 15 15H489a15 15 0 0 0 15-15V23a15 15 0 0 0-15-15ZM202.824 294.176H23a15 15 0 0 0-15 15V489a15 15 0 0 0 15 15h179.824a15 15 0 0 0 15-15V309.176a15 15 0 0 0-15-15Zm286.176 0H309.176a15 15 0 0 0-15 15V489a15 15 0 0 0 15 15H489a15 15 0 0 0 15-15V309.176a15 15 0 0 0-15-15Z" fill="#41583d" data-original="#000000"></path></g></svg>