<svg xmlns="http://www.w3.org/2000/svg" version="1.1" xmlns:xlink="http://www.w3.org/1999/xlink" xmlns:svgjs="http://svgjs.com/svgjs" width="512" height="512" x="0" y="0" viewBox="0 0 279 279" style="enable-background:new 0 0 512 512" xml:space="preserve" class="hovered-paths"><g><path d="M262.421 270.339 246.466 72.896A7.5 7.5 0 0 0 238.99 66h-42.833v-9.495C196.157 25.348 171.143 0 139.985 0h-.99c-31.157 0-56.838 25.348-56.838 56.505V66H39.99a7.5 7.5 0 0 0-7.476 6.896l-16 198A7.504 7.504 0 0 0 23.99 279h231.02a7.499 7.499 0 0 0 7.411-8.661zM97.157 56.505C97.157 33.619 116.109 15 138.995 15h.99c22.886 0 41.172 18.619 41.172 41.505V66h-84v-9.495z" fill="#41583d" data-original="#000000" class="hovered-path"></path></g></svg>