<?xml version="1.0" encoding="UTF-8"?>
<!DOCTYPE svg PUBLIC "-//W3C//DTD SVG 1.1//EN" "http://www.w3.org/Graphics/SVG/1.1/DTD/svg11.dtd">
<svg xmlns="http://www.w3.org/2000/svg" version="1.1" width="597px" height="418px" style="shape-rendering:geometricPrecision; text-rendering:geometricPrecision; image-rendering:optimizeQuality; fill-rule:evenodd; clip-rule:evenodd" xmlns:xlink="http://www.w3.org/1999/xlink">
<g><path style="opacity:0.612" fill="#aaacc9" d="M 241.5,98.5 C 234.142,98.4183 226.809,98.7516 219.5,99.5C 226.789,96.4942 234.122,96.1609 241.5,98.5 Z"/></g>
<g><path style="opacity:0.929" fill="#8a8bb0" d="M 219.5,99.5 C 219.389,100.117 219.056,100.617 218.5,101C 215.854,101.497 213.187,101.664 210.5,101.5C 213.219,100.087 216.219,99.4203 219.5,99.5 Z"/></g>
<g><path style="opacity:0.337" fill="#adb0c9" d="M 342.5,99.5 C 353.057,98.5347 363.391,99.868 373.5,103.5C 363.278,101.408 352.944,100.075 342.5,99.5 Z"/></g>
<g><path style="opacity:0.812" fill="#9497b6" d="M 210.5,101.5 C 210.082,102.222 209.416,102.722 208.5,103C 202.536,104.161 196.536,104.994 190.5,105.5C 196.918,103.537 203.585,102.204 210.5,101.5 Z"/></g>
<g><path style="opacity:0.612" fill="#f7ca97" d="M 162.5,109.5 C 155.155,104.628 147.155,103.295 138.5,105.5C 138.918,104.778 139.584,104.278 140.5,104C 145.167,103.333 149.833,103.333 154.5,104C 157.756,105.116 160.422,106.949 162.5,109.5 Z"/></g>
<g><path style="opacity:0.357" fill="#f8c792" d="M 288.5,102.5 C 292.358,102.77 295.691,104.103 298.5,106.5C 294.873,105.679 291.54,104.346 288.5,102.5 Z"/></g>
<g><path style="opacity:0.392" fill="#a1a4c2" d="M 374.5,103.5 C 382.364,104.804 390.03,106.471 397.5,108.5C 390.127,107.659 382.794,106.493 375.5,105C 374.944,104.617 374.611,104.117 374.5,103.5 Z"/></g>
<g><path style="opacity:1" fill="#f4a64f" d="M 272.5,102.5 C 270.488,103.524 268.822,105.024 267.5,107C 264.518,107.097 261.851,107.93 259.5,109.5C 259.5,109.167 259.5,108.833 259.5,108.5C 263.144,105.18 267.478,103.18 272.5,102.5 Z"/></g>
<g><path style="opacity:1" fill="#f39b1f" d="M 288.5,102.5 C 291.54,104.346 294.873,105.679 298.5,106.5C 299.492,106.328 300.158,106.662 300.5,107.5C 301.455,109.746 302.122,112.079 302.5,114.5C 305.913,115.374 308.913,117.041 311.5,119.5C 311.343,120.873 311.51,122.207 312,123.5C 312.902,125.431 314.069,127.097 315.5,128.5C 315.5,129.167 315.5,129.833 315.5,130.5C 315.335,133.518 315.502,136.518 316,139.5C 318.381,140.435 320.881,140.768 323.5,140.5C 323.5,145.5 323.5,150.5 323.5,155.5C 322.25,155.577 321.417,156.244 321,157.5C 320.667,156.833 320.333,156.167 320,155.5C 317.196,157.344 314.03,158.011 310.5,157.5C 310.5,158.833 310.5,160.167 310.5,161.5C 308.784,161.371 307.117,161.038 305.5,160.5C 305.573,158.973 304.906,157.973 303.5,157.5C 303.5,154.167 303.5,150.833 303.5,147.5C 304.161,148.718 304.828,150.051 305.5,151.5C 309.156,142.242 309.323,132.908 306,123.5C 304.736,121.393 302.903,120.393 300.5,120.5C 299.499,113.861 295.499,110.861 288.5,111.5C 288.5,110.5 288.5,109.5 288.5,108.5C 276.46,107.259 266.126,110.592 257.5,118.5C 257.5,115.833 257.5,113.167 257.5,110.5C 257.842,109.662 258.508,109.328 259.5,109.5C 261.851,107.93 264.518,107.097 267.5,107C 268.822,105.024 270.488,103.524 272.5,102.5C 277.933,101.198 283.266,101.198 288.5,102.5 Z"/></g>
<g><path style="opacity:0.408" fill="#9597bb" d="M 189.5,105.5 C 181.265,108.77 172.598,110.77 163.5,111.5C 163.5,111.167 163.5,110.833 163.5,110.5C 172.168,108.833 180.835,107.166 189.5,105.5 Z"/></g>
<g><path style="opacity:0.529" fill="#f7d09f" d="M 138.5,105.5 C 134.889,108.445 131.555,111.778 128.5,115.5C 130.167,110.5 133.5,107.167 138.5,105.5 Z"/></g>
<g><path style="opacity:1" fill="#8c98cb" d="M 243.5,99.5 C 247.333,100.81 247.333,101.977 243.5,103C 246.854,103.455 250.187,103.955 253.5,104.5C 252.216,124.151 252.216,143.818 253.5,163.5C 254.167,145.338 254.833,127.338 255.5,109.5C 255.5,137.5 255.5,165.5 255.5,193.5C 254.833,193.833 254.167,194.167 253.5,194.5C 251.658,188.58 250.658,182.246 250.5,175.5C 251.618,155.848 251.785,136.181 251,116.5C 249.662,109.468 245.329,106.135 238,106.5C 212.897,110.687 188.063,115.687 163.5,121.5C 159.829,121.757 156.495,122.757 153.5,124.5C 147.336,126.49 142.836,130.49 140,136.5C 139.5,165.831 139.333,195.165 139.5,224.5C 137.295,226.363 135.961,228.697 135.5,231.5C 135.167,231.5 134.833,231.5 134.5,231.5C 134.333,198.498 134.5,165.498 135,132.5C 138.314,125.851 143.481,121.351 150.5,119C 181.548,112.053 212.548,105.553 243.5,99.5 Z"/></g>
<g><path style="opacity:0.982" fill="#8f92b4" d="M 397.5,108.5 C 410.773,110.421 423.773,113.087 436.5,116.5C 423.126,115.12 410.126,112.453 397.5,108.5 Z"/></g>
<g><path style="opacity:1" fill="#f1921f" d="M 162.5,109.5 C 163.167,109.5 163.5,109.833 163.5,110.5C 163.5,110.833 163.5,111.167 163.5,111.5C 161.5,111.833 159.5,112.167 157.5,112.5C 151.325,113.564 145.325,114.897 139.5,116.5C 135.268,118.4 131.601,121.067 128.5,124.5C 127.167,124.5 126.5,123.833 126.5,122.5C 127.924,120.485 128.59,118.152 128.5,115.5C 131.555,111.778 134.889,108.445 138.5,105.5C 147.155,103.295 155.155,104.628 162.5,109.5 Z"/></g>
<g><path style="opacity:1" fill="#f7a44e" d="M 300.5,107.5 C 305.578,110.243 309.245,114.243 311.5,119.5C 308.913,117.041 305.913,115.374 302.5,114.5C 302.122,112.079 301.455,109.746 300.5,107.5 Z"/></g>
<g><path style="opacity:1" fill="#735d7f" d="M 157.5,112.5 C 154.601,113.81 151.601,115.143 148.5,116.5C 145.674,117.275 142.674,117.275 139.5,116.5C 145.325,114.897 151.325,113.564 157.5,112.5 Z"/></g>
<g><path style="opacity:1" fill="#f38e1d" d="M 303.5,147.5 C 301.24,141.074 299.406,134.408 298,127.5C 295.189,125.82 293.356,126.487 292.5,129.5C 291.288,130.23 290.288,131.23 289.5,132.5C 287.826,131.12 286.16,129.787 284.5,128.5C 282.721,129.394 281.388,130.727 280.5,132.5C 277.53,130.971 276.864,128.638 278.5,125.5C 280.765,124.353 283.098,124.186 285.5,125C 287.158,126.663 289.158,127.496 291.5,127.5C 291.684,124.679 290.351,123.012 287.5,122.5C 286.534,120.604 286.201,118.604 286.5,116.5C 285.5,116.5 284.5,116.5 283.5,116.5C 283.5,118.167 283.5,119.833 283.5,121.5C 277.61,121.726 274.276,124.726 273.5,130.5C 274.557,133.98 276.557,136.647 279.5,138.5C 279.579,142.521 278.579,146.188 276.5,149.5C 274.299,148.434 271.965,147.767 269.5,147.5C 269.5,148.5 269.5,149.5 269.5,150.5C 271.553,150.402 273.22,151.069 274.5,152.5C 272.064,152.683 269.897,152.016 268,150.5C 267.759,147.711 267.092,145.044 266,142.5C 263.333,140.5 261,138.167 259,135.5C 258.768,136.737 258.268,137.737 257.5,138.5C 257.5,131.833 257.5,125.167 257.5,118.5C 266.126,110.592 276.46,107.259 288.5,108.5C 288.5,109.5 288.5,110.5 288.5,111.5C 295.499,110.861 299.499,113.861 300.5,120.5C 302.903,120.393 304.736,121.393 306,123.5C 309.323,132.908 309.156,142.242 305.5,151.5C 304.828,150.051 304.161,148.718 303.5,147.5 Z"/></g>
<g><path style="opacity:1" fill="#b6bce0" d="M 253.5,194.5 C 251.819,196.008 249.819,197.008 247.5,197.5C 247.082,196.778 246.416,196.278 245.5,196C 247.595,195.444 247.762,194.944 246,194.5C 242.491,195.846 238.991,196.179 235.5,195.5C 237.396,194.534 239.396,194.201 241.5,194.5C 241.5,193.167 241.5,191.833 241.5,190.5C 236.456,190.827 231.456,190.494 226.5,189.5C 224.582,186.894 221.916,185.894 218.5,186.5C 218.64,184.876 217.973,183.71 216.5,183C 217.973,182.29 218.64,181.124 218.5,179.5C 222.581,173.76 227.247,168.426 232.5,163.5C 233.386,162.675 233.719,161.675 233.5,160.5C 236.202,158.779 238.869,157.112 241.5,155.5C 243.758,151.547 246.091,147.547 248.5,143.5C 248,143.167 247.5,142.833 247,142.5C 245.374,143.289 243.874,144.289 242.5,145.5C 241.614,144.675 241.281,143.675 241.5,142.5C 242.675,142.719 243.675,142.386 244.5,141.5C 235.45,140.741 226.784,139.074 218.5,136.5C 218.5,135.167 218.5,133.833 218.5,132.5C 213.167,132.5 207.833,132.5 202.5,132.5C 202.5,131.167 202.5,129.833 202.5,128.5C 199.833,128.5 197.167,128.5 194.5,128.5C 194.5,127.167 194.5,125.833 194.5,124.5C 188.504,123.343 182.504,123.177 176.5,124C 180.02,123.327 183.353,122.16 186.5,120.5C 185.333,120.167 184.167,119.833 183,119.5C 178.557,120.559 174.223,121.893 170,123.5C 168.103,121.984 165.936,121.317 163.5,121.5C 188.063,115.687 212.897,110.687 238,106.5C 245.329,106.135 249.662,109.468 251,116.5C 251.785,136.181 251.618,155.848 250.5,175.5C 250.658,182.246 251.658,188.58 253.5,194.5 Z"/></g>
<g><path style="opacity:1" fill="#525895" d="M 340.5,99.5 C 341.167,99.5 341.833,99.5 342.5,99.5C 352.944,100.075 363.278,101.408 373.5,103.5C 373.833,103.5 374.167,103.5 374.5,103.5C 374.611,104.117 374.944,104.617 375.5,105C 382.794,106.493 390.127,107.659 397.5,108.5C 410.126,112.453 423.126,115.12 436.5,116.5C 438.971,118.443 441.971,119.443 445.5,119.5C 448.37,120.433 450.704,122.1 452.5,124.5C 452.264,127.226 453.097,129.559 455,131.5C 455.167,150.842 455.667,170.175 456.5,189.5C 457.107,189.376 457.44,189.043 457.5,188.5C 458.167,188.167 458.833,187.833 459.5,187.5C 458.083,189.844 456.75,192.177 455.5,194.5C 452.122,195.023 449.122,196.356 446.5,198.5C 446.833,176.49 446.5,154.49 445.5,132.5C 442.996,128.164 439.662,124.664 435.5,122C 419.438,118.455 403.438,114.789 387.5,111C 369.79,108.155 352.123,105.155 334.5,102C 336.723,101.434 338.723,100.6 340.5,99.5 Z"/></g>
<g><path style="opacity:0.925" fill="#888cb2" d="M 436.5,116.5 C 439.916,116.528 442.916,117.528 445.5,119.5C 441.971,119.443 438.971,118.443 436.5,116.5 Z"/></g>
<g><path style="opacity:0.306" fill="#fcc192" d="M 128.5,115.5 C 128.59,118.152 127.924,120.485 126.5,122.5C 126.41,119.848 127.076,117.515 128.5,115.5 Z"/></g>
<g><path style="opacity:1" fill="#bdc3e1" d="M 233.5,160.5 C 232.236,155.921 229.236,154.421 224.5,156C 224.833,156.333 225.167,156.667 225.5,157C 223.939,157.318 222.772,158.151 222,159.5C 221.667,159.167 221.333,158.833 221,158.5C 220.623,159.942 219.79,160.942 218.5,161.5C 219.262,159.044 219.929,156.544 220.5,154C 219.819,150.228 217.485,148.561 213.5,149C 205.63,141.657 196.297,138.823 185.5,140.5C 188.258,139.239 191.258,138.406 194.5,138C 192.155,136.217 189.488,135.217 186.5,135C 187.833,134.333 189.167,133.667 190.5,133C 181.696,132.629 172.696,132.463 163.5,132.5C 163.5,131.167 163.5,129.833 163.5,128.5C 160.833,128.5 158.167,128.5 155.5,128.5C 155.843,126.517 155.176,125.183 153.5,124.5C 156.495,122.757 159.829,121.757 163.5,121.5C 165.936,121.317 168.103,121.984 170,123.5C 174.223,121.893 178.557,120.559 183,119.5C 184.167,119.833 185.333,120.167 186.5,120.5C 183.353,122.16 180.02,123.327 176.5,124C 182.504,123.177 188.504,123.343 194.5,124.5C 194.5,125.833 194.5,127.167 194.5,128.5C 197.167,128.5 199.833,128.5 202.5,128.5C 202.5,129.833 202.5,131.167 202.5,132.5C 207.833,132.5 213.167,132.5 218.5,132.5C 218.5,133.833 218.5,135.167 218.5,136.5C 226.784,139.074 235.45,140.741 244.5,141.5C 243.675,142.386 242.675,142.719 241.5,142.5C 241.281,143.675 241.614,144.675 242.5,145.5C 243.874,144.289 245.374,143.289 247,142.5C 247.5,142.833 248,143.167 248.5,143.5C 246.091,147.547 243.758,151.547 241.5,155.5C 238.869,157.112 236.202,158.779 233.5,160.5 Z"/></g>
<g><path style="opacity:0.941" fill="#f3ad69" d="M 311.5,119.5 C 313.592,122.088 314.925,125.088 315.5,128.5C 314.069,127.097 312.902,125.431 312,123.5C 311.51,122.207 311.343,120.873 311.5,119.5 Z"/></g>
<g><path style="opacity:0.086" fill="#e4d6bd" d="M 126.5,122.5 C 126.5,123.833 127.167,124.5 128.5,124.5C 127.833,125.833 126.833,126.833 125.5,127.5C 125.216,125.585 125.549,123.919 126.5,122.5 Z"/></g>
<g><path style="opacity:1" fill="#8e9acb" d="M 340.5,99.5 C 338.723,100.6 336.723,101.434 334.5,102C 352.123,105.155 369.79,108.155 387.5,111C 403.438,114.789 419.438,118.455 435.5,122C 439.662,124.664 442.996,128.164 445.5,132.5C 446.5,154.49 446.833,176.49 446.5,198.5C 444.972,199.309 443.306,199.976 441.5,200.5C 441.667,179.497 441.5,158.497 441,137.5C 440.401,134.746 438.901,132.746 436.5,131.5C 434.022,129.197 431.355,127.031 428.5,125C 420.727,123.927 413.06,122.427 405.5,120.5C 387.314,116.628 368.981,112.795 350.5,109C 343.051,107.439 336.385,108.939 330.5,113.5C 329.509,140.789 329.175,168.122 329.5,195.5C 328.167,194.833 326.833,194.167 325.5,193.5C 325.83,175.326 325.497,157.326 324.5,139.5C 324.333,128.828 324.5,118.161 325,107.5C 329.009,102.579 334.175,99.9124 340.5,99.5 Z"/></g>
<g><path style="opacity:1" fill="#c0c6e3" d="M 405.5,120.5 C 413.06,122.427 420.727,123.927 428.5,125C 431.355,127.031 434.022,129.197 436.5,131.5C 434.738,131.357 433.071,131.691 431.5,132.5C 430.289,131.726 430.289,130.893 431.5,130C 430.975,129.308 430.308,128.808 429.5,128.5C 426.579,129.407 423.579,129.74 420.5,129.5C 420.5,130.5 420.5,131.5 420.5,132.5C 418.167,132.5 415.833,132.5 413.5,132.5C 413.643,134.262 413.309,135.929 412.5,137.5C 410.167,138.167 407.833,138.833 405.5,139.5C 405.377,141.836 405.044,144.169 404.5,146.5C 395.142,138.054 384.475,136.22 372.5,141C 370.415,142.041 368.748,143.541 367.5,145.5C 364.115,146.462 360.949,147.796 358,149.5C 357.804,156.111 359.637,162.111 363.5,167.5C 362.504,167.414 361.671,167.748 361,168.5C 360.5,167.333 359.667,166.5 358.5,166C 355.854,165.503 353.187,165.336 350.5,165.5C 350.5,166.5 350.5,167.5 350.5,168.5C 345.167,168.833 339.833,169.167 334.5,169.5C 334.662,171.527 334.495,173.527 334,175.5C 333.667,172.833 333.333,170.167 333,167.5C 332.667,168.833 332.333,170.167 332,171.5C 331.722,170.584 331.222,169.918 330.5,169.5C 330.334,159.828 330.5,150.161 331,140.5C 332.791,138.487 334.125,138.487 335,140.5C 337.381,139.565 339.881,139.232 342.5,139.5C 342.5,138.5 342.5,137.5 342.5,136.5C 345.167,136.5 347.833,136.5 350.5,136.5C 350.5,135.167 350.5,133.833 350.5,132.5C 353.167,132.5 355.833,132.5 358.5,132.5C 358.5,131.167 358.5,129.833 358.5,128.5C 361.167,128.5 363.833,128.5 366.5,128.5C 366.5,127.167 366.5,125.833 366.5,124.5C 369.916,125.106 372.582,124.106 374.5,121.5C 378.415,119.756 381.249,120.756 383,124.5C 383.49,123.207 383.657,121.873 383.5,120.5C 390.837,119.227 398.171,119.227 405.5,120.5 Z"/></g>
<g><path style="opacity:1" fill="#b6bde0" d="M 405.5,120.5 C 398.171,119.227 390.837,119.227 383.5,120.5C 383.657,121.873 383.49,123.207 383,124.5C 381.249,120.756 378.415,119.756 374.5,121.5C 372.582,124.106 369.916,125.106 366.5,124.5C 366.5,125.833 366.5,127.167 366.5,128.5C 363.833,128.5 361.167,128.5 358.5,128.5C 358.5,129.833 358.5,131.167 358.5,132.5C 355.833,132.5 353.167,132.5 350.5,132.5C 350.5,133.833 350.5,135.167 350.5,136.5C 347.833,136.5 345.167,136.5 342.5,136.5C 342.5,137.5 342.5,138.5 342.5,139.5C 339.881,139.232 337.381,139.565 335,140.5C 334.125,138.487 332.791,138.487 331,140.5C 330.5,150.161 330.334,159.828 330.5,169.5C 330.5,178.167 330.5,186.833 330.5,195.5C 330.167,195.5 329.833,195.5 329.5,195.5C 329.175,168.122 329.509,140.789 330.5,113.5C 336.385,108.939 343.051,107.439 350.5,109C 368.981,112.795 387.314,116.628 405.5,120.5 Z"/></g>
<g><path style="opacity:1" fill="#c5cae6" d="M 153.5,124.5 C 155.176,125.183 155.843,126.517 155.5,128.5C 158.167,128.5 160.833,128.5 163.5,128.5C 163.5,129.833 163.5,131.167 163.5,132.5C 172.696,132.463 181.696,132.629 190.5,133C 189.167,133.667 187.833,134.333 186.5,135C 189.488,135.217 192.155,136.217 194.5,138C 191.258,138.406 188.258,139.239 185.5,140.5C 180.394,142.093 176.227,145.093 173,149.5C 171.449,153.72 169.449,157.72 167,161.5C 165.844,165.418 165.344,169.418 165.5,173.5C 165.038,167.523 164.705,161.69 164.5,156C 156.841,155.5 149.174,155.334 141.5,155.5C 140.476,160.779 140.143,168.113 140.5,177.5C 140.5,193.167 140.5,208.833 140.5,224.5C 140.167,224.5 139.833,224.5 139.5,224.5C 139.333,195.165 139.5,165.831 140,136.5C 142.836,130.49 147.336,126.49 153.5,124.5 Z"/></g>
<g><path style="opacity:1" fill="#fcc90d" d="M 280.5,132.5 C 280.795,134.735 280.461,136.735 279.5,138.5C 276.557,136.647 274.557,133.98 273.5,130.5C 274.276,124.726 277.61,121.726 283.5,121.5C 283.5,119.833 283.5,118.167 283.5,116.5C 284.5,116.5 285.5,116.5 286.5,116.5C 286.201,118.604 286.534,120.604 287.5,122.5C 290.351,123.012 291.684,124.679 291.5,127.5C 289.158,127.496 287.158,126.663 285.5,125C 283.098,124.186 280.765,124.353 278.5,125.5C 276.864,128.638 277.53,130.971 280.5,132.5 Z"/></g>
<g><path style="opacity:1" fill="#505694" d="M 241.5,98.5 C 241.842,99.3382 242.508,99.6716 243.5,99.5C 212.548,105.553 181.548,112.053 150.5,119C 143.481,121.351 138.314,125.851 135,132.5C 134.5,165.498 134.333,198.498 134.5,231.5C 135.269,235.725 133.602,238.391 129.5,239.5C 128.669,227.34 128.169,215.007 128,202.5C 127.5,215.496 127.333,228.496 127.5,241.5C 125.519,228.876 124.852,215.876 125.5,202.5C 125.5,178.167 125.5,153.833 125.5,129.5C 125.5,128.833 125.5,128.167 125.5,127.5C 126.833,126.833 127.833,125.833 128.5,124.5C 131.601,121.067 135.268,118.4 139.5,116.5C 142.674,117.275 145.674,117.275 148.5,116.5C 151.601,115.143 154.601,113.81 157.5,112.5C 159.5,112.167 161.5,111.833 163.5,111.5C 172.598,110.77 181.265,108.77 189.5,105.5C 189.833,105.5 190.167,105.5 190.5,105.5C 196.536,104.994 202.536,104.161 208.5,103C 209.416,102.722 210.082,102.222 210.5,101.5C 213.187,101.664 215.854,101.497 218.5,101C 219.056,100.617 219.389,100.117 219.5,99.5C 226.809,98.7516 234.142,98.4183 241.5,98.5 Z"/></g>
<g><path style="opacity:1" fill="#cbd0ea" d="M 436.5,131.5 C 438.901,132.746 440.401,134.746 441,137.5C 441.5,158.497 441.667,179.497 441.5,200.5C 440.329,201.345 438.995,202.011 437.5,202.5C 437.821,200.952 438.821,200.285 440.5,200.5C 440.5,193.5 440.5,186.5 440.5,179.5C 440.667,168.162 440.5,156.828 440,145.5C 439.605,141.981 438.605,138.648 437,135.5C 436.782,139.275 436.616,142.942 436.5,146.5C 433.914,147.48 431.247,147.813 428.5,147.5C 428.5,150.167 428.5,152.833 428.5,155.5C 423.5,155.5 418.5,155.5 413.5,155.5C 412.629,152.728 412.629,150.062 413.5,147.5C 408.482,148.202 407.149,150.869 409.5,155.5C 407.61,152.728 405.943,149.728 404.5,146.5C 405.044,144.169 405.377,141.836 405.5,139.5C 407.833,138.833 410.167,138.167 412.5,137.5C 413.309,135.929 413.643,134.262 413.5,132.5C 415.833,132.5 418.167,132.5 420.5,132.5C 420.5,131.5 420.5,130.5 420.5,129.5C 423.579,129.74 426.579,129.407 429.5,128.5C 430.308,128.808 430.975,129.308 431.5,130C 430.289,130.893 430.289,131.726 431.5,132.5C 433.071,131.691 434.738,131.357 436.5,131.5 Z"/></g>
<g><path style="opacity:1" fill="#f8b89c" d="M 292.5,129.5 C 292.33,130.822 292.663,131.989 293.5,133C 290.686,135.902 289.853,139.402 291,143.5C 292.441,144.87 294.108,145.87 296,146.5C 296.638,149.536 296.472,152.536 295.5,155.5C 295.818,156.647 296.484,157.481 297.5,158C 294.115,158.881 292.448,161.048 292.5,164.5C 291.701,167.43 291.368,170.43 291.5,173.5C 291.167,173.5 290.833,173.5 290.5,173.5C 290.937,170.193 290.27,167.193 288.5,164.5C 284.536,162.787 280.703,160.787 277,158.5C 276.502,155.518 276.335,152.518 276.5,149.5C 278.579,146.188 279.579,142.521 279.5,138.5C 280.461,136.735 280.795,134.735 280.5,132.5C 281.388,130.727 282.721,129.394 284.5,128.5C 286.16,129.787 287.826,131.12 289.5,132.5C 290.288,131.23 291.288,130.23 292.5,129.5 Z"/></g>
<g><path style="opacity:0.624" fill="#f4b677" d="M 315.5,130.5 C 316.317,132.969 316.817,135.635 317,138.5C 319.141,139.075 321.641,139.408 324.5,139.5C 324.5,139.833 324.5,140.167 324.5,140.5C 324.167,140.5 323.833,140.5 323.5,140.5C 320.881,140.768 318.381,140.435 316,139.5C 315.502,136.518 315.335,133.518 315.5,130.5 Z"/></g>
<g><path style="opacity:1" fill="#3a3a58" d="M 404.5,146.5 C 405.943,149.728 407.61,152.728 409.5,155.5C 415.707,166.927 414.374,177.26 405.5,186.5C 403.946,185.086 402.612,183.419 401.5,181.5C 405.466,176.299 405.466,171.132 401.5,166C 400.056,165.219 398.723,165.386 397.5,166.5C 396.184,169.384 395.184,172.384 394.5,175.5C 392.248,173.41 390.581,170.91 389.5,168C 383.982,166.713 378.982,167.713 374.5,171C 372.527,171.495 370.527,171.662 368.5,171.5C 368.158,170.662 367.492,170.328 366.5,170.5C 365.833,169.167 364.833,168.167 363.5,167.5C 359.637,162.111 357.804,156.111 358,149.5C 360.949,147.796 364.115,146.462 367.5,145.5C 368.748,143.541 370.415,142.041 372.5,141C 384.475,136.22 395.142,138.054 404.5,146.5 Z"/></g>
<g><path style="opacity:1" fill="#3a3957" d="M 185.5,140.5 C 196.297,138.823 205.63,141.657 213.5,149C 217.485,148.561 219.819,150.228 220.5,154C 219.929,156.544 219.262,159.044 218.5,161.5C 217.128,166.62 214.128,170.287 209.5,172.5C 205.181,173.201 201.514,172.034 198.5,169C 195.833,168.333 193.167,168.333 190.5,169C 187.819,171.517 185.486,174.351 183.5,177.5C 182.682,174.893 182.182,172.226 182,169.5C 179.242,165.351 176.909,165.684 175,170.5C 174.113,174.848 174.613,179.015 176.5,183C 175.259,184.731 174.259,186.564 173.5,188.5C 171.736,187.674 170.402,186.341 169.5,184.5C 168.141,180.747 166.807,177.081 165.5,173.5C 165.344,169.418 165.844,165.418 167,161.5C 169.449,157.72 171.449,153.72 173,149.5C 176.227,145.093 180.394,142.093 185.5,140.5 Z"/></g>
<g><path style="opacity:1" fill="#9f98ba" d="M 254.5,104.5 C 256.104,105.287 256.771,106.62 256.5,108.5C 257.5,108.5 258.5,108.5 259.5,108.5C 259.5,108.833 259.5,109.167 259.5,109.5C 258.508,109.328 257.842,109.662 257.5,110.5C 256.502,137.662 256.169,164.995 256.5,192.5C 256.5,193.167 256.167,193.5 255.5,193.5C 255.5,165.5 255.5,137.5 255.5,109.5C 255.371,107.784 255.038,106.117 254.5,104.5 Z"/></g>
<g><path style="opacity:1" fill="#8c9fc6" d="M 241.5,98.5 C 246.778,98.6415 251.112,100.642 254.5,104.5C 255.038,106.117 255.371,107.784 255.5,109.5C 254.833,127.338 254.167,145.338 253.5,163.5C 252.216,143.818 252.216,124.151 253.5,104.5C 250.187,103.955 246.854,103.455 243.5,103C 247.333,101.977 247.333,100.81 243.5,99.5C 242.508,99.6716 241.842,99.3382 241.5,98.5 Z"/></g>
<g><path style="opacity:1" fill="#f7c7b8" d="M 486.5,135.5 C 486.872,139.655 487.872,143.655 489.5,147.5C 490.167,146.833 490.833,146.167 491.5,145.5C 491.833,147.167 492.167,148.833 492.5,150.5C 491.829,154.841 491.163,159.174 490.5,163.5C 489.935,165.42 488.935,167.087 487.5,168.5C 484.132,165.147 480.132,162.814 475.5,161.5C 474.432,160.566 473.099,160.232 471.5,160.5C 472.931,150.033 475.098,139.7 478,129.5C 482.741,128.366 485.574,130.366 486.5,135.5 Z"/></g>
<g><path style="opacity:0.461" fill="#f8e0d6" d="M 486.5,135.5 C 487.6,137.277 488.434,139.277 489,141.5C 490.333,142.167 491.667,142.833 493,143.5C 493.667,148.167 493.667,152.833 493,157.5C 492.76,159.852 491.927,161.852 490.5,163.5C 491.163,159.174 491.829,154.841 492.5,150.5C 492.167,148.833 491.833,147.167 491.5,145.5C 490.833,146.167 490.167,146.833 489.5,147.5C 487.872,143.655 486.872,139.655 486.5,135.5 Z"/></g>
<g><path style="opacity:1" fill="#f7c4b2" d="M 303.5,147.5 C 303.5,150.833 303.5,154.167 303.5,157.5C 298.608,158.102 294.941,160.435 292.5,164.5C 292.448,161.048 294.115,158.881 297.5,158C 296.484,157.481 295.818,156.647 295.5,155.5C 296.472,152.536 296.638,149.536 296,146.5C 294.108,145.87 292.441,144.87 291,143.5C 289.853,139.402 290.686,135.902 293.5,133C 292.663,131.989 292.33,130.822 292.5,129.5C 293.356,126.487 295.189,125.82 298,127.5C 299.406,134.408 301.24,141.074 303.5,147.5 Z"/></g>
<g><path style="opacity:1" fill="#db7d1a" d="M 274.5,152.5 C 273.382,155.178 273.382,157.845 274.5,160.5C 274.058,161.739 273.391,162.739 272.5,163.5C 269.813,163.664 267.146,163.497 264.5,163C 264.833,162.667 265.167,162.333 265.5,162C 263.125,159.824 260.792,157.657 258.5,155.5C 257.505,149.872 257.171,144.206 257.5,138.5C 258.268,137.737 258.768,136.737 259,135.5C 261,138.167 263.333,140.5 266,142.5C 267.092,145.044 267.759,147.711 268,150.5C 269.897,152.016 272.064,152.683 274.5,152.5 Z"/></g>
<g><path style="opacity:0.292" fill="#8b8fb1" d="M 125.5,129.5 C 125.5,153.833 125.5,178.167 125.5,202.5C 125.167,202.5 124.833,202.5 124.5,202.5C 124.179,200.952 123.179,200.285 121.5,200.5C 122.172,199.733 123.005,199.066 124,198.5C 124.168,175.33 124.668,152.33 125.5,129.5 Z"/></g>
<g><path style="opacity:1" fill="#d7dbee" d="M 440.5,179.5 C 439.08,177.114 438.08,174.447 437.5,171.5C 436.52,174.086 436.187,176.753 436.5,179.5C 433.833,179.5 431.167,179.5 428.5,179.5C 428.5,181.833 428.5,184.167 428.5,186.5C 425.833,186.5 423.167,186.5 420.5,186.5C 420.5,187.5 420.5,188.5 420.5,189.5C 418.167,189.5 415.833,189.5 413.5,189.5C 413.984,192.567 412.818,194.567 410,195.5C 408.584,194.427 407.25,194.427 406,195.5C 404.331,193.831 403.498,191.831 403.5,189.5C 404.551,188.778 405.218,187.778 405.5,186.5C 414.374,177.26 415.707,166.927 409.5,155.5C 407.149,150.869 408.482,148.202 413.5,147.5C 412.629,150.062 412.629,152.728 413.5,155.5C 418.5,155.5 423.5,155.5 428.5,155.5C 428.5,152.833 428.5,150.167 428.5,147.5C 431.247,147.813 433.914,147.48 436.5,146.5C 436.616,142.942 436.782,139.275 437,135.5C 438.605,138.648 439.605,141.981 440,145.5C 440.5,156.828 440.667,168.162 440.5,179.5 Z"/></g>
<g><path style="opacity:1" fill="#cdd0e8" d="M 233.5,160.5 C 233.719,161.675 233.386,162.675 232.5,163.5C 227.247,168.426 222.581,173.76 218.5,179.5C 214.192,183.978 210.026,188.645 206,193.5C 205.392,195.154 204.892,196.821 204.5,198.5C 203.833,198.833 203.167,199.167 202.5,199.5C 202.208,194.75 204.042,191.084 208,188.5C 208.898,184.179 209.731,179.845 210.5,175.5C 210.48,174.274 210.147,173.274 209.5,172.5C 214.128,170.287 217.128,166.62 218.5,161.5C 219.79,160.942 220.623,159.942 221,158.5C 221.333,158.833 221.667,159.167 222,159.5C 222.772,158.151 223.939,157.318 225.5,157C 225.167,156.667 224.833,156.333 224.5,156C 229.236,154.421 232.236,155.921 233.5,160.5 Z"/></g>
<g><path style="opacity:1" fill="#d7daed" d="M 165.5,173.5 C 166.807,177.081 168.141,180.747 169.5,184.5C 168.427,183.342 167.261,183.342 166,184.5C 164.848,182.488 163.682,182.322 162.5,184C 162.833,184.333 163.167,184.667 163.5,185C 160.854,185.497 158.187,185.664 155.5,185.5C 155.5,184.5 155.5,183.5 155.5,182.5C 152.552,182.223 149.719,182.556 147,183.5C 146.526,178.373 145.526,178.373 144,183.5C 143.667,181.833 143.333,180.167 143,178.5C 142.667,178.833 142.333,179.167 142,179.5C 141.722,178.584 141.222,177.918 140.5,177.5C 140.143,168.113 140.476,160.779 141.5,155.5C 149.174,155.334 156.841,155.5 164.5,156C 164.705,161.69 165.038,167.523 165.5,173.5 Z"/></g>
<g><path style="opacity:1" fill="#f5a01c" d="M 276.5,149.5 C 276.335,152.518 276.502,155.518 277,158.5C 280.703,160.787 284.536,162.787 288.5,164.5C 290.27,167.193 290.937,170.193 290.5,173.5C 285.686,182.432 281.019,191.432 276.5,200.5C 274.037,204.491 272.371,208.824 271.5,213.5C 268.63,214.433 266.296,216.1 264.5,218.5C 261.331,219.917 258.331,221.583 255.5,223.5C 254.833,223.5 254.5,223.833 254.5,224.5C 253.508,224.328 252.842,224.662 252.5,225.5C 251.833,225.5 251.5,225.833 251.5,226.5C 243.748,231.043 235.748,235.043 227.5,238.5C 226.5,238.5 225.5,238.5 224.5,238.5C 224.919,230.462 224.586,222.295 223.5,214C 223.629,212.019 224.296,210.353 225.5,209C 223.618,208.802 221.952,208.302 220.5,207.5C 226.799,205.839 233.132,204.006 239.5,202C 242.391,200.726 245.058,199.226 247.5,197.5C 249.819,197.008 251.819,196.008 253.5,194.5C 254.167,194.167 254.833,193.833 255.5,193.5C 256.167,193.5 256.5,193.167 256.5,192.5C 259.265,189.095 261.765,185.428 264,181.5C 266.747,175.315 269.581,169.315 272.5,163.5C 273.391,162.739 274.058,161.739 274.5,160.5C 273.382,157.845 273.382,155.178 274.5,152.5C 273.22,151.069 271.553,150.402 269.5,150.5C 269.5,149.5 269.5,148.5 269.5,147.5C 271.965,147.767 274.299,148.434 276.5,149.5 Z"/></g>
<g><path style="opacity:1" fill="#d37b1c" d="M 323.5,155.5 C 323.828,167.345 323.495,179.012 322.5,190.5C 316.863,180.567 311.196,170.567 305.5,160.5C 307.117,161.038 308.784,161.371 310.5,161.5C 310.5,160.167 310.5,158.833 310.5,157.5C 314.03,158.011 317.196,157.344 320,155.5C 320.333,156.167 320.667,156.833 321,157.5C 321.417,156.244 322.25,155.577 323.5,155.5 Z"/></g>
<g><path style="opacity:1" fill="#494c8d" d="M 303.5,157.5 C 304.906,157.973 305.573,158.973 305.5,160.5C 311.196,170.567 316.863,180.567 322.5,190.5C 322.5,191.167 322.5,191.833 322.5,192.5C 323.209,193.404 324.209,193.737 325.5,193.5C 326.833,194.167 328.167,194.833 329.5,195.5C 329.833,195.5 330.167,195.5 330.5,195.5C 330.842,196.338 331.508,196.672 332.5,196.5C 339.373,200.308 346.706,203.308 354.5,205.5C 355.183,207.176 356.517,207.843 358.5,207.5C 358.268,216.418 356.935,225.085 354.5,233.5C 352.827,235.086 350.827,235.753 348.5,235.5C 342.702,232.767 337.035,229.767 331.5,226.5C 328.991,225.079 326.657,223.412 324.5,221.5C 319.075,219.284 314.075,216.284 309.5,212.5C 307.326,206.818 304.659,201.484 301.5,196.5C 298.321,188.81 294.987,181.144 291.5,173.5C 291.368,170.43 291.701,167.43 292.5,164.5C 294.941,160.435 298.608,158.102 303.5,157.5 Z"/></g>
<g><path style="opacity:1" fill="#c18a27" d="M 323.5,140.5 C 323.833,140.5 324.167,140.5 324.5,140.5C 325.153,158.199 324.486,175.532 322.5,192.5C 322.5,191.833 322.5,191.167 322.5,190.5C 323.495,179.012 323.828,167.345 323.5,155.5C 323.5,150.5 323.5,145.5 323.5,140.5 Z"/></g>
<g><path style="opacity:1" fill="#ccd0ea" d="M 363.5,167.5 C 364.833,168.167 365.833,169.167 366.5,170.5C 366.777,173.448 366.444,176.281 365.5,179C 360.567,180.318 355.567,181.151 350.5,181.5C 350.5,183.167 350.5,184.833 350.5,186.5C 345.464,186.588 340.464,187.088 335.5,188C 334.667,190.081 334.667,192.248 335.5,194.5C 333.821,194.285 332.821,194.952 332.5,196.5C 331.508,196.672 330.842,196.338 330.5,195.5C 330.5,186.833 330.5,178.167 330.5,169.5C 331.222,169.918 331.722,170.584 332,171.5C 332.333,170.167 332.667,168.833 333,167.5C 333.333,170.167 333.667,172.833 334,175.5C 334.495,173.527 334.662,171.527 334.5,169.5C 339.833,169.167 345.167,168.833 350.5,168.5C 350.5,167.5 350.5,166.5 350.5,165.5C 353.187,165.336 355.854,165.503 358.5,166C 359.667,166.5 360.5,167.333 361,168.5C 361.671,167.748 362.504,167.414 363.5,167.5 Z"/></g>
<g><path style="opacity:0.961" fill="#77759c" d="M 471.5,160.5 C 473.099,160.232 474.432,160.566 475.5,161.5C 472.344,161.529 470.678,163.196 470.5,166.5C 470.043,167.298 469.376,167.631 468.5,167.5C 469.227,165.046 470.227,162.713 471.5,160.5 Z"/></g>
<g><path style="opacity:1" fill="#9d939b" d="M 324.5,139.5 C 325.497,157.326 325.83,175.326 325.5,193.5C 324.209,193.737 323.209,193.404 322.5,192.5C 324.486,175.532 325.153,158.199 324.5,140.5C 324.5,140.167 324.5,139.833 324.5,139.5 Z"/></g>
<g><path style="opacity:1" fill="#484b8e" d="M 475.5,161.5 C 480.132,162.814 484.132,165.147 487.5,168.5C 485.687,174.607 483.687,180.607 481.5,186.5C 477.674,192.818 474.341,199.484 471.5,206.5C 469.377,210.881 466.711,214.881 463.5,218.5C 461.181,218.992 459.181,219.992 457.5,221.5C 455.989,222.502 454.322,223.169 452.5,223.5C 452.5,224.5 452.5,225.5 452.5,226.5C 450.193,226.986 448.027,226.986 446,226.5C 445.487,227.527 444.987,228.527 444.5,229.5C 442.632,230.263 440.965,231.263 439.5,232.5C 438.833,232.5 438.5,232.833 438.5,233.5C 434.71,234.895 431.043,236.562 427.5,238.5C 426.167,238.5 424.833,238.5 423.5,238.5C 423.286,236.856 423.62,235.356 424.5,234C 423.033,232.902 422.199,231.402 422,229.5C 420.561,223.135 420.061,216.802 420.5,210.5C 423.665,209.75 426.331,208.416 428.5,206.5C 431.261,204.795 434.261,203.462 437.5,202.5C 438.995,202.011 440.329,201.345 441.5,200.5C 443.306,199.976 444.972,199.309 446.5,198.5C 449.122,196.356 452.122,195.023 455.5,194.5C 456.75,192.177 458.083,189.844 459.5,187.5C 460.167,185.167 460.833,182.833 461.5,180.5C 465.446,177.129 467.779,172.796 468.5,167.5C 469.376,167.631 470.043,167.298 470.5,166.5C 470.678,163.196 472.344,161.529 475.5,161.5 Z"/></g>
<g><path style="opacity:0.816" fill="#72749e" d="M 452.5,124.5 C 455.46,127.1 456.794,130.433 456.5,134.5C 456.17,152.674 456.503,170.674 457.5,188.5C 457.44,189.043 457.107,189.376 456.5,189.5C 455.667,170.175 455.167,150.842 455,131.5C 453.097,129.559 452.264,127.226 452.5,124.5 Z"/></g>
<g><path style="opacity:1" fill="#c17c23" d="M 257.5,110.5 C 257.5,113.167 257.5,115.833 257.5,118.5C 257.5,125.167 257.5,131.833 257.5,138.5C 257.171,144.206 257.505,149.872 258.5,155.5C 260.792,157.657 263.125,159.824 265.5,162C 265.167,162.333 264.833,162.667 264.5,163C 267.146,163.497 269.813,163.664 272.5,163.5C 269.581,169.315 266.747,175.315 264,181.5C 261.765,185.428 259.265,189.095 256.5,192.5C 256.169,164.995 256.502,137.662 257.5,110.5 Z"/></g>
<g><path style="opacity:1" fill="#f5c3b4" d="M 405.5,186.5 C 405.218,187.778 404.551,188.778 403.5,189.5C 402.735,190.66 401.735,191.66 400.5,192.5C 399.942,195.77 398.942,198.77 397.5,201.5C 395.778,204.92 395.111,208.586 395.5,212.5C 393.18,213.474 390.847,214.474 388.5,215.5C 386.068,215.114 383.734,214.447 381.5,213.5C 380.705,209.215 380.372,204.881 380.5,200.5C 379.061,196.535 376.561,193.202 373,190.5C 371.725,187.608 370.225,184.941 368.5,182.5C 367.192,178.685 367.192,175.019 368.5,171.5C 370.527,171.662 372.527,171.495 374.5,171C 378.982,167.713 383.982,166.713 389.5,168C 390.581,170.91 392.248,173.41 394.5,175.5C 395.184,172.384 396.184,169.384 397.5,166.5C 398.723,165.386 400.056,165.219 401.5,166C 405.466,171.132 405.466,176.299 401.5,181.5C 402.612,183.419 403.946,185.086 405.5,186.5 Z"/></g>
<g><path style="opacity:0.108" fill="#a0a1ba" d="M 456.5,134.5 C 457.332,151.328 457.832,168.328 458,185.5C 458.697,183.416 459.864,181.749 461.5,180.5C 460.833,182.833 460.167,185.167 459.5,187.5C 458.833,187.833 458.167,188.167 457.5,188.5C 456.503,170.674 456.17,152.674 456.5,134.5 Z"/></g>
<g><path style="opacity:1" fill="#f6b89f" d="M 209.5,172.5 C 210.147,173.274 210.48,174.274 210.5,175.5C 209.731,179.845 208.898,184.179 208,188.5C 204.042,191.084 202.208,194.75 202.5,199.5C 201.277,202.274 199.777,204.941 198,207.5C 196.851,210.393 196.351,213.393 196.5,216.5C 193.833,216.5 191.167,216.5 188.5,216.5C 187.833,215.833 187.167,215.167 186.5,214.5C 184.324,210.672 182.324,206.672 180.5,202.5C 180.662,200.473 180.495,198.473 180,196.5C 177.515,193.907 175.348,191.24 173.5,188.5C 174.259,186.564 175.259,184.731 176.5,183C 174.613,179.015 174.113,174.848 175,170.5C 176.909,165.684 179.242,165.351 182,169.5C 182.182,172.226 182.682,174.893 183.5,177.5C 185.486,174.351 187.819,171.517 190.5,169C 193.167,168.333 195.833,168.333 198.5,169C 201.514,172.034 205.181,173.201 209.5,172.5 Z"/></g>
<g><path style="opacity:0.894" fill="#7c80a5" d="M 468.5,167.5 C 467.779,172.796 465.446,177.129 461.5,180.5C 463.074,175.68 465.407,171.347 468.5,167.5 Z"/></g>
<g><path style="opacity:1" fill="#e5e6f3" d="M 140.5,177.5 C 141.222,177.918 141.722,178.584 142,179.5C 142.333,179.167 142.667,178.833 143,178.5C 143.333,180.167 143.667,181.833 144,183.5C 145.526,178.373 146.526,178.373 147,183.5C 149.719,182.556 152.552,182.223 155.5,182.5C 155.5,183.5 155.5,184.5 155.5,185.5C 158.187,185.664 160.854,185.497 163.5,185C 163.167,184.667 162.833,184.333 162.5,184C 163.682,182.322 164.848,182.488 166,184.5C 167.261,183.342 168.427,183.342 169.5,184.5C 170.402,186.341 171.736,187.674 173.5,188.5C 175.348,191.24 177.515,193.907 180,196.5C 180.495,198.473 180.662,200.473 180.5,202.5C 173.353,195.99 169.353,197.323 168.5,206.5C 165.585,207.744 162.918,209.411 160.5,211.5C 153.289,215.054 146.622,219.387 140.5,224.5C 140.5,208.833 140.5,193.167 140.5,177.5 Z"/></g>
<g><path style="opacity:1" fill="#e2e4f2" d="M 440.5,179.5 C 440.5,186.5 440.5,193.5 440.5,200.5C 438.821,200.285 437.821,200.952 437.5,202.5C 434.261,203.462 431.261,204.795 428.5,206.5C 425.188,206.993 422.021,207.993 419,209.5C 412.068,206.135 404.902,203.468 397.5,201.5C 398.942,198.77 399.942,195.77 400.5,192.5C 401.735,191.66 402.735,190.66 403.5,189.5C 403.498,191.831 404.331,193.831 406,195.5C 407.25,194.427 408.584,194.427 410,195.5C 412.818,194.567 413.984,192.567 413.5,189.5C 415.833,189.5 418.167,189.5 420.5,189.5C 420.5,188.5 420.5,187.5 420.5,186.5C 423.167,186.5 425.833,186.5 428.5,186.5C 428.5,184.167 428.5,181.833 428.5,179.5C 431.167,179.5 433.833,179.5 436.5,179.5C 436.187,176.753 436.52,174.086 437.5,171.5C 438.08,174.447 439.08,177.114 440.5,179.5 Z"/></g>
<g><path style="opacity:1" fill="#bfc4e1" d="M 218.5,179.5 C 218.64,181.124 217.973,182.29 216.5,183C 217.973,183.71 218.64,184.876 218.5,186.5C 221.916,185.894 224.582,186.894 226.5,189.5C 231.456,190.494 236.456,190.827 241.5,190.5C 241.5,191.833 241.5,193.167 241.5,194.5C 239.396,194.201 237.396,194.534 235.5,195.5C 238.991,196.179 242.491,195.846 246,194.5C 247.762,194.944 247.595,195.444 245.5,196C 246.416,196.278 247.082,196.778 247.5,197.5C 245.058,199.226 242.391,200.726 239.5,202C 233.132,204.006 226.799,205.839 220.5,207.5C 218.442,206.067 216.108,205.4 213.5,205.5C 213.812,202.112 212.479,199.612 209.5,198C 207.735,197.36 206.068,197.527 204.5,198.5C 204.892,196.821 205.392,195.154 206,193.5C 210.026,188.645 214.192,183.978 218.5,179.5 Z"/></g>
<g><path style="opacity:0.877" fill="#ceccd2" d="M 490.5,163.5 C 487.902,175.02 487.069,186.686 488,198.5C 488.057,200.91 489.224,202.244 491.5,202.5C 490.833,203.167 490.167,203.833 489.5,204.5C 487.611,205.604 485.945,206.937 484.5,208.5C 484.472,205.749 483.472,203.415 481.5,201.5C 484.112,195.59 483.612,195.257 480,200.5C 479.833,199.333 479.667,198.167 479.5,197C 480.276,193.511 480.942,190.011 481.5,186.5C 483.687,180.607 485.687,174.607 487.5,168.5C 488.935,167.087 489.935,165.42 490.5,163.5 Z"/></g>
<g><path style="opacity:1" fill="#d7d9ec" d="M 366.5,170.5 C 367.492,170.328 368.158,170.662 368.5,171.5C 367.192,175.019 367.192,178.685 368.5,182.5C 370.225,184.941 371.725,187.608 373,190.5C 376.561,193.202 379.061,196.535 380.5,200.5C 372.947,202.264 365.447,204.264 358,206.5C 356.744,206.352 355.577,206.018 354.5,205.5C 346.706,203.308 339.373,200.308 332.5,196.5C 332.821,194.952 333.821,194.285 335.5,194.5C 334.667,192.248 334.667,190.081 335.5,188C 340.464,187.088 345.464,186.588 350.5,186.5C 350.5,184.833 350.5,183.167 350.5,181.5C 355.567,181.151 360.567,180.318 365.5,179C 366.444,176.281 366.777,173.448 366.5,170.5 Z"/></g>
<g><path style="opacity:1" fill="#d0781b" d="M 290.5,173.5 C 290.833,173.5 291.167,173.5 291.5,173.5C 294.987,181.144 298.321,188.81 301.5,196.5C 297.85,200.337 296.184,205.004 296.5,210.5C 293.641,209.252 290.808,207.919 288,206.5C 287.163,208.007 285.996,208.507 284.5,208C 283.36,204.031 281.86,200.198 280,196.5C 279.584,198.55 278.417,199.884 276.5,200.5C 281.019,191.432 285.686,182.432 290.5,173.5 Z"/></g>
<g><path style="opacity:0.678" fill="#d1a37a" d="M 498.5,200.5 C 498.5,201.167 498.167,201.5 497.5,201.5C 495.565,202.15 493.565,202.483 491.5,202.5C 493.515,201.076 495.848,200.41 498.5,200.5 Z"/></g>
<g><path style="opacity:1" fill="#3c3a57" d="M 180.5,202.5 C 182.324,206.672 184.324,210.672 186.5,214.5C 184.324,215.713 183.991,217.38 185.5,219.5C 184.37,220.622 183.703,221.956 183.5,223.5C 181.5,223.5 179.5,223.5 177.5,223.5C 172.06,219.221 169.06,213.555 168.5,206.5C 169.353,197.323 173.353,195.99 180.5,202.5 Z"/></g>
<g><path style="opacity:1" fill="#3c3a59" d="M 213.5,205.5 C 213.14,212.97 210.14,218.97 204.5,223.5C 201.904,224.265 199.237,224.599 196.5,224.5C 195.402,223.603 195.402,222.77 196.5,222C 193.972,220.983 193.972,219.816 196.5,218.5C 193.694,217.832 191.028,217.166 188.5,216.5C 191.167,216.5 193.833,216.5 196.5,216.5C 196.351,213.393 196.851,210.393 198,207.5C 199.777,204.941 201.277,202.274 202.5,199.5C 203.167,199.167 203.833,198.833 204.5,198.5C 206.068,197.527 207.735,197.36 209.5,198C 212.479,199.612 213.812,202.112 213.5,205.5 Z"/></g>
<g><path style="opacity:1" fill="#f3a13b" d="M 519.5,232.5 C 517.427,234.58 515.093,236.246 512.5,237.5C 511.761,237.631 511.094,237.464 510.5,237C 511.833,236.333 511.833,235.667 510.5,235C 518.674,228.798 520.507,220.965 516,211.5C 515.667,211.833 515.333,212.167 515,212.5C 511.286,206.37 505.786,203.703 498.5,204.5C 496.204,204.196 495.871,203.196 497.5,201.5C 498.167,201.5 498.5,201.167 498.5,200.5C 513.007,199.644 521.341,206.644 523.5,221.5C 523.33,225.683 521.997,229.35 519.5,232.5 Z"/></g>
<g><path style="opacity:1" fill="#515594" d="M 380.5,200.5 C 380.372,204.881 380.705,209.215 381.5,213.5C 381.892,215.179 382.392,216.846 383,218.5C 384.059,251.159 384.559,283.825 384.5,316.5C 379.321,316.296 374.988,314.296 371.5,310.5C 367.478,308.821 363.478,307.154 359.5,305.5C 358.017,303.516 356.351,301.683 354.5,300C 356.063,293.81 357.73,287.643 359.5,281.5C 358.274,277.845 358.274,274.178 359.5,270.5C 358.98,264.94 357.98,259.606 356.5,254.5C 356.163,249.462 355.496,244.462 354.5,239.5C 352.435,238.143 350.435,236.81 348.5,235.5C 350.827,235.753 352.827,235.086 354.5,233.5C 356.935,225.085 358.268,216.418 358.5,207.5C 356.517,207.843 355.183,207.176 354.5,205.5C 355.577,206.018 356.744,206.352 358,206.5C 365.447,204.264 372.947,202.264 380.5,200.5 Z"/></g>
<g><path style="opacity:1" fill="#515593" d="M 397.5,201.5 C 404.902,203.468 412.068,206.135 419,209.5C 422.021,207.993 425.188,206.993 428.5,206.5C 426.331,208.416 423.665,209.75 420.5,210.5C 420.061,216.802 420.561,223.135 422,229.5C 422.199,231.402 423.033,232.902 424.5,234C 423.62,235.356 423.286,236.856 423.5,238.5C 424.833,238.5 426.167,238.5 427.5,238.5C 426.791,239.404 425.791,239.737 424.5,239.5C 426.996,257.466 429.329,275.466 431.5,293.5C 431.333,295.167 431.167,296.833 431,298.5C 428.96,300.37 427.127,302.37 425.5,304.5C 418.899,307.758 412.232,310.925 405.5,314C 403.866,314.494 402.199,314.66 400.5,314.5C 400.053,282.466 398.886,250.466 397,218.5C 396.809,216.292 396.309,214.292 395.5,212.5C 395.111,208.586 395.778,204.92 397.5,201.5 Z"/></g>
<g><path style="opacity:1" fill="#4c5c86" d="M 129.5,239.5 C 129.167,240.5 128.5,241.167 127.5,241.5C 127.333,228.496 127.5,215.496 128,202.5C 128.169,215.007 128.669,227.34 129.5,239.5 Z"/></g>
<g><path style="opacity:1" fill="#e1a80f" d="M 496.5,230.5 C 495.194,229.533 494.527,228.199 494.5,226.5C 496.199,226.62 497.865,226.954 499.5,227.5C 501.266,227.566 502.266,226.732 502.5,225C 500.438,222.599 498.771,219.933 497.5,217C 498.233,215.234 498.567,213.401 498.5,211.5C 499.5,211.5 500.5,211.5 501.5,211.5C 503.452,210.592 505.452,210.759 507.5,212C 508.337,213.011 508.67,214.178 508.5,215.5C 505.794,215.425 503.127,215.092 500.5,214.5C 502.065,218.115 504.065,221.615 506.5,225C 506.522,229.148 504.522,230.982 500.5,230.5C 500.719,231.675 500.386,232.675 499.5,233.5C 498.859,232.007 497.859,231.007 496.5,230.5 Z"/></g>
<g><path style="opacity:1" fill="#c79f0a" d="M 301.5,196.5 C 304.659,201.484 307.326,206.818 309.5,212.5C 309.557,213.609 309.89,214.609 310.5,215.5C 310.077,218.893 311.077,222.059 313.5,225C 313.095,225.945 312.428,226.612 311.5,227C 312.91,227.368 313.91,228.201 314.5,229.5C 312.905,230.434 311.239,230.434 309.5,229.5C 305.205,226.517 301.539,222.85 298.5,218.5C 297.205,215.988 296.539,213.321 296.5,210.5C 296.184,205.004 297.85,200.337 301.5,196.5 Z"/></g>
<g><path style="opacity:1" fill="#c77318" d="M 497.5,201.5 C 495.871,203.196 496.204,204.196 498.5,204.5C 499.523,206.846 500.523,209.179 501.5,211.5C 500.5,211.5 499.5,211.5 498.5,211.5C 498.567,213.401 498.233,215.234 497.5,217C 498.771,219.933 500.438,222.599 502.5,225C 502.266,226.732 501.266,227.566 499.5,227.5C 497.865,226.954 496.199,226.62 494.5,226.5C 494.527,228.199 495.194,229.533 496.5,230.5C 496.56,235.651 494.56,236.651 490.5,233.5C 489.818,234.243 489.151,234.909 488.5,235.5C 487.698,231.391 486.365,227.225 484.5,223C 484.216,219.685 485.216,216.852 487.5,214.5C 486.689,213.784 486.022,212.95 485.5,212C 486.148,210.56 486.481,209.06 486.5,207.5C 487.5,207.5 488.5,207.5 489.5,207.5C 489.5,206.5 489.5,205.5 489.5,204.5C 490.167,203.833 490.833,203.167 491.5,202.5C 493.565,202.483 495.565,202.15 497.5,201.5 Z"/></g>
<g><path style="opacity:1" fill="#aa6114" d="M 271.5,213.5 C 272.36,217.374 273.194,221.708 274,226.5C 274.667,231.5 274.667,236.5 274,241.5C 272.259,251.281 270.259,260.947 268,270.5C 267.313,273.457 265.813,275.791 263.5,277.5C 261.273,276.599 260.273,274.933 260.5,272.5C 261.228,265.355 263.394,258.689 267,252.5C 268.7,241.18 268.866,229.847 267.5,218.5C 266.5,218.5 265.5,218.5 264.5,218.5C 266.296,216.1 268.63,214.433 271.5,213.5 Z"/></g>
<g><path style="opacity:1" fill="#f38c1d" d="M 168.5,206.5 C 169.06,213.555 172.06,219.221 177.5,223.5C 178.919,224.451 180.585,224.784 182.5,224.5C 182.5,227.5 182.5,230.5 182.5,233.5C 182.167,244.167 181.833,254.833 181.5,265.5C 180.695,275.812 180.362,286.146 180.5,296.5C 179.51,302.645 179.177,308.978 179.5,315.5C 177.435,315.483 175.435,315.15 173.5,314.5C 166.554,311.694 159.888,308.361 153.5,304.5C 152.889,302.225 151.555,300.559 149.5,299.5C 149.98,294.178 150.313,288.845 150.5,283.5C 150.895,276.427 151.895,269.427 153.5,262.5C 154.222,262.082 154.722,261.416 155,260.5C 155.886,245.63 158.052,230.964 161.5,216.5C 160.91,215.201 159.91,214.368 158.5,214C 159.381,213.292 160.047,212.458 160.5,211.5C 162.918,209.411 165.585,207.744 168.5,206.5 Z"/></g>
<g><path style="opacity:1" fill="#e4861b" d="M 498.5,204.5 C 505.786,203.703 511.286,206.37 515,212.5C 515.333,212.167 515.667,211.833 516,211.5C 520.507,220.965 518.674,228.798 510.5,235C 511.833,235.667 511.833,236.333 510.5,237C 511.094,237.464 511.761,237.631 512.5,237.5C 512.5,238.167 512.5,238.833 512.5,239.5C 510.316,241.585 507.649,242.585 504.5,242.5C 501.455,242.492 498.455,242.159 495.5,241.5C 492.661,240.194 490.328,238.194 488.5,235.5C 489.151,234.909 489.818,234.243 490.5,233.5C 494.56,236.651 496.56,235.651 496.5,230.5C 497.859,231.007 498.859,232.007 499.5,233.5C 500.386,232.675 500.719,231.675 500.5,230.5C 504.522,230.982 506.522,229.148 506.5,225C 504.065,221.615 502.065,218.115 500.5,214.5C 503.127,215.092 505.794,215.425 508.5,215.5C 508.67,214.178 508.337,213.011 507.5,212C 505.452,210.759 503.452,210.592 501.5,211.5C 500.523,209.179 499.523,206.846 498.5,204.5 Z"/></g>
<g><path style="opacity:1" fill="#995714" d="M 124.5,207.5 C 124.5,219.5 124.5,231.5 124.5,243.5C 123.057,245.621 122.057,247.954 121.5,250.5C 121.948,253.391 122.948,256.058 124.5,258.5C 124.5,259.167 124.5,259.833 124.5,260.5C 120.771,260.27 118.938,258.27 119,254.5C 118.586,254.957 118.086,255.291 117.5,255.5C 114.942,252.273 113.442,248.606 113,244.5C 112.333,238.5 112.333,232.5 113,226.5C 113.336,220.883 114.502,215.549 116.5,210.5C 119.641,210.59 122.308,209.59 124.5,207.5 Z"/></g>
<g><path style="opacity:1" fill="#6a584e" d="M 124.5,202.5 C 124.833,202.5 125.167,202.5 125.5,202.5C 124.852,215.876 125.519,228.876 127.5,241.5C 127.027,242.906 126.027,243.573 124.5,243.5C 124.5,231.5 124.5,219.5 124.5,207.5C 124.5,205.833 124.5,204.167 124.5,202.5 Z"/></g>
<g><path style="opacity:1" fill="#3f4274" d="M 186.5,214.5 C 187.167,215.167 187.833,215.833 188.5,216.5C 191.028,217.166 193.694,217.832 196.5,218.5C 193.972,219.816 193.972,220.983 196.5,222C 195.402,222.77 195.402,223.603 196.5,224.5C 196.5,232.833 196.5,241.167 196.5,249.5C 196.5,259.833 196.5,270.167 196.5,280.5C 195.909,292.034 195.243,301.701 194.5,309.5C 191.552,309.223 188.719,309.556 186,310.5C 185.333,309.833 184.667,309.167 184,308.5C 182.845,309.338 181.678,310.338 180.5,311.5C 180.5,306.5 180.5,301.5 180.5,296.5C 180.362,286.146 180.695,275.812 181.5,265.5C 183.035,255.039 183.701,244.372 183.5,233.5C 183.5,230.167 183.5,226.833 183.5,223.5C 183.703,221.956 184.37,220.622 185.5,219.5C 183.991,217.38 184.324,215.713 186.5,214.5 Z"/></g>
<g><path style="opacity:1" fill="#f48d1d" d="M 213.5,205.5 C 216.108,205.4 218.442,206.067 220.5,207.5C 221.952,208.302 223.618,208.802 225.5,209C 224.296,210.353 223.629,212.019 223.5,214C 224.586,222.295 224.919,230.462 224.5,238.5C 225.5,238.5 226.5,238.5 227.5,238.5C 226.828,239.267 225.995,239.934 225,240.5C 224.606,247.896 223.773,255.23 222.5,262.5C 221.942,265.344 221.275,268.178 220.5,271C 220.933,272.928 221.6,274.761 222.5,276.5C 221.976,278.383 221.309,280.216 220.5,282C 220.706,284.73 221.706,286.897 223.5,288.5C 224.164,292.154 224.831,295.82 225.5,299.5C 224.17,302.83 221.837,305.163 218.5,306.5C 214.364,310.074 209.697,312.908 204.5,315C 201.854,315.497 199.187,315.664 196.5,315.5C 196.5,303.833 196.5,292.167 196.5,280.5C 196.5,270.167 196.5,259.833 196.5,249.5C 197.492,241.684 197.826,233.684 197.5,225.5C 199.527,225.662 201.527,225.495 203.5,225C 204.056,224.617 204.389,224.117 204.5,223.5C 210.14,218.97 213.14,212.97 213.5,205.5 Z"/></g>
<g><path style="opacity:1" fill="#bd6c17" d="M 296.5,210.5 C 296.539,213.321 297.205,215.988 298.5,218.5C 301.539,222.85 305.205,226.517 309.5,229.5C 311.885,232.209 314.885,234.209 318.5,235.5C 319.386,236.325 319.719,237.325 319.5,238.5C 320.5,238.5 321.5,238.5 322.5,238.5C 322.285,240.179 322.952,241.179 324.5,241.5C 324.5,244.833 324.5,248.167 324.5,251.5C 323.262,253.214 322.595,255.214 322.5,257.5C 317.879,260.02 312.879,261.02 307.5,260.5C 300.724,259.41 295.058,256.41 290.5,251.5C 290.052,249.535 289.052,249.202 287.5,250.5C 285.279,252.693 283.946,255.36 283.5,258.5C 282.675,259.386 281.675,259.719 280.5,259.5C 280.297,261.39 280.963,262.89 282.5,264C 281.833,264.667 281.167,265.333 280.5,266C 281.114,267.13 281.114,268.463 280.5,270C 278.312,273.566 276.312,277.233 274.5,281C 275.844,283.144 275.51,284.977 273.5,286.5C 272.533,287.806 271.199,288.473 269.5,288.5C 269.715,286.821 269.048,285.821 267.5,285.5C 266.316,284.312 266.316,283.145 267.5,282C 265.623,280.815 263.623,279.815 261.5,279C 262.416,278.722 263.082,278.222 263.5,277.5C 265.813,275.791 267.313,273.457 268,270.5C 270.259,260.947 272.259,251.281 274,241.5C 274.667,236.5 274.667,231.5 274,226.5C 273.194,221.708 272.36,217.374 271.5,213.5C 272.371,208.824 274.037,204.491 276.5,200.5C 278.417,199.884 279.584,198.55 280,196.5C 281.86,200.198 283.36,204.031 284.5,208C 285.996,208.507 287.163,208.007 288,206.5C 290.808,207.919 293.641,209.252 296.5,210.5 Z"/></g>
<g><path style="opacity:1" fill="#a3a1af" d="M 471.5,206.5 C 472.158,218.075 473.158,229.575 474.5,241C 472.875,241.853 472.542,242.853 473.5,244C 471.19,244.497 468.857,244.663 466.5,244.5C 467.78,236.269 467.78,227.603 466.5,218.5C 465.5,218.5 464.5,218.5 463.5,218.5C 466.711,214.881 469.377,210.881 471.5,206.5 Z"/></g>
<g><path style="opacity:1" fill="#b3b1ba" d="M 481.5,186.5 C 480.942,190.011 480.276,193.511 479.5,197C 479.667,198.167 479.833,199.333 480,200.5C 483.612,195.257 484.112,195.59 481.5,201.5C 483.472,203.415 484.472,205.749 484.5,208.5C 478.231,219.557 479.564,229.557 488.5,238.5C 486.495,239.254 485.828,240.421 486.5,242C 478.672,243.793 479.005,244.793 487.5,245C 488.858,245.934 490.192,246.768 491.5,247.5C 487.392,245.942 483.059,245.276 478.5,245.5C 474.629,245.185 470.962,245.518 467.5,246.5C 466.167,246.5 464.833,246.5 463.5,246.5C 464.5,245.833 465.5,245.167 466.5,244.5C 468.857,244.663 471.19,244.497 473.5,244C 472.542,242.853 472.875,241.853 474.5,241C 473.158,229.575 472.158,218.075 471.5,206.5C 474.341,199.484 477.674,192.818 481.5,186.5 Z"/></g>
<g><path style="opacity:1" fill="#b97723" d="M 489.5,204.5 C 489.5,205.5 489.5,206.5 489.5,207.5C 488.5,207.5 487.5,207.5 486.5,207.5C 486.481,209.06 486.148,210.56 485.5,212C 486.022,212.95 486.689,213.784 487.5,214.5C 485.216,216.852 484.216,219.685 484.5,223C 486.365,227.225 487.698,231.391 488.5,235.5C 490.328,238.194 492.661,240.194 495.5,241.5C 492.881,241.075 490.547,240.075 488.5,238.5C 479.564,229.557 478.231,219.557 484.5,208.5C 485.945,206.937 487.611,205.604 489.5,204.5 Z"/></g>
<g><path style="opacity:1" fill="#a76315" d="M 121.5,200.5 C 123.179,200.285 124.179,200.952 124.5,202.5C 124.5,204.167 124.5,205.833 124.5,207.5C 122.308,209.59 119.641,210.59 116.5,210.5C 114.502,215.549 113.336,220.883 113,226.5C 112.333,232.5 112.333,238.5 113,244.5C 113.442,248.606 114.942,252.273 117.5,255.5C 118.086,255.291 118.586,254.957 119,254.5C 118.938,258.27 120.771,260.27 124.5,260.5C 124.5,275.833 124.5,291.167 124.5,306.5C 124.167,306.5 123.833,306.5 123.5,306.5C 122.974,293.87 119.474,282.203 113,271.5C 112.809,269.292 112.309,267.292 111.5,265.5C 112.141,264.518 112.807,263.518 113.5,262.5C 111.829,261.164 110.162,259.831 108.5,258.5C 107.699,256.958 107.366,255.292 107.5,253.5C 109.544,254.031 111.211,255.198 112.5,257C 113.5,257.667 114.5,257.667 115.5,257C 114.299,256.097 113.465,254.931 113,253.5C 111.848,247.545 110.014,241.878 107.5,236.5C 108.15,231.851 108.65,227.184 109,222.5C 109.163,220.324 109.996,218.491 111.5,217C 110.663,215.989 110.33,214.822 110.5,213.5C 109.167,213.5 107.833,213.5 106.5,213.5C 109.947,207.387 114.947,203.054 121.5,200.5 Z"/></g>
<g><path style="opacity:1" fill="#a9651a" d="M 309.5,212.5 C 314.075,216.284 319.075,219.284 324.5,221.5C 324.5,222.833 324.5,224.167 324.5,225.5C 323.448,225.649 322.448,225.483 321.5,225C 318.148,221.454 314.481,218.287 310.5,215.5C 309.89,214.609 309.557,213.609 309.5,212.5 Z"/></g>
<g><path style="opacity:1" fill="#393958" d="M 395.5,212.5 C 396.309,214.292 396.809,216.292 397,218.5C 398.886,250.466 400.053,282.466 400.5,314.5C 402.199,314.66 403.866,314.494 405.5,314C 412.232,310.925 418.899,307.758 425.5,304.5C 425.5,314.833 425.5,325.167 425.5,335.5C 424.523,338.287 424.19,341.287 424.5,344.5C 400.779,339.88 377.113,335.047 353.5,330C 351.881,329.764 350.881,328.931 350.5,327.5C 350.5,326.833 350.5,326.167 350.5,325.5C 354.011,319.139 357.011,312.472 359.5,305.5C 363.478,307.154 367.478,308.821 371.5,310.5C 374.988,314.296 379.321,316.296 384.5,316.5C 384.559,283.825 384.059,251.159 383,218.5C 382.392,216.846 381.892,215.179 381.5,213.5C 383.734,214.447 386.068,215.114 388.5,215.5C 390.847,214.474 393.18,213.474 395.5,212.5 Z"/></g>
<g><path style="opacity:1" fill="#f5a121" d="M 160.5,211.5 C 160.047,212.458 159.381,213.292 158.5,214C 159.91,214.368 160.91,215.201 161.5,216.5C 158.052,230.964 155.886,245.63 155,260.5C 154.722,261.416 154.222,262.082 153.5,262.5C 154.08,258.19 154.414,253.857 154.5,249.5C 152.708,249.366 151.042,249.699 149.5,250.5C 148.504,250.586 147.671,250.252 147,249.5C 146.827,245.459 146.327,241.459 145.5,237.5C 143.013,234.536 140.013,233.869 136.5,235.5C 135.571,234.311 135.238,232.978 135.5,231.5C 135.961,228.697 137.295,226.363 139.5,224.5C 139.833,224.5 140.167,224.5 140.5,224.5C 146.622,219.387 153.289,215.054 160.5,211.5 Z"/></g>
<g><path style="opacity:1" fill="#92909d" d="M 463.5,218.5 C 464.5,218.5 465.5,218.5 466.5,218.5C 467.78,227.603 467.78,236.269 466.5,244.5C 465.5,245.167 464.5,245.833 463.5,246.5C 461.435,246.517 459.435,246.85 457.5,247.5C 457.167,247.5 456.833,247.5 456.5,247.5C 456.197,238.749 456.53,230.082 457.5,221.5C 459.181,219.992 461.181,218.992 463.5,218.5 Z"/></g>
<g><path style="opacity:1" fill="#b27014" d="M 106.5,213.5 C 107.833,213.5 109.167,213.5 110.5,213.5C 110.33,214.822 110.663,215.989 111.5,217C 109.996,218.491 109.163,220.324 109,222.5C 108.65,227.184 108.15,231.851 107.5,236.5C 110.014,241.878 111.848,247.545 113,253.5C 113.465,254.931 114.299,256.097 115.5,257C 114.5,257.667 113.5,257.667 112.5,257C 111.211,255.198 109.544,254.031 107.5,253.5C 107.158,252.662 106.492,252.328 105.5,252.5C 105.662,250.473 105.495,248.473 105,246.5C 103.26,245.284 102.26,243.618 102,241.5C 101.077,233.691 101.577,226.024 103.5,218.5C 103.75,216.326 104.75,214.659 106.5,213.5 Z"/></g>
<g><path style="opacity:1" fill="#a06b47" d="M 177.5,223.5 C 179.5,223.5 181.5,223.5 183.5,223.5C 183.5,226.833 183.5,230.167 183.5,233.5C 183.167,233.5 182.833,233.5 182.5,233.5C 182.5,230.5 182.5,227.5 182.5,224.5C 180.585,224.784 178.919,224.451 177.5,223.5 Z"/></g>
<g><path style="opacity:1" fill="#875a51" d="M 204.5,223.5 C 204.389,224.117 204.056,224.617 203.5,225C 201.527,225.495 199.527,225.662 197.5,225.5C 197.826,233.684 197.492,241.684 196.5,249.5C 196.5,241.167 196.5,232.833 196.5,224.5C 199.237,224.599 201.904,224.265 204.5,223.5 Z"/></g>
<g><path style="opacity:1" fill="#8d9ad1" d="M 252.5,225.5 C 253.552,225.351 254.552,225.517 255.5,226C 255.584,249.408 255.417,272.908 255,296.5C 254.333,255.167 253.667,255.167 253,296.5C 252.832,275.329 252.332,254.329 251.5,233.5C 251.5,231.167 251.5,228.833 251.5,226.5C 251.5,225.833 251.833,225.5 252.5,225.5 Z"/></g>
<g><path style="opacity:1" fill="#b08c07" d="M 310.5,215.5 C 314.481,218.287 318.148,221.454 321.5,225C 322.448,225.483 323.448,225.649 324.5,225.5C 324.5,230.833 324.5,236.167 324.5,241.5C 322.952,241.179 322.285,240.179 322.5,238.5C 321.5,238.5 320.5,238.5 319.5,238.5C 319.719,237.325 319.386,236.325 318.5,235.5C 314.885,234.209 311.885,232.209 309.5,229.5C 311.239,230.434 312.905,230.434 314.5,229.5C 313.91,228.201 312.91,227.368 311.5,227C 312.428,226.612 313.095,225.945 313.5,225C 311.077,222.059 310.077,218.893 310.5,215.5 Z"/></g>
<g><path style="opacity:0.012" fill="#f5ca8f" d="M 519.5,232.5 C 518.189,235.811 515.855,238.145 512.5,239.5C 512.5,238.833 512.5,238.167 512.5,237.5C 515.093,236.246 517.427,234.58 519.5,232.5 Z"/></g>
<g><path style="opacity:0.759" fill="#bc8b60" d="M 103.5,218.5 C 101.577,226.024 101.077,233.691 102,241.5C 102.26,243.618 103.26,245.284 105,246.5C 105.495,248.473 105.662,250.473 105.5,252.5C 98.4459,241.477 97.7793,230.144 103.5,218.5 Z"/></g>
<g><path style="opacity:1" fill="#525995" d="M 457.5,221.5 C 456.53,230.082 456.197,238.749 456.5,247.5C 455.172,279.598 455.172,311.598 456.5,343.5C 456.833,343.5 457.167,343.5 457.5,343.5C 457.5,343.833 457.5,344.167 457.5,344.5C 458.125,353.205 454.125,357.871 445.5,358.5C 444.761,358.631 444.094,358.464 443.5,358C 444.701,357.097 445.535,355.931 446,354.5C 446.167,333.667 446.333,312.833 446.5,292C 446.5,270.822 445.833,249.989 444.5,229.5C 444.987,228.527 445.487,227.527 446,226.5C 448.027,226.986 450.193,226.986 452.5,226.5C 452.5,225.5 452.5,224.5 452.5,223.5C 454.322,223.169 455.989,222.502 457.5,221.5 Z"/></g>
<g><path style="opacity:1" fill="#e6e7f5" d="M 330.5,226.5 C 330.833,226.5 331.167,226.5 331.5,226.5C 337.035,229.767 342.702,232.767 348.5,235.5C 350.435,236.81 352.435,238.143 354.5,239.5C 355.496,244.462 356.163,249.462 356.5,254.5C 356.565,254.938 356.399,255.272 356,255.5C 354.933,254.809 353.766,254.309 352.5,254C 345.674,246.676 338.341,239.843 330.5,233.5C 330.5,231.167 330.5,228.833 330.5,226.5 Z"/></g>
<g><path style="opacity:1" fill="#f8b99d" d="M 134.5,231.5 C 134.833,231.5 135.167,231.5 135.5,231.5C 135.238,232.978 135.571,234.311 136.5,235.5C 140.013,233.869 143.013,234.536 145.5,237.5C 146.327,241.459 146.827,245.459 147,249.5C 147.671,250.252 148.504,250.586 149.5,250.5C 147.86,253.85 147.026,257.517 147,261.5C 144.521,263.966 142.021,266.299 139.5,268.5C 135.723,269.994 131.723,270.661 127.5,270.5C 127.074,265.757 126.407,261.757 125.5,258.5C 125.167,258.5 124.833,258.5 124.5,258.5C 122.948,256.058 121.948,253.391 121.5,250.5C 122.057,247.954 123.057,245.621 124.5,243.5C 126.027,243.573 127.027,242.906 127.5,241.5C 128.5,241.167 129.167,240.5 129.5,239.5C 133.602,238.391 135.269,235.725 134.5,231.5 Z"/></g>
<g><path style="opacity:1" fill="#d2d5e9" d="M 251.5,226.5 C 251.5,228.833 251.5,231.167 251.5,233.5C 251.5,244.167 251.5,254.833 251.5,265.5C 250.069,265.881 249.236,266.881 249,268.5C 248.517,267.552 248.351,266.552 248.5,265.5C 243.526,264.674 238.526,264.007 233.5,263.5C 233.5,262.5 233.5,261.5 233.5,260.5C 229.586,260.111 225.92,260.778 222.5,262.5C 223.773,255.23 224.606,247.896 225,240.5C 225.995,239.934 226.828,239.267 227.5,238.5C 235.748,235.043 243.748,231.043 251.5,226.5 Z"/></g>
<g><path style="opacity:1" fill="#9a5712" d="M 264.5,218.5 C 265.5,218.5 266.5,218.5 267.5,218.5C 268.866,229.847 268.7,241.18 267,252.5C 263.394,258.689 261.228,265.355 260.5,272.5C 259.5,272.5 258.5,272.5 257.5,272.5C 258.152,255.799 257.485,239.466 255.5,223.5C 258.331,221.583 261.331,219.917 264.5,218.5 Z"/></g>
<g><path style="opacity:1" fill="#d0ccd0" d="M 488.5,238.5 C 490.547,240.075 492.881,241.075 495.5,241.5C 498.455,242.159 501.455,242.492 504.5,242.5C 502.735,243.461 500.735,243.795 498.5,243.5C 497.454,245.882 497.454,248.215 498.5,250.5C 497.609,249.89 496.609,249.557 495.5,249.5C 494.167,249.167 492.833,248.833 491.5,248.5C 491.5,248.167 491.5,247.833 491.5,247.5C 490.192,246.768 488.858,245.934 487.5,245C 479.005,244.793 478.672,243.793 486.5,242C 485.828,240.421 486.495,239.254 488.5,238.5 Z"/></g>
<g><path style="opacity:1" fill="#6e576a" d="M 456.5,247.5 C 456.833,247.5 457.167,247.5 457.5,247.5C 456.523,268.121 456.19,288.787 456.5,309.5C 456.5,320.833 456.5,332.167 456.5,343.5C 455.172,311.598 455.172,279.598 456.5,247.5 Z"/></g>
<g><path style="opacity:1" fill="#ab6516" d="M 478.5,245.5 C 483.059,245.276 487.392,245.942 491.5,247.5C 491.5,247.833 491.5,248.167 491.5,248.5C 488.794,248.575 486.127,248.908 483.5,249.5C 483.859,251.766 483.192,253.599 481.5,255C 482.9,256.438 484.567,257.271 486.5,257.5C 486.232,260.119 486.565,262.619 487.5,265C 484.635,265.183 481.969,265.683 479.5,266.5C 478.262,268.214 477.595,270.214 477.5,272.5C 471.612,272.735 467.279,275.401 464.5,280.5C 464.338,278.473 464.505,276.473 465,274.5C 466.762,268.956 468.929,263.623 471.5,258.5C 469.69,256.377 468.357,254.043 467.5,251.5C 471.456,250.947 471.456,250.114 467.5,249C 473.539,248.663 479.539,247.997 485.5,247C 482.964,246.814 480.631,246.314 478.5,245.5 Z"/></g>
<g><path style="opacity:0.988" fill="#b9814a" d="M 105.5,252.5 C 106.492,252.328 107.158,252.662 107.5,253.5C 107.366,255.292 107.699,256.958 108.5,258.5C 105.19,260.125 101.857,261.792 98.5,263.5C 100.095,260.069 102.595,257.402 106,255.5C 106.47,254.423 106.303,253.423 105.5,252.5 Z"/></g>
<g><path style="opacity:1" fill="#7a565c" d="M 182.5,233.5 C 182.833,233.5 183.167,233.5 183.5,233.5C 183.701,244.372 183.035,255.039 181.5,265.5C 181.833,254.833 182.167,244.167 182.5,233.5 Z"/></g>
<g><path style="opacity:1" fill="#cfa508" d="M 290.5,251.5 C 295.058,256.41 300.724,259.41 307.5,260.5C 311.486,261.363 315.486,261.696 319.5,261.5C 316.174,263.54 314.507,266.207 314.5,269.5C 312.833,269.5 311.167,269.5 309.5,269.5C 309.766,273.605 309.266,277.605 308,281.5C 305.281,282.444 302.448,282.777 299.5,282.5C 300.336,277.831 300.836,273.164 301,268.5C 295.742,266.225 290.742,263.558 286,260.5C 284.422,255.843 285.922,252.843 290.5,251.5 Z"/></g>
<g><path style="opacity:1" fill="#eca152" d="M 495.5,249.5 C 496.609,249.557 497.609,249.89 498.5,250.5C 506.779,254.446 513.113,260.446 517.5,268.5C 515.805,267.989 514.139,267.322 512.5,266.5C 511.167,265.5 511.167,264.5 512.5,263.5C 511.726,262.289 510.893,262.289 510,263.5C 509.033,262.322 508.533,260.989 508.5,259.5C 506.471,260.629 506.137,260.129 507.5,258C 505.608,255.365 503.274,254.532 500.5,255.5C 500.082,254.778 499.416,254.278 498.5,254C 498.957,253.586 499.291,253.086 499.5,252.5C 497.816,251.85 496.483,250.85 495.5,249.5 Z"/></g>
<g><path style="opacity:1" fill="#f8f8f9" d="M 153.5,262.5 C 151.895,269.427 150.895,276.427 150.5,283.5C 148.476,288.755 148.143,294.089 149.5,299.5C 151.555,300.559 152.889,302.225 153.5,304.5C 153.5,317.5 153.5,330.5 153.5,343.5C 147.646,343.152 143.146,340.485 140,335.5C 139.5,313.169 139.333,290.836 139.5,268.5C 142.021,266.299 144.521,263.966 147,261.5C 147.026,257.517 147.86,253.85 149.5,250.5C 151.042,249.699 152.708,249.366 154.5,249.5C 154.414,253.857 154.08,258.19 153.5,262.5 Z"/></g>
<g><path style="opacity:1" fill="#c97717" d="M 491.5,248.5 C 492.833,248.833 494.167,249.167 495.5,249.5C 496.483,250.85 497.816,251.85 499.5,252.5C 499.291,253.086 498.957,253.586 498.5,254C 499.416,254.278 500.082,254.778 500.5,255.5C 499.048,256.302 497.382,256.802 495.5,257C 496.217,259.612 497.55,261.778 499.5,263.5C 498.178,263.33 497.011,263.663 496,264.5C 495.772,271.513 493.772,277.846 490,283.5C 487.224,285.14 485.224,284.473 484,281.5C 483.16,284.318 483.994,286.484 486.5,288C 485.882,290.55 485.882,293.217 486.5,296C 486.333,297.5 486.167,299 486,300.5C 485.329,299.748 484.496,299.414 483.5,299.5C 482.757,296.43 480.757,294.764 477.5,294.5C 477.5,293.5 477.5,292.5 477.5,291.5C 475.019,291.677 473.186,290.677 472,288.5C 470.996,285.007 471.496,281.841 473.5,279C 479.36,278.32 485.026,278.82 490.5,280.5C 489.59,277.589 487.59,275.589 484.5,274.5C 483.52,271.914 483.187,269.247 483.5,266.5C 482.167,266.5 480.833,266.5 479.5,266.5C 481.969,265.683 484.635,265.183 487.5,265C 486.565,262.619 486.232,260.119 486.5,257.5C 484.567,257.271 482.9,256.438 481.5,255C 483.192,253.599 483.859,251.766 483.5,249.5C 486.127,248.908 488.794,248.575 491.5,248.5 Z"/></g>
<g><path style="opacity:1" fill="#b76916" d="M 111.5,265.5 C 112.309,267.292 112.809,269.292 113,271.5C 119.474,282.203 122.974,293.87 123.5,306.5C 121.054,301.716 117.387,298.383 112.5,296.5C 112.663,294.143 112.497,291.81 112,289.5C 110.989,288.663 109.822,288.33 108.5,288.5C 107.972,284.788 107.138,281.121 106,277.5C 104.294,276.692 103.461,275.359 103.5,273.5C 105.609,271.069 107.276,268.402 108.5,265.5C 109.5,265.5 110.5,265.5 111.5,265.5 Z"/></g>
<g><path style="opacity:1" fill="#b5910b" d="M 324.5,251.5 C 324.5,256.833 324.5,262.167 324.5,267.5C 322.219,267.077 320.552,267.744 319.5,269.5C 317.833,269.5 316.167,269.5 314.5,269.5C 314.507,266.207 316.174,263.54 319.5,261.5C 315.486,261.696 311.486,261.363 307.5,260.5C 312.879,261.02 317.879,260.02 322.5,257.5C 322.595,255.214 323.262,253.214 324.5,251.5 Z"/></g>
<g><path style="opacity:1" fill="#c37c1c" d="M 108.5,258.5 C 110.162,259.831 111.829,261.164 113.5,262.5C 112.807,263.518 112.141,264.518 111.5,265.5C 110.5,265.5 109.5,265.5 108.5,265.5C 107.276,268.402 105.609,271.069 103.5,273.5C 101.687,275.053 99.8533,276.72 98,278.5C 97.5045,280.473 97.3379,282.473 97.5,284.5C 96.5309,282.337 95.6976,280.004 95,277.5C 93.4815,277.943 92.3148,277.276 91.5,275.5C 90.8165,275.863 90.1499,276.196 89.5,276.5C 91.2698,271.287 94.2698,266.953 98.5,263.5C 101.857,261.792 105.19,260.125 108.5,258.5 Z"/></g>
<g><path style="opacity:1" fill="#9d5a12" d="M 478.5,245.5 C 480.631,246.314 482.964,246.814 485.5,247C 479.539,247.997 473.539,248.663 467.5,249C 471.456,250.114 471.456,250.947 467.5,251.5C 468.357,254.043 469.69,256.377 471.5,258.5C 468.929,263.623 466.762,268.956 465,274.5C 464.505,276.473 464.338,278.473 464.5,280.5C 463.662,280.842 463.328,281.508 463.5,282.5C 462.759,286.172 461.593,289.839 460,293.5C 459.667,291.833 459.333,290.167 459,288.5C 458.817,291.365 458.317,294.031 457.5,296.5C 457.179,280.781 457.846,265.114 459.5,249.5C 462.578,249.38 465.245,248.38 467.5,246.5C 470.962,245.518 474.629,245.185 478.5,245.5 Z"/></g>
<g><path style="opacity:0.2" fill="#f5d0aa" d="M 517.5,268.5 C 518.906,268.973 519.573,269.973 519.5,271.5C 518.094,271.027 517.427,270.027 517.5,268.5 Z"/></g>
<g><path style="opacity:1" fill="#515695" d="M 127.5,270.5 C 129.607,271.468 131.941,271.802 134.5,271.5C 134.333,298.835 134.5,326.169 135,353.5C 137.029,356.126 136.195,357.126 132.5,356.5C 128.911,355.908 126.578,353.908 125.5,350.5C 125.5,319.833 125.5,289.167 125.5,258.5C 126.407,261.757 127.074,265.757 127.5,270.5 Z"/></g>
<g><path style="opacity:1" fill="#bb7725" d="M 324.5,267.5 C 325.153,285.199 324.486,302.532 322.5,319.5C 321.5,319.5 320.5,319.5 319.5,319.5C 316.833,319.5 314.167,319.5 311.5,319.5C 315.298,318.517 319.298,318.183 323.5,318.5C 323.667,302.163 323.5,285.83 323,269.5C 322.667,280.5 322.333,291.5 322,302.5C 321.617,301.944 321.117,301.611 320.5,301.5C 320.828,290.654 320.494,279.987 319.5,269.5C 320.552,267.744 322.219,267.077 324.5,267.5 Z"/></g>
<g><path style="opacity:1" fill="#be9308" d="M 479.5,266.5 C 480.833,266.5 482.167,266.5 483.5,266.5C 483.187,269.247 483.52,271.914 484.5,274.5C 487.59,275.589 489.59,277.589 490.5,280.5C 485.026,278.82 479.36,278.32 473.5,279C 471.496,281.841 470.996,285.007 472,288.5C 473.186,290.677 475.019,291.677 477.5,291.5C 477.5,292.5 477.5,293.5 477.5,294.5C 476.5,294.5 475.5,294.5 474.5,294.5C 474.351,295.552 474.517,296.552 475,297.5C 475.333,297.167 475.667,296.833 476,296.5C 476.837,298.844 478.171,300.844 480,302.5C 480.667,304.833 480.667,307.167 480,309.5C 479.617,310.056 479.117,310.389 478.5,310.5C 478.664,307.813 478.497,305.146 478,302.5C 474.373,298.416 470.373,294.75 466,291.5C 464.249,288.748 463.416,285.748 463.5,282.5C 463.328,281.508 463.662,280.842 464.5,280.5C 467.279,275.401 471.612,272.735 477.5,272.5C 477.595,270.214 478.262,268.214 479.5,266.5 Z"/></g>
<g><path style="opacity:1" fill="#d17819" d="M 290.5,251.5 C 285.922,252.843 284.422,255.843 286,260.5C 290.742,263.558 295.742,266.225 301,268.5C 300.836,273.164 300.336,277.831 299.5,282.5C 302.448,282.777 305.281,282.444 308,281.5C 309.266,277.605 309.766,273.605 309.5,269.5C 311.167,269.5 312.833,269.5 314.5,269.5C 316.167,269.5 317.833,269.5 319.5,269.5C 320.494,279.987 320.828,290.654 320.5,301.5C 320.665,304.518 320.498,307.518 320,310.5C 319.503,307.854 319.336,305.187 319.5,302.5C 316.833,302.5 314.167,302.5 311.5,302.5C 311.66,304.199 311.494,305.866 311,307.5C 308.236,302.388 305.903,297.054 304,291.5C 296.193,286.377 287.693,284.711 278.5,286.5C 276.833,286.5 275.167,286.5 273.5,286.5C 275.51,284.977 275.844,283.144 274.5,281C 276.312,277.233 278.312,273.566 280.5,270C 281.114,268.463 281.114,267.13 280.5,266C 281.167,265.333 281.833,264.667 282.5,264C 280.963,262.89 280.297,261.39 280.5,259.5C 281.675,259.719 282.675,259.386 283.5,258.5C 283.946,255.36 285.279,252.693 287.5,250.5C 289.052,249.202 290.052,249.535 290.5,251.5 Z"/></g>
<g><path style="opacity:1" fill="#9d7b59" d="M 254.5,224.5 C 254.5,223.833 254.833,223.5 255.5,223.5C 257.485,239.466 258.152,255.799 257.5,272.5C 257.612,282.625 257.612,292.625 257.5,302.5C 257.5,309.167 257.5,315.833 257.5,322.5C 257.165,289.654 256.165,256.987 254.5,224.5 Z"/></g>
<g><path style="opacity:1" fill="#8b581e" d="M 463.5,246.5 C 464.833,246.5 466.167,246.5 467.5,246.5C 465.245,248.38 462.578,249.38 459.5,249.5C 457.846,265.114 457.179,280.781 457.5,296.5C 457.5,300.833 457.5,305.167 457.5,309.5C 457.167,309.5 456.833,309.5 456.5,309.5C 456.19,288.787 456.523,268.121 457.5,247.5C 459.435,246.85 461.435,246.517 463.5,246.5 Z"/></g>
<g><path style="opacity:1" fill="#dfe1f0" d="M 251.5,265.5 C 251.83,281.342 251.496,297.009 250.5,312.5C 250.682,304.378 250.016,296.378 248.5,288.5C 240.833,288.5 233.167,288.5 225.5,288.5C 224.833,284.5 224.167,284.5 223.5,288.5C 221.706,286.897 220.706,284.73 220.5,282C 221.309,280.216 221.976,278.383 222.5,276.5C 221.6,274.761 220.933,272.928 220.5,271C 221.275,268.178 221.942,265.344 222.5,262.5C 225.92,260.778 229.586,260.111 233.5,260.5C 233.5,261.5 233.5,262.5 233.5,263.5C 238.526,264.007 243.526,264.674 248.5,265.5C 248.351,266.552 248.517,267.552 249,268.5C 249.236,266.881 250.069,265.881 251.5,265.5 Z"/></g>
<g><path style="opacity:1" fill="#b4bbdf" d="M 330.5,226.5 C 330.5,228.833 330.5,231.167 330.5,233.5C 331.075,244.183 331.908,254.849 333,265.5C 333.333,257.167 333.667,248.833 334,240.5C 334.925,241.047 335.758,241.713 336.5,242.5C 335.833,244.5 335.167,246.5 334.5,248.5C 335.689,249.429 337.022,249.762 338.5,249.5C 339.143,257.15 339.477,264.817 339.5,272.5C 340.5,272.5 341.5,272.5 342.5,272.5C 342.833,277.833 343.167,283.167 343.5,288.5C 344.5,288.5 345.5,288.5 346.5,288.5C 346.833,293.833 347.167,299.167 347.5,304.5C 348.5,304.5 349.5,304.5 350.5,304.5C 351.39,311.61 351.39,318.61 350.5,325.5C 350.5,326.167 350.5,326.833 350.5,327.5C 340.789,327.995 333.956,323.662 330,314.5C 329.17,284.997 329.336,255.664 330.5,226.5 Z"/></g>
<g><path style="opacity:1" fill="#f38c1b" d="M 508.5,273.5 C 511.081,276.32 512.914,279.654 514,283.5C 515.288,290.437 515.788,297.437 515.5,304.5C 514.5,304.5 513.5,304.5 512.5,304.5C 512.124,309.626 511.124,314.626 509.5,319.5C 508.5,319.5 507.5,319.5 506.5,319.5C 506.468,324.946 503.801,327.612 498.5,327.5C 498.5,328.5 498.5,329.5 498.5,330.5C 493.832,332.754 488.832,334.587 483.5,336C 477.984,336.817 472.65,336.651 467.5,335.5C 471.167,333.833 473.833,331.167 475.5,327.5C 476.675,327.719 477.675,327.386 478.5,326.5C 480.5,323.5 482.5,320.5 484.5,317.5C 485.736,316.754 487.07,316.421 488.5,316.5C 488.884,314.071 489.551,311.737 490.5,309.5C 491.5,309.5 492.5,309.5 493.5,309.5C 494.613,305.211 495.613,300.878 496.5,296.5C 497.822,296.67 498.989,296.337 500,295.5C 501.374,291.259 502.874,287.093 504.5,283C 504.043,282.586 503.709,282.086 503.5,281.5C 505.095,278.605 506.762,275.939 508.5,273.5 Z"/></g>
<g><path style="opacity:1" fill="#f5a550" d="M 519.5,271.5 C 522.734,275.531 524.401,280.198 524.5,285.5C 523.732,284.737 523.232,283.737 523,282.5C 522.667,282.833 522.333,283.167 522,283.5C 520.488,279.629 519.655,275.629 519.5,271.5 Z"/></g>
<g><path style="opacity:1" fill="#b47215" d="M 257.5,272.5 C 258.5,272.5 259.5,272.5 260.5,272.5C 260.273,274.933 261.273,276.599 263.5,277.5C 263.082,278.222 262.416,278.722 261.5,279C 263.623,279.815 265.623,280.815 267.5,282C 266.316,283.145 266.316,284.312 267.5,285.5C 267.678,286.695 268.011,287.862 268.5,289C 266.726,291.343 265.392,293.843 264.5,296.5C 263.448,296.351 262.448,296.517 261.5,297C 260.603,299.311 259.27,301.144 257.5,302.5C 257.612,292.625 257.612,282.625 257.5,272.5 Z"/></g>
<g><path style="opacity:1" fill="#8d6a56" d="M 124.5,258.5 C 124.833,258.5 125.167,258.5 125.5,258.5C 125.5,289.167 125.5,319.833 125.5,350.5C 124.733,349.828 124.066,348.995 123.5,348C 121.277,347.434 119.277,346.6 117.5,345.5C 119.861,345.674 122.194,346.007 124.5,346.5C 124.5,343.167 124.5,339.833 124.5,336.5C 124.5,333.5 124.5,330.5 124.5,327.5C 124.5,324.167 124.5,320.833 124.5,317.5C 124.5,315.833 124.5,314.167 124.5,312.5C 124.5,310.5 124.5,308.5 124.5,306.5C 124.5,291.167 124.5,275.833 124.5,260.5C 124.5,259.833 124.5,259.167 124.5,258.5 Z"/></g>
<g><path style="opacity:1" fill="#c87e16" d="M 267.5,285.5 C 269.048,285.821 269.715,286.821 269.5,288.5C 271.199,288.473 272.533,287.806 273.5,286.5C 275.167,286.5 276.833,286.5 278.5,286.5C 279.806,287.467 280.473,288.801 280.5,290.5C 273.952,291.837 268.452,295.171 264,300.5C 263.51,301.793 263.343,303.127 263.5,304.5C 262.5,304.5 261.5,304.5 260.5,304.5C 259.979,309.846 260.979,314.846 263.5,319.5C 262.596,320.209 262.263,321.209 262.5,322.5C 261.596,321.791 261.263,320.791 261.5,319.5C 260.5,319.5 259.5,319.5 258.5,319.5C 258.737,320.791 258.404,321.791 257.5,322.5C 257.5,315.833 257.5,309.167 257.5,302.5C 259.27,301.144 260.603,299.311 261.5,297C 262.448,296.517 263.448,296.351 264.5,296.5C 265.392,293.843 266.726,291.343 268.5,289C 268.011,287.862 267.678,286.695 267.5,285.5 Z"/></g>
<g><path style="opacity:1" fill="#ed9823" d="M 97.5,284.5 C 97.5,285.833 97.5,287.167 97.5,288.5C 95.0178,296.298 94.8512,304.298 97,312.5C 99.7611,317.767 102.594,322.933 105.5,328C 103.939,328.318 102.772,329.151 102,330.5C 101.009,329.061 99.676,328.061 98,327.5C 97.5831,328.756 96.7498,329.423 95.5,329.5C 95.1785,327.042 94.1785,324.875 92.5,323C 92.6448,322.228 92.9781,321.561 93.5,321C 91.6101,318.979 89.6101,317.146 87.5,315.5C 84.6249,306.756 83.7916,297.756 85,288.5C 85.6006,284.048 87.1006,280.048 89.5,276.5C 90.1499,276.196 90.8165,275.863 91.5,275.5C 92.3148,277.276 93.4815,277.943 95,277.5C 95.6976,280.004 96.5309,282.337 97.5,284.5 Z"/></g>
<g><path style="opacity:1" fill="#ce7818" d="M 103.5,273.5 C 103.461,275.359 104.294,276.692 106,277.5C 107.138,281.121 107.972,284.788 108.5,288.5C 109.822,288.33 110.989,288.663 112,289.5C 112.497,291.81 112.663,294.143 112.5,296.5C 117.387,298.383 121.054,301.716 123.5,306.5C 123.833,306.5 124.167,306.5 124.5,306.5C 124.5,308.5 124.5,310.5 124.5,312.5C 122.956,312.297 121.622,311.63 120.5,310.5C 118.485,314.791 119.819,317.124 124.5,317.5C 124.5,320.833 124.5,324.167 124.5,327.5C 123.079,324.706 122.079,321.706 121.5,318.5C 119.146,318.162 116.813,317.662 114.5,317C 112.597,314.595 110.264,312.761 107.5,311.5C 106.225,307.343 104.558,303.343 102.5,299.5C 102.833,298.833 103.167,298.167 103.5,297.5C 101.701,294.197 99.7013,291.197 97.5,288.5C 97.5,287.167 97.5,285.833 97.5,284.5C 97.3379,282.473 97.5045,280.473 98,278.5C 99.8533,276.72 101.687,275.053 103.5,273.5 Z"/></g>
<g><path style="opacity:1" fill="#e3831c" d="M 97.5,288.5 C 99.7013,291.197 101.701,294.197 103.5,297.5C 103.167,298.167 102.833,298.833 102.5,299.5C 104.558,303.343 106.225,307.343 107.5,311.5C 110.264,312.761 112.597,314.595 114.5,317C 116.813,317.662 119.146,318.162 121.5,318.5C 122.079,321.706 123.079,324.706 124.5,327.5C 124.5,330.5 124.5,333.5 124.5,336.5C 121.797,336.048 119.13,335.381 116.5,334.5C 113.122,330.929 109.122,329.596 104.5,330.5C 104.291,331.086 103.957,331.586 103.5,332C 106.959,337.079 111.626,340.746 117.5,343C 116.402,343.77 116.402,344.603 117.5,345.5C 113.691,344.668 110.357,343.001 107.5,340.5C 106.415,338.413 104.749,337.08 102.5,336.5C 99.5489,334.882 97.2156,332.549 95.5,329.5C 96.7498,329.423 97.5831,328.756 98,327.5C 99.676,328.061 101.009,329.061 102,330.5C 102.772,329.151 103.939,328.318 105.5,328C 102.594,322.933 99.7611,317.767 97,312.5C 94.8512,304.298 95.0178,296.298 97.5,288.5 Z"/></g>
<g><path style="opacity:1" fill="#f6a853" d="M 524.5,285.5 C 526.554,294.01 526.387,302.677 524,311.5C 523.8,313.32 522.966,314.653 521.5,315.5C 521.944,309.168 522.444,302.835 523,296.5C 523.333,298.833 523.667,301.167 524,303.5C 524.499,297.509 524.666,291.509 524.5,285.5 Z"/></g>
<g><path style="opacity:1" fill="#c17017" d="M 463.5,282.5 C 463.416,285.748 464.249,288.748 466,291.5C 470.373,294.75 474.373,298.416 478,302.5C 478.497,305.146 478.664,307.813 478.5,310.5C 476.668,312.894 474.168,313.894 471,313.5C 469.5,313.333 468,313.167 466.5,313C 464.137,309.718 461.137,308.552 457.5,309.5C 457.5,305.167 457.5,300.833 457.5,296.5C 458.317,294.031 458.817,291.365 459,288.5C 459.333,290.167 459.667,291.833 460,293.5C 461.593,289.839 462.759,286.172 463.5,282.5 Z"/></g>
<g><path style="opacity:1" fill="#e08b19" d="M 311.5,319.5 C 311.5,320.167 311.5,320.833 311.5,321.5C 311.5,321.833 311.5,322.167 311.5,322.5C 310.272,323.306 309.272,324.306 308.5,325.5C 310.078,321.289 310.578,316.956 310,312.5C 309.667,312.167 309.333,311.833 309,311.5C 308.148,312.571 307.315,313.571 306.5,314.5C 308.132,306.994 305.966,300.994 300,296.5C 300.077,297.738 299.911,298.738 299.5,299.5C 298.614,298.675 298.281,297.675 298.5,296.5C 296.5,296.5 294.5,296.5 292.5,296.5C 292.634,298.292 292.301,299.958 291.5,301.5C 290.5,301.5 289.5,301.5 288.5,301.5C 288.545,296.053 287.545,295.553 285.5,300C 284.552,300.483 283.552,300.649 282.5,300.5C 282.821,298.952 283.821,298.285 285.5,298.5C 285.5,297.167 285.5,295.833 285.5,294.5C 288.881,294.46 292.214,294.793 295.5,295.5C 295.5,294.5 295.5,293.5 295.5,292.5C 290.586,290.511 285.586,289.845 280.5,290.5C 280.473,288.801 279.806,287.467 278.5,286.5C 287.693,284.711 296.193,286.377 304,291.5C 305.903,297.054 308.236,302.388 311,307.5C 311.494,305.866 311.66,304.199 311.5,302.5C 314.167,302.5 316.833,302.5 319.5,302.5C 319.336,305.187 319.503,307.854 320,310.5C 320.498,307.518 320.665,304.518 320.5,301.5C 321.117,301.611 321.617,301.944 322,302.5C 322.333,291.5 322.667,280.5 323,269.5C 323.5,285.83 323.667,302.163 323.5,318.5C 319.298,318.183 315.298,318.517 311.5,319.5 Z"/></g>
<g><path style="opacity:1" fill="#d57b1a" d="M 280.5,290.5 C 285.586,289.845 290.586,290.511 295.5,292.5C 295.5,293.5 295.5,294.5 295.5,295.5C 292.214,294.793 288.881,294.46 285.5,294.5C 285.5,295.833 285.5,297.167 285.5,298.5C 283.821,298.285 282.821,298.952 282.5,300.5C 279.883,301.297 278.55,303.131 278.5,306C 278.482,308.442 279.149,310.608 280.5,312.5C 278.825,310.998 276.992,309.665 275,308.5C 274.751,309.624 274.251,310.624 273.5,311.5C 270.442,314.563 267.108,317.23 263.5,319.5C 260.979,314.846 259.979,309.846 260.5,304.5C 261.5,304.5 262.5,304.5 263.5,304.5C 263.343,303.127 263.51,301.793 264,300.5C 268.452,295.171 273.952,291.837 280.5,290.5 Z"/></g>
<g><path style="opacity:1" fill="#cfa70a" d="M 124.5,312.5 C 124.5,314.167 124.5,315.833 124.5,317.5C 119.819,317.124 118.485,314.791 120.5,310.5C 121.622,311.63 122.956,312.297 124.5,312.5 Z"/></g>
<g><path style="opacity:1" fill="#daae0b" d="M 477.5,294.5 C 480.757,294.764 482.757,296.43 483.5,299.5C 488.106,311.6 483.773,317.933 470.5,318.5C 470.5,320.833 470.5,323.167 470.5,325.5C 468.833,325.5 467.167,325.5 465.5,325.5C 465.5,324.167 465.5,322.833 465.5,321.5C 465.762,320.022 465.429,318.689 464.5,317.5C 459.853,316.711 457.519,314.045 457.5,309.5C 461.137,308.552 464.137,309.718 466.5,313C 468,313.167 469.5,313.333 471,313.5C 474.168,313.894 476.668,312.894 478.5,310.5C 479.117,310.389 479.617,310.056 480,309.5C 480.667,307.167 480.667,304.833 480,302.5C 478.171,300.844 476.837,298.844 476,296.5C 475.667,296.833 475.333,297.167 475,297.5C 474.517,296.552 474.351,295.552 474.5,294.5C 475.5,294.5 476.5,294.5 477.5,294.5 Z"/></g>
<g><path style="opacity:1" fill="#f59d1f" d="M 517.5,268.5 C 517.427,270.027 518.094,271.027 519.5,271.5C 519.655,275.629 520.488,279.629 522,283.5C 522.333,283.167 522.667,282.833 523,282.5C 523.232,283.737 523.732,284.737 524.5,285.5C 524.666,291.509 524.499,297.509 524,303.5C 523.667,301.167 523.333,298.833 523,296.5C 522.444,302.835 521.944,309.168 521.5,315.5C 519.787,316.635 519.12,318.302 519.5,320.5C 517.871,322.06 516.704,321.727 516,319.5C 515.08,322.101 514.413,324.768 514,327.5C 513.333,328.833 512.667,328.833 512,327.5C 511.517,328.448 511.351,329.448 511.5,330.5C 510.5,330.5 509.5,330.5 508.5,330.5C 508.5,331.5 508.5,332.5 508.5,333.5C 505.05,332.756 503.384,334.09 503.5,337.5C 502.167,337.5 500.833,337.5 499.5,337.5C 499.5,338.5 499.5,339.5 499.5,340.5C 486.181,348.072 472.181,349.406 457.5,344.5C 457.5,344.167 457.5,343.833 457.5,343.5C 457.5,340.167 457.5,336.833 457.5,333.5C 460.488,335.273 463.821,335.94 467.5,335.5C 472.65,336.651 477.984,336.817 483.5,336C 488.832,334.587 493.832,332.754 498.5,330.5C 498.5,329.5 498.5,328.5 498.5,327.5C 503.801,327.612 506.468,324.946 506.5,319.5C 507.5,319.5 508.5,319.5 509.5,319.5C 511.124,314.626 512.124,309.626 512.5,304.5C 513.5,304.5 514.5,304.5 515.5,304.5C 515.788,297.437 515.288,290.437 514,283.5C 512.914,279.654 511.081,276.32 508.5,273.5C 507.194,272.533 506.527,271.199 506.5,269.5C 505.325,269.719 504.325,269.386 503.5,268.5C 502.492,266.501 501.159,264.834 499.5,263.5C 497.55,261.778 496.217,259.612 495.5,257C 497.382,256.802 499.048,256.302 500.5,255.5C 503.274,254.532 505.608,255.365 507.5,258C 506.137,260.129 506.471,260.629 508.5,259.5C 508.533,260.989 509.033,262.322 510,263.5C 510.893,262.289 511.726,262.289 512.5,263.5C 511.167,264.5 511.167,265.5 512.5,266.5C 514.139,267.322 515.805,267.989 517.5,268.5 Z"/></g>
<g><path style="opacity:0.357" fill="#f5b980" d="M 521.5,315.5 C 521.598,317.553 520.931,319.22 519.5,320.5C 519.12,318.302 519.787,316.635 521.5,315.5 Z"/></g>
<g><path style="opacity:0.02" fill="#f5e0ca" d="M 311.5,319.5 C 314.167,319.5 316.833,319.5 319.5,319.5C 316.947,320.255 314.28,320.922 311.5,321.5C 311.5,320.833 311.5,320.167 311.5,319.5 Z"/></g>
<g><path style="opacity:0.784" fill="#f7ac5f" d="M 87.5,315.5 C 89.6101,317.146 91.6101,318.979 93.5,321C 92.9781,321.561 92.6448,322.228 92.5,323C 94.1785,324.875 95.1785,327.042 95.5,329.5C 91.8255,325.493 89.1588,320.827 87.5,315.5 Z"/></g>
<g><path style="opacity:1" fill="#f5ba0e" d="M 291.5,301.5 C 294.232,302.967 294.065,303.967 291,304.5C 283.313,300.524 280.979,302.524 284,310.5C 290.788,313.878 292.288,318.878 288.5,325.5C 284.062,324.425 282.062,326.092 282.5,330.5C 281.167,330.5 279.833,330.5 278.5,330.5C 278.5,328.5 278.5,326.5 278.5,324.5C 274.324,325.169 272.991,323.669 274.5,320C 278.33,321.008 282.33,321.508 286.5,321.5C 286.888,316.891 284.888,313.891 280.5,312.5C 279.149,310.608 278.482,308.442 278.5,306C 278.55,303.131 279.883,301.297 282.5,300.5C 283.552,300.649 284.552,300.483 285.5,300C 287.545,295.553 288.545,296.053 288.5,301.5C 289.5,301.5 290.5,301.5 291.5,301.5 Z"/></g>
<g><path style="opacity:1" fill="#cc781e" d="M 456.5,309.5 C 456.833,309.5 457.167,309.5 457.5,309.5C 457.519,314.045 459.853,316.711 464.5,317.5C 465.429,318.689 465.762,320.022 465.5,321.5C 464.027,322.072 462.693,322.905 461.5,324C 461.833,324.333 462.167,324.667 462.5,325C 460.945,326.583 459.778,328.416 459,330.5C 458.667,327.167 458.333,323.833 458,320.5C 457.501,324.821 457.334,329.154 457.5,333.5C 457.5,336.833 457.5,340.167 457.5,343.5C 457.167,343.5 456.833,343.5 456.5,343.5C 456.5,332.167 456.5,320.833 456.5,309.5 Z"/></g>
<g><path style="opacity:1" fill="#f08b1b" d="M 306.5,314.5 C 306.326,318.693 305.326,322.693 303.5,326.5C 299.97,329.961 295.97,332.794 291.5,335C 286.833,335.667 282.167,335.667 277.5,335C 275.431,333.477 273.097,332.643 270.5,332.5C 269.614,328.963 267.281,327.296 263.5,327.5C 263.784,325.585 263.451,323.919 262.5,322.5C 262.263,321.209 262.596,320.209 263.5,319.5C 267.108,317.23 270.442,314.563 273.5,311.5C 274.251,310.624 274.751,309.624 275,308.5C 276.992,309.665 278.825,310.998 280.5,312.5C 284.888,313.891 286.888,316.891 286.5,321.5C 282.33,321.508 278.33,321.008 274.5,320C 272.991,323.669 274.324,325.169 278.5,324.5C 278.5,326.5 278.5,328.5 278.5,330.5C 279.833,330.5 281.167,330.5 282.5,330.5C 282.062,326.092 284.062,324.425 288.5,325.5C 292.288,318.878 290.788,313.878 284,310.5C 280.979,302.524 283.313,300.524 291,304.5C 294.065,303.967 294.232,302.967 291.5,301.5C 292.301,299.958 292.634,298.292 292.5,296.5C 294.5,296.5 296.5,296.5 298.5,296.5C 298.281,297.675 298.614,298.675 299.5,299.5C 299.911,298.738 300.077,297.738 300,296.5C 305.966,300.994 308.132,306.994 306.5,314.5 Z"/></g>
<g><path style="opacity:1" fill="#919bcb" d="M 324.5,221.5 C 326.657,223.412 328.991,225.079 331.5,226.5C 331.167,226.5 330.833,226.5 330.5,226.5C 329.336,255.664 329.17,284.997 330,314.5C 333.956,323.662 340.789,327.995 350.5,327.5C 350.881,328.931 351.881,329.764 353.5,330C 377.113,335.047 400.779,339.88 424.5,344.5C 424.19,341.287 424.523,338.287 425.5,335.5C 425.5,338.5 425.5,341.5 425.5,344.5C 430.33,345.029 434.663,343.862 438.5,341C 439.823,340.184 440.489,339.017 440.5,337.5C 441.167,320.17 441.5,302.67 441.5,285C 441.5,267.154 440.833,249.654 439.5,232.5C 440.965,231.263 442.632,230.263 444.5,229.5C 445.833,249.989 446.5,270.822 446.5,292C 446.333,312.833 446.167,333.667 446,354.5C 445.535,355.931 444.701,357.097 443.5,358C 444.094,358.464 444.761,358.631 445.5,358.5C 441.522,360.575 437.189,361.908 432.5,362.5C 401.054,356.537 369.721,350.037 338.5,343C 328.071,338.645 322.738,330.811 322.5,319.5C 324.486,302.532 325.153,285.199 324.5,267.5C 324.5,262.167 324.5,256.833 324.5,251.5C 324.5,248.167 324.5,244.833 324.5,241.5C 324.5,236.167 324.5,230.833 324.5,225.5C 324.5,224.167 324.5,222.833 324.5,221.5 Z"/></g>
<g><path style="opacity:1" fill="#e4e6fa" d="M 438.5,233.5 C 438.5,232.833 438.833,232.5 439.5,232.5C 440.833,249.654 441.5,267.154 441.5,285C 441.5,302.67 441.167,320.17 440.5,337.5C 441.16,302.484 440.493,267.817 438.5,233.5 Z"/></g>
<g><path style="opacity:1" fill="#bfc5e3" d="M 330.5,233.5 C 338.341,239.843 345.674,246.676 352.5,254C 353.766,254.309 354.933,254.809 356,255.5C 356.399,255.272 356.565,254.938 356.5,254.5C 357.98,259.606 358.98,264.94 359.5,270.5C 358.274,274.178 358.274,277.845 359.5,281.5C 357.73,287.643 356.063,293.81 354.5,300C 356.351,301.683 358.017,303.516 359.5,305.5C 357.011,312.472 354.011,319.139 350.5,325.5C 351.39,318.61 351.39,311.61 350.5,304.5C 349.5,304.5 348.5,304.5 347.5,304.5C 347.167,299.167 346.833,293.833 346.5,288.5C 345.5,288.5 344.5,288.5 343.5,288.5C 343.167,283.167 342.833,277.833 342.5,272.5C 341.5,272.5 340.5,272.5 339.5,272.5C 339.477,264.817 339.143,257.15 338.5,249.5C 337.022,249.762 335.689,249.429 334.5,248.5C 335.167,246.5 335.833,244.5 336.5,242.5C 335.758,241.713 334.925,241.047 334,240.5C 333.667,248.833 333.333,257.167 333,265.5C 331.908,254.849 331.075,244.183 330.5,233.5 Z"/></g>
<g><path style="opacity:1" fill="#f8f8f9" d="M 438.5,233.5 C 440.493,267.817 441.16,302.484 440.5,337.5C 440.489,339.017 439.823,340.184 438.5,341C 434.663,343.862 430.33,345.029 425.5,344.5C 425.5,341.5 425.5,338.5 425.5,335.5C 425.5,325.167 425.5,314.833 425.5,304.5C 427.127,302.37 428.96,300.37 431,298.5C 431.167,296.833 431.333,295.167 431.5,293.5C 429.329,275.466 426.996,257.466 424.5,239.5C 425.791,239.737 426.791,239.404 427.5,238.5C 431.043,236.562 434.71,234.895 438.5,233.5 Z"/></g>
<g><path style="opacity:1" fill="#faaf60" d="M 311.5,322.5 C 309.628,328.029 306.295,332.362 301.5,335.5C 301.238,334.022 301.571,332.689 302.5,331.5C 303.086,331.709 303.586,332.043 304,332.5C 304.494,330.866 304.66,329.199 304.5,327.5C 306.483,327.843 307.817,327.176 308.5,325.5C 309.272,324.306 310.272,323.306 311.5,322.5 Z"/></g>
<g><path style="opacity:1" fill="#e8962d" d="M 262.5,322.5 C 263.451,323.919 263.784,325.585 263.5,327.5C 267.281,327.296 269.614,328.963 270.5,332.5C 269.357,332.908 268.357,333.575 267.5,334.5C 269.898,335.698 271.898,337.364 273.5,339.5C 267.817,337.836 263.483,334.502 260.5,329.5C 259.01,327.419 258.01,325.086 257.5,322.5C 258.404,321.791 258.737,320.791 258.5,319.5C 259.5,319.5 260.5,319.5 261.5,319.5C 261.263,320.791 261.596,321.791 262.5,322.5 Z"/></g>
<g><path style="opacity:0.941" fill="#f8ae63" d="M 519.5,320.5 C 515.167,329.5 508.5,336.167 499.5,340.5C 499.5,339.5 499.5,338.5 499.5,337.5C 500.833,337.5 502.167,337.5 503.5,337.5C 503.384,334.09 505.05,332.756 508.5,333.5C 508.5,332.5 508.5,331.5 508.5,330.5C 509.5,330.5 510.5,330.5 511.5,330.5C 511.351,329.448 511.517,328.448 512,327.5C 512.667,328.833 513.333,328.833 514,327.5C 514.413,324.768 515.08,322.101 516,319.5C 516.704,321.727 517.871,322.06 519.5,320.5 Z"/></g>
<g><path style="opacity:1" fill="#e2831b" d="M 499.5,263.5 C 501.159,264.834 502.492,266.501 503.5,268.5C 504.325,269.386 505.325,269.719 506.5,269.5C 506.527,271.199 507.194,272.533 508.5,273.5C 506.762,275.939 505.095,278.605 503.5,281.5C 503.709,282.086 504.043,282.586 504.5,283C 502.874,287.093 501.374,291.259 500,295.5C 498.989,296.337 497.822,296.67 496.5,296.5C 495.613,300.878 494.613,305.211 493.5,309.5C 492.5,309.5 491.5,309.5 490.5,309.5C 489.551,311.737 488.884,314.071 488.5,316.5C 487.07,316.421 485.736,316.754 484.5,317.5C 482.5,320.5 480.5,323.5 478.5,326.5C 477.675,327.386 476.675,327.719 475.5,327.5C 473.833,331.167 471.167,333.833 467.5,335.5C 463.821,335.94 460.488,335.273 457.5,333.5C 457.334,329.154 457.501,324.821 458,320.5C 458.333,323.833 458.667,327.167 459,330.5C 459.778,328.416 460.945,326.583 462.5,325C 462.167,324.667 461.833,324.333 461.5,324C 462.693,322.905 464.027,322.072 465.5,321.5C 465.5,322.833 465.5,324.167 465.5,325.5C 467.167,325.5 468.833,325.5 470.5,325.5C 470.5,323.167 470.5,320.833 470.5,318.5C 483.773,317.933 488.106,311.6 483.5,299.5C 484.496,299.414 485.329,299.748 486,300.5C 486.167,299 486.333,297.5 486.5,296C 485.882,293.217 485.882,290.55 486.5,288C 483.994,286.484 483.16,284.318 484,281.5C 485.224,284.473 487.224,285.14 490,283.5C 493.772,277.846 495.772,271.513 496,264.5C 497.011,263.663 498.178,263.33 499.5,263.5 Z"/></g>
<g><path style="opacity:1" fill="#f59e1a" d="M 308.5,325.5 C 307.817,327.176 306.483,327.843 304.5,327.5C 304.66,329.199 304.494,330.866 304,332.5C 303.586,332.043 303.086,331.709 302.5,331.5C 301.571,332.689 301.238,334.022 301.5,335.5C 300.85,335.196 300.183,334.863 299.5,334.5C 298.304,334.846 298.304,335.346 299.5,336C 295.4,336.217 291.733,337.551 288.5,340C 283.472,340.588 278.472,340.422 273.5,339.5C 271.898,337.364 269.898,335.698 267.5,334.5C 268.357,333.575 269.357,332.908 270.5,332.5C 273.097,332.643 275.431,333.477 277.5,335C 282.167,335.667 286.833,335.667 291.5,335C 295.97,332.794 299.97,329.961 303.5,326.5C 305.326,322.693 306.326,318.693 306.5,314.5C 307.315,313.571 308.148,312.571 309,311.5C 309.333,311.833 309.667,312.167 310,312.5C 310.578,316.956 310.078,321.289 308.5,325.5 Z"/></g>
<g><path style="opacity:1" fill="#f39d1b" d="M 124.5,336.5 C 124.5,339.833 124.5,343.167 124.5,346.5C 122.194,346.007 119.861,345.674 117.5,345.5C 116.402,344.603 116.402,343.77 117.5,343C 111.626,340.746 106.959,337.079 103.5,332C 103.957,331.586 104.291,331.086 104.5,330.5C 109.122,329.596 113.122,330.929 116.5,334.5C 119.13,335.381 121.797,336.048 124.5,336.5 Z"/></g>
<g><path style="opacity:0.675" fill="#f4b67d" d="M 102.5,336.5 C 104.749,337.08 106.415,338.413 107.5,340.5C 105.251,339.92 103.585,338.587 102.5,336.5 Z"/></g>
<g><path style="opacity:1" fill="#f7ad5f" d="M 301.5,335.5 C 292.919,342.652 283.586,343.986 273.5,339.5C 278.472,340.422 283.472,340.588 288.5,340C 291.733,337.551 295.4,336.217 299.5,336C 298.304,335.346 298.304,334.846 299.5,334.5C 300.183,334.863 300.85,335.196 301.5,335.5 Z"/></g>
<g><path style="opacity:1" fill="#909bcc" d="M 252.5,225.5 C 252.842,224.662 253.508,224.328 254.5,224.5C 256.165,256.987 257.165,289.654 257.5,322.5C 258.01,325.086 259.01,327.419 260.5,329.5C 259.735,329.077 258.902,328.743 258,328.5C 250.884,338.644 241.051,343.978 228.5,344.5C 218.153,345.306 208.153,347.306 198.5,350.5C 182.083,354.45 165.416,357.783 148.5,360.5C 142.911,359.675 137.577,358.342 132.5,356.5C 136.195,357.126 137.029,356.126 135,353.5C 134.5,326.169 134.333,298.835 134.5,271.5C 131.941,271.802 129.607,271.468 127.5,270.5C 131.723,270.661 135.723,269.994 139.5,268.5C 139.333,290.836 139.5,313.169 140,335.5C 143.146,340.485 147.646,343.152 153.5,343.5C 178.465,338.273 203.465,333.107 228.5,328C 229.056,327.617 229.389,327.117 229.5,326.5C 237.394,326.976 243.894,323.976 249,317.5C 249.608,315.846 250.108,314.179 250.5,312.5C 251.496,297.009 251.83,281.342 251.5,265.5C 251.5,254.833 251.5,244.167 251.5,233.5C 252.332,254.329 252.832,275.329 253,296.5C 253.667,255.167 254.333,255.167 255,296.5C 255.417,272.908 255.584,249.408 255.5,226C 254.552,225.517 253.552,225.351 252.5,225.5 Z"/></g>
<g><path style="opacity:1" fill="#50414e" d="M 180.5,296.5 C 180.5,301.5 180.5,306.5 180.5,311.5C 180.5,313.167 180.5,314.833 180.5,316.5C 175.985,317.982 171.319,318.648 166.5,318.5C 166.281,317.325 166.614,316.325 167.5,315.5C 169.768,316.544 172.101,316.711 174.5,316C 173.944,315.617 173.611,315.117 173.5,314.5C 175.435,315.15 177.435,315.483 179.5,315.5C 179.177,308.978 179.51,302.645 180.5,296.5 Z"/></g>
<g><path style="opacity:1" fill="#3d3b57" d="M 196.5,280.5 C 196.5,292.167 196.5,303.833 196.5,315.5C 199.187,315.664 201.854,315.497 204.5,315C 209.697,312.908 214.364,310.074 218.5,306.5C 219.675,306.281 220.675,306.614 221.5,307.5C 224.563,313.695 227.229,320.028 229.5,326.5C 229.389,327.117 229.056,327.617 228.5,328C 203.465,333.107 178.465,338.273 153.5,343.5C 153.5,330.5 153.5,317.5 153.5,304.5C 159.888,308.361 166.554,311.694 173.5,314.5C 173.611,315.117 173.944,315.617 174.5,316C 172.101,316.711 169.768,316.544 167.5,315.5C 166.614,316.325 166.281,317.325 166.5,318.5C 171.319,318.648 175.985,317.982 180.5,316.5C 180.5,314.833 180.5,313.167 180.5,311.5C 181.678,310.338 182.845,309.338 184,308.5C 184.667,309.167 185.333,309.833 186,310.5C 188.719,309.556 191.552,309.223 194.5,309.5C 195.243,301.701 195.909,292.034 196.5,280.5 Z"/></g>
<g><path style="opacity:1" fill="#ebedf5" d="M 250.5,312.5 C 250.108,314.179 249.608,315.846 249,317.5C 243.894,323.976 237.394,326.976 229.5,326.5C 227.229,320.028 224.563,313.695 221.5,307.5C 220.675,306.614 219.675,306.281 218.5,306.5C 221.837,305.163 224.17,302.83 225.5,299.5C 224.831,295.82 224.164,292.154 223.5,288.5C 224.167,284.5 224.833,284.5 225.5,288.5C 233.167,288.5 240.833,288.5 248.5,288.5C 250.016,296.378 250.682,304.378 250.5,312.5 Z"/></g>
<g><path style="opacity:1" fill="#ecbd82" d="M 150.5,283.5 C 150.313,288.845 149.98,294.178 149.5,299.5C 148.143,294.089 148.476,288.755 150.5,283.5 Z"/></g>
<g><path style="opacity:0.129" fill="#b6bcd7" d="M 228.5,344.5 C 218.702,346.915 208.702,348.915 198.5,350.5C 208.153,347.306 218.153,345.306 228.5,344.5 Z"/></g>
</svg>
