<svg xmlns="http://www.w3.org/2000/svg" version="1.1" xmlns:xlink="http://www.w3.org/1999/xlink" xmlns:svgjs="http://svgjs.com/svgjs" width="512" height="512" x="0" y="0" viewBox="0 0 512 512" style="enable-background:new 0 0 512 512" xml:space="preserve" class=""><g><path d="M144.33 246.588a60.33 60.33 0 0 0-8.052-.688c-6.058-.075-8.635 2.149-8.617 2.146-1.787 1.261-2.653 3.142-2.653 5.738 0 1.655.301 2.948.89 3.856.386.604.548.832 1.712 1.761l.017.01c-.019-.006 2.653 2.096 8.692 1.732 4.252-.256 8.015-1.066 8.015-1.066h-.004v-13.489zM321.894 228.942c-3.913 0-6.683 1.335-8.504 4.12-1.833 2.803-2.766 6.792-2.766 11.871 0 5.08.928 9.106 2.766 11.928 1.825 2.796 4.609 4.158 8.504 4.158s6.69-1.373 8.541-4.177c1.854-2.839 2.802-6.843 2.803-11.918-.001-5.075-.938-9.062-2.803-11.862-1.844-2.771-4.628-4.12-8.541-4.12zM202.659 228.717c-3.894 0-6.664 1.523-8.485 4.308-1.213 1.824-1.988 4.175-2.407 6.995l21.165.004c-.201-2.729-.736-5.164-1.957-6.999-1.844-2.777-4.422-4.308-8.316-4.308z" style="" fill="#00a1e2" data-original="#00a1e2" class=""></path><path d="M401.563 125.308a109.12 109.12 0 0 0-44.589 9.501c-15.804-28.032-45.153-46.846-79.018-46.846-25.399 0-48.389 10.648-64.908 27.844l.019.098a99.087 99.087 0 0 0-79.018-39.133c-54.936 0-99.525 44.401-99.525 99.338a98.968 98.968 0 0 0 8.184 39.509C17.196 230.669 0 258.514 0 290.497c0 47.6 38.192 86.355 85.415 86.355a84.844 84.844 0 0 0 17.572-1.828c12.981 35.182 46.658 60.204 86.355 60.204 38.004 0 70.646-23.142 84.662-56.065a80.348 80.348 0 0 0 35.37 8.128c30.102 0 56.536-16.744 70.364-41.391a111.489 111.489 0 0 0 21.824 2.163C462.52 348.063 512 298.207 512 236.686s-49.48-111.378-110.437-111.378zm-291.51 129.171c0 8.992-6.528 14.58-17.026 14.58-5.155 0-10.084-.809-15.314-3.574-.978-.566-1.955-1.07-2.916-1.767-.104-.148-.54-.324-.218-1.163l-.008-.015 2.07-5.757c.327-.986 1.08-.657 1.381-.475.57.348.992.658 1.731 1.09 6.115 3.864 11.757 3.895 13.527 3.895 4.553 0 7.394-2.428 7.394-5.683v-.177c0-3.537-4.365-4.884-9.407-6.434l-1.114-.347c-6.923-1.976-14.336-4.835-14.336-13.603v-.179c0-8.315 6.717-14.129 16.33-14.129l1.048-.004c5.644 0 11.1 1.637 15.051 4.045.359.215.709.63.51 1.182-.188.526-1.943 5.225-2.145 5.757-.371.984-1.39.325-1.39.325-3.443-1.901-8.824-3.405-13.339-3.405-4.064 0-6.698 2.164-6.698 5.099v.175c0 3.425 4.496 4.896 9.708 6.585l.901.292c6.886 2.164 14.261 5.192 14.261 13.508v.179zm43.067 11.57s-1.099.299-2.088.526a178.608 178.608 0 0 1-7.469 1.452 54.322 54.322 0 0 1-9.012.751c-2.897 0-5.531-.269-7.864-.802-2.352-.526-4.389-1.414-6.039-2.614a12.304 12.304 0 0 1-3.876-4.647c-.903-1.862-1.36-4.139-1.36-6.773 0-2.596.536-4.891 1.588-6.848a14.364 14.364 0 0 1 4.308-4.892c1.787-1.287 3.876-2.254 6.19-2.879 2.295-.62 4.76-.937 7.3-.937 1.863 0 3.424.043 4.628.132l.028.069s2.352.213 4.892.581v-1.255c0-3.95-.826-5.83-2.446-7.074-1.656-1.27-4.139-1.919-7.337-1.919 0 0-7.224-.094-12.925 3.011-.263.156-.487.244-.487.244s-.713.251-.975-.481l-2.107-5.644c-.32-.818.267-1.18.267-1.18 2.671-2.093 9.143-3.35 9.143-3.35 2.145-.431 5.738-.731 7.958-.731 5.926 0 10.498 1.373 13.621 4.102 3.134 2.728 4.722 7.149 4.722 13.095l.017 27.092c.001 0 .057.784-.677.971zm19.905.955c0 .497-.354.901-.85.901h-7.87c-.499 0-.852-.404-.852-.901v-63.342c0-.495.354-.896.852-.896h7.87c.497 0 .85.4.85.896v63.342zm49.187-20.409c-.081.765-.864.771-.864.771l-29.726-.022c.169 4.516 1.26 7.695 3.443 9.877 2.145 2.132 5.569 3.492 10.16 3.5 7.055.019 10.065-1.407 12.191-2.201 0 0 .82-.294 1.12.518l1.938 5.437c.389.917.077 1.234-.25 1.419-1.844 1.034-6.359 2.944-14.938 2.973-4.177.013-7.789-.587-10.78-1.744-3.01-1.167-5.512-2.822-7.469-4.948-1.938-2.107-3.39-4.646-4.29-7.544-.897-2.879-1.347-6.059-1.347-9.482 0-3.349.435-6.547 1.298-9.464.865-2.953 2.226-5.531 4.026-7.713 1.806-2.183 4.102-3.929 6.83-5.212 2.728-1.273 6.096-1.9 9.802-1.9a21.628 21.628 0 0 1 8.504 1.726c1.863.79 3.725 2.239 5.644 4.289 1.204 1.299 3.055 4.14 3.8 6.942l.021.006c1.905 6.676.919 12.456.887 12.772zm24.52 22.449c-5.155 0-10.084-.81-15.315-3.575-.978-.566-1.958-1.07-2.916-1.767-.107-.148-.544-.323-.222-1.162l-.023-.016 2.07-5.757c.303-.94 1.189-.595 1.379-.474.561.361.993.658 1.733 1.089 6.096 3.864 11.753 3.895 13.527 3.895 4.553 0 7.394-2.427 7.394-5.682v-.177c0-3.537-4.346-4.884-9.407-6.435l-1.112-.346c-6.923-1.976-14.336-4.836-14.336-13.603v-.179c0-8.316 6.716-14.13 16.33-14.13l1.05-.003c5.644 0 11.1 1.637 15.051 4.045.357.214.709.63.508 1.182-.169.526-1.927 5.225-2.126 5.757-.373.983-1.392.325-1.392.325-3.462-1.902-8.824-3.405-13.339-3.405-4.064 0-6.698 2.163-6.698 5.099v.175c0 3.424 4.496 4.896 9.708 6.585l.901.292c6.905 2.163 14.261 5.192 14.261 13.508v.177c.001 8.994-6.528 14.582-17.026 14.582zm51.947-40.126c-.171.894-.995.863-.995.863h-9.776l-6.686 37.833c-.702 3.911-1.578 7.268-2.608 9.971-1.041 2.729-2.128 4.729-3.857 6.638-1.599 1.771-3.407 3.078-5.484 3.829-2.064.745-4.553 1.129-7.285 1.129-1.304 0-2.696-.024-4.348-.414a22.169 22.169 0 0 1-2.711-.792c-.372-.134-.668-.597-.457-1.184.207-.595 1.955-5.401 2.201-6.032.303-.771 1.072-.478 1.072-.478.529.222.896.38 1.601.52.706.141 1.661.262 2.38.262 1.291 0 2.468-.158 3.492-.503 1.24-.416 1.958-1.129 2.717-2.098.783-1.001 1.419-2.38 2.07-4.22.66-1.864 1.257-4.325 1.778-7.316l6.655-37.145h-6.559c-.79.004-1.044-.365-.967-.956l1.106-6.171c.173-.897.995-.863.995-.863h6.737l.363-2.012c1.007-5.958 3.014-10.486 5.964-13.459 2.971-2.995 7.202-4.512 12.57-4.512 1.351-.015 2.701.09 4.034.312.991.173 1.97.405 2.933.696.211.083.779.364.546 1.034l-2.269 6.231c-.19.469-.32.755-1.287.459a17.983 17.983 0 0 0-1.518-.37 12.338 12.338 0 0 0-2.438-.247 10.322 10.322 0 0 0-3.185.459 6.16 6.16 0 0 0-2.485 1.547c-.741.743-1.616 1.825-2.081 3.166-1.089 3.143-1.52 6.479-1.567 6.694h9.488c.794-.004 1.046.365.969.956l-1.108 6.173zm43.308 25.441c-.865 2.916-2.203 5.475-3.989 7.62-1.787 2.145-4.064 3.86-6.735 5.079-2.672 1.22-5.832 1.84-9.388 1.84s-6.717-.62-9.407-1.84c-2.672-1.223-4.946-2.935-6.735-5.079-1.787-2.146-3.129-4.704-3.989-7.62-.856-2.897-1.291-6.058-1.291-9.426 0-3.367.435-6.528 1.291-9.426.865-2.916 2.205-5.475 3.989-7.619 1.787-2.145 4.064-3.868 6.735-5.117 2.69-1.248 5.832-1.882 9.407-1.882s6.735.63 9.407 1.882c2.69 1.241 4.946 2.973 6.735 5.117 1.787 2.145 3.125 4.703 3.989 7.619h-.019c.854 2.897 1.289 6.077 1.289 9.426 0 3.369-.435 6.529-1.289 9.426zm36.375-31.136.019-.122c-.282.809-1.729 4.871-2.239 6.228-.194.516-.512.865-1.084.801 0 0-1.703-.398-3.255-.398-1.349 0-2.692.188-3.989.561a9.026 9.026 0 0 0-3.669 2.201c-1.078 1.054-1.953 2.523-2.596 4.365-.653 1.862-.98 4.816-.98 7.789v22.2a.9.9 0 0 1-.899.9h-7.789a.902.902 0 0 1-.901-.9v-44.213c0-.497.357-.897.85-.897h7.601c.5 0 .852.4.852.897l.004 3.612c1.129-1.543 3.164-2.877 5.004-3.706 1.863-.836 3.932-1.464 7.657-1.23 1.938.12 4.461.652 4.967.845l.025.01a.803.803 0 0 1 .422 1.057zm37.495 43.354c-3.311 1.312-7.921 2.22-12.417 2.22-7.601 0-13.433-2.182-17.309-6.509-3.876-4.309-5.832-10.197-5.832-17.46 0-3.367.48-6.547 1.43-9.444.959-2.916 2.389-5.475 4.271-7.619 1.881-2.146 4.252-3.87 7.055-5.118 2.803-1.249 6.077-1.879 9.764-1.879 2.483 0 4.685.15 6.585.44 2.032.307 4.715 1.034 5.851 1.479.209.081.781.363.548 1.031-.826 2.333-1.394 3.856-2.164 5.982-.329.905-1.016.605-1.016.605-2.897-.906-5.663-1.326-9.275-1.326-4.327 0-7.601 1.468-9.727 4.29-2.154 2.859-3.354 6.585-3.368 11.552-.019 5.456 1.336 9.481 3.763 11.984 2.408 2.5 5.795 3.763 10.028 3.763 1.712 0 3.337-.115 4.797-.345 1.449-.226 2.809-.677 4.083-1.164 0 0 .832-.322 1.119.53h.007l2.164 5.945a.798.798 0 0 1-.357 1.043zm43.991-19.982c-.081.765-.864.771-.864.771l-29.726-.022c.169 4.516 1.26 7.695 3.443 9.877 2.145 2.132 5.55 3.492 10.159 3.5 7.055.019 10.065-1.407 12.191-2.201 0 0 .82-.294 1.118.518l1.938 5.437c.388.917.077 1.234-.252 1.419-1.844 1.034-6.359 2.944-14.938 2.973-4.158.013-7.789-.587-10.78-1.744-3.01-1.167-5.513-2.822-7.469-4.948-1.957-2.107-3.407-4.646-4.308-7.544-.892-2.879-1.345-6.059-1.345-9.482 0-3.349.437-6.547 1.302-9.464.865-2.953 2.222-5.531 4.026-7.713 1.806-2.183 4.101-3.929 6.829-5.212 2.728-1.273 6.096-1.9 9.802-1.9a21.628 21.628 0 0 1 8.504 1.726c1.863.79 3.725 2.239 5.644 4.289 1.204 1.299 3.053 4.14 3.8 6.942l.04.006c1.904 6.676.918 12.456.886 12.772z" style="" fill="#00a1e2" data-original="#00a1e2" class=""></path><path d="M440.278 228.717c-3.894 0-6.666 1.523-8.485 4.308-1.215 1.824-1.988 4.175-2.407 6.995l21.165.004c-.199-2.729-.734-5.164-1.957-6.999-1.844-2.777-4.422-4.308-8.316-4.308z" style="" fill="#00a1e2" data-original="#00a1e2" class=""></path></g></svg>