<svg xmlns="http://www.w3.org/2000/svg" version="1.1" xmlns:xlink="http://www.w3.org/1999/xlink" xmlns:svgjs="http://svgjs.com/svgjs" width="512" height="512" x="0" y="0" viewBox="0 0 512 512" style="enable-background:new 0 0 512 512" xml:space="preserve" class=""><g><linearGradient id="a" x1="0" x2="512" y1="258" y2="258" gradientTransform="matrix(1 0 0 -1 0 514)" gradientUnits="userSpaceOnUse"><stop stop-opacity="1" stop-color="#42445a" offset="0"></stop><stop stop-opacity="1" stop-color="#42445a" offset="0"></stop><stop stop-opacity="1" stop-color="#42445a" offset="0"></stop><stop stop-opacity="1" stop-color="#42445a" offset="0.021"></stop><stop stop-opacity="1" stop-color="#000000" offset="0.10810810810810811"></stop><stop stop-opacity="1" stop-color="#080404" offset="0.6061776061776062"></stop><stop stop-opacity="1" stop-color="#080404" offset="0.9536679536679536"></stop><stop stop-opacity="1" stop-color="#080404" offset="0.9806949806949807"></stop><stop stop-opacity="1" stop-color="#42445a" offset="0.9845559845559846"></stop></linearGradient><path d="M507.519 116.384A20 20 0 0 0 492 109H129.736l-1.484-13.632-.053-.438C121.099 40.812 74.583 0 20 0 8.954 0 0 8.954 0 20s8.954 20 20 20c34.506 0 63.923 25.749 68.512 59.928l23.773 218.401C91.495 327.765 77 348.722 77 373c0 .167.002.334.006.5-.004.166-.006.333-.006.5 0 33.084 26.916 60 60 60h8.138A58.757 58.757 0 0 0 142 453c0 32.532 26.467 59 59 59s59-26.468 59-59a58.757 58.757 0 0 0-3.138-19h86.277a58.757 58.757 0 0 0-3.138 19c0 32.532 26.467 59 59 59s59-26.468 59-59-26.467-59-59-59H137c-11.028 0-20-8.972-20-20 0-.167-.002-.334-.006-.5.004-.166.006-.333.006-.5 0-11.028 8.972-20 20-20h255.331c35.503 0 68.084-21.966 83.006-55.962 4.439-10.114-.161-21.912-10.275-26.352-10.114-4.439-21.912.161-26.352 10.275C430.299 300.125 411.661 313 392.331 313h-240.39L134.09 149h333.308l-9.786 46.916c-2.255 10.813 4.682 21.407 15.495 23.662 1.377.288 2.75.426 4.104.426 9.272 0 17.59-6.484 19.558-15.92l14.809-71a19.998 19.998 0 0 0-4.059-16.7zM220 453c0 10.477-8.523 19-19 19s-19-8.523-19-19 8.523-19 19-19 19 8.524 19 19zm179 19c-10.477 0-19-8.523-19-19s8.523-19 19-19 19 8.523 19 19-8.523 19-19 19z" style="fill:url(#a);" fill=""></path></g></svg>