<svg xmlns="http://www.w3.org/2000/svg" version="1.1" xmlns:xlink="http://www.w3.org/1999/xlink" xmlns:svgjs="http://svgjs.com/svgjs" width="512" height="512" x="0" y="0" viewBox="0 0 512 512" style="enable-background:new 0 0 512 512" xml:space="preserve" class=""><g><path fill="#ffa54f" d="M16 136h272v248H16z" data-original="#ffa54f" class=""></path><path fill="#ffc682" d="M128 136h48v40h-48zM128 344h48v40h-48zM40 200h96v80H40z" data-original="#ffc682" class=""></path><path fill="#ffa54f" d="M96 220H56a4 4 0 0 1 0-8h40a4 4 0 0 1 0 8zM120 236H56a4 4 0 0 1 0-8h64a4 4 0 0 1 0 8zM112 252H56a4 4 0 0 1 0-8h56a4 4 0 0 1 0 8zM120 268H56a4 4 0 0 1 0-8h64a4 4 0 0 1 0 8z" data-original="#ffa54f" class=""></path><path fill="#00b377" d="m436.132 109.39-140 33.712 59.933 248.886 140-33.712z" data-original="#00b377"></path><path fill="#0f995d" d="M469.272 315.355 431.814 159.8a32 32 0 0 1-38.6-23.619l-46.668 11.239a32 32 0 0 1-23.619 38.6l37.458 155.554a32 32 0 0 1 38.6 23.619l46.666-11.237a32 32 0 0 1 23.621-38.601z" data-original="#0f995d"></path><path fill="#00d498" d="m377.356 99.057-130.311 61.28L355.987 392 486.3 330.72z" data-original="#00d498"></path><path fill="#00b377" d="M451.392 294.092 383.3 149.3a32 32 0 0 1-42.575-15.34l-43.437 20.426a32 32 0 0 1-15.34 42.576l68.088 144.789a32 32 0 0 1 42.579 15.349l43.437-20.427a32 32 0 0 1 15.34-42.581z" data-original="#00b377"></path><path fill="#56ebb4" d="M327.583 99.644 209.459 182l146.413 210L474 309.643z" data-original="#56ebb4"></path><path fill="#00d498" d="m434.215 280.588-91.508-131.249a32 32 0 0 1-44.552-7.948l-39.374 27.452a32 32 0 0 1-7.949 44.552l91.508 131.248a32.006 32.006 0 0 1 44.552 7.949l39.375-27.453a32 32 0 0 1 7.948-44.551z" data-original="#00d498"></path><path fill="#56ebb4" d="M365.4 279.8a40.007 40.007 0 0 1-62.84-34.73 40.816 40.816 0 0 1 .66-5.51 40 40 0 1 1 62.18 40.24z" data-original="#56ebb4"></path><g fill="#00b377"><path d="M317.062 200.479a4 4 0 0 1-3.285-1.712L290.9 165.954a4 4 0 0 1 6.562-4.576l22.877 32.812a4 4 0 0 1-3.277 6.289zM303.937 209.63a4 4 0 0 1-3.285-1.712l-22.877-32.813a4 4 0 0 1 6.562-4.576l22.878 32.813a4 4 0 0 1-3.278 6.288zM403.994 325.165a4 4 0 0 1-3.285-1.712l-22.876-32.812a4 4 0 1 1 6.562-4.577l22.877 32.813a4 4 0 0 1-3.278 6.288zM390.869 334.316a3.994 3.994 0 0 1-3.285-1.712l-22.876-32.812a4 4 0 1 1 6.562-4.576l22.877 32.812a4 4 0 0 1-3.278 6.288z" fill="#00b377" data-original="#00b377"></path><rect width="16" height="24" x="344.367" y="228.128" rx="8" transform="rotate(55.11 352.503 240.179)" fill="#00b377" data-original="#00b377"></rect><path d="m344.51 274.86-14.69 10.06a40.015 40.015 0 0 1-27.26-39.85l14.5-9.58a14.309 14.309 0 0 1 19.92 3.55l11.09 15.9a14.32 14.32 0 0 1-3.56 19.92z" fill="#00b377" data-original="#00b377"></path></g><path fill="#8f8f87" d="m331.484 80.654-20.958-34.07-6.053 15.341A200.346 200.346 0 0 0 131 99.869l10 12.485A182 182 0 0 1 256 72a184.442 184.442 0 0 1 42.548 4.941l-5.639 14.293zM364.34 424.142l-8.679-13.442a184.21 184.21 0 0 1-196.047 2.083L168 398.97l-39.809 3.908L143.089 440l8.221-13.54a200.212 200.212 0 0 0 213.03-2.318z" data-original="#8f8f87"></path></g></svg>