<svg xmlns="http://www.w3.org/2000/svg" version="1.1" xmlns:xlink="http://www.w3.org/1999/xlink" xmlns:svgjs="http://svgjs.com/svgjs" width="512" height="512" x="0" y="0" viewBox="0 0 512 512" style="enable-background:new 0 0 512 512" xml:space="preserve" class=""><g><path fill="#e7f2da" d="M272 64c0 23.04-12.44 49.19-31.35 73.22C207.03 179.95 152.96 216 112 216V64z" data-original="#e7f2da" class=""></path><path fill="#b1cdb4" d="M178.116 148a4 4 0 0 1-2.527-7.102 196.277 196.277 0 0 0 10.317-8.998 217.144 217.144 0 0 0 6.836-6.694 4 4 0 0 1 5.725 5.588 225.718 225.718 0 0 1-7.088 6.942 205.01 205.01 0 0 1-10.74 9.366 3.983 3.983 0 0 1-2.523.898zM208 147.908a4 4 0 0 1-2.83-6.826 218.913 218.913 0 0 0 14.188-15.621 4 4 0 1 1 6.182 5.078 226.759 226.759 0 0 1-14.71 16.195 3.988 3.988 0 0 1-2.83 1.174zM152.003 188.874a4 4 0 0 1-1.76-7.594 200.128 200.128 0 0 0 39.197-25.821 4 4 0 0 1 5.12 6.146 208.145 208.145 0 0 1-40.802 26.862 3.991 3.991 0 0 1-1.755.407z" data-original="#b1cdb4" class=""></path><path fill="#e7f2da" d="M408 64v152c-26.22 0-45.05-14.77-58.14-36.6-12.32-20.52-19.57-47.29-23.12-73.91A315.1 315.1 0 0 1 324.1 72q-.105-4.05-.1-8z" data-original="#e7f2da" class=""></path><path fill="#b1cdb4" d="M378.384 187.857a3.988 3.988 0 0 1-2.766-1.11 71.506 71.506 0 0 1-10.879-13.603 4 4 0 1 1 6.772-4.26 63.588 63.588 0 0 0 9.64 12.085 4 4 0 0 1-2.767 6.888zM212 64h60c0 23.04-12.44 49.19-31.35 73.22-8.5-16.82-12.25-34.92-15.13-48.82-1.23-5.96-2.73-13.17-4.05-16.4H212z" data-original="#b1cdb4" class=""></path><path fill="#b1cdb4" d="M408 64c0 12.43 0 41.54-10.57 67.97-9.63 24.06-25.82 40.1-47.57 47.43-12.32-20.52-19.57-47.29-23.12-73.91A315.1 315.1 0 0 1 324.1 72q-.105-4.05-.1-8z" data-original="#b1cdb4" class=""></path><path fill="#795033" d="M40 64h432v40H40z" data-original="#795033" class=""></path><path fill="#b5764c" d="M440 40v448h-40V40zM72 488V40h40v448z" data-original="#b5764c" class=""></path><path fill="#e7f2da" d="M72 216c-16 32-24 112-8 176s-16 64-16 80 16 16 40 16h48c16 0 24-32-8-72-48-64-40-152-24-192z" data-original="#e7f2da" class=""></path><path fill="#b1cdb4" d="M119.997 468.001a4.001 4.001 0 0 1-3.575-5.79c5.645-11.291 2.303-17.386-3.767-28.45-1.368-2.492-2.782-5.07-4.233-7.972a4 4 0 1 1 7.156-3.578c1.383 2.766 2.76 5.276 4.09 7.703 6.387 11.64 11.43 20.834 3.91 35.875a4.002 4.002 0 0 1-3.58 2.212zM80 460a4 4 0 0 1-2.828-6.828c7.493-7.493 11.168-17.043 11.235-29.194a4 4 0 0 1 4-3.978h.023a4 4 0 0 1 3.977 4.022c-.08 14.364-4.521 25.748-13.579 34.806A3.985 3.985 0 0 1 80 460zM90.892 412.001a4 4 0 0 1-3.934-3.305c-1.889-10.674-5.401-22.067-8.8-33.085q-1-3.244-1.985-6.471a4 4 0 1 1 7.654-2.325q.976 3.208 1.976 6.439c3.47 11.25 7.058 22.886 9.032 34.05A4.007 4.007 0 0 1 90.892 412zM75.496 356.001a4.002 4.002 0 0 1-3.879-3.036C69.15 343.03 68 335.099 68 328a4 4 0 0 1 8 0c0 6.43 1.074 13.751 3.38 23.035a4.004 4.004 0 0 1-3.884 4.966z" data-original="#b1cdb4" class=""></path><path fill="#e7f2da" d="M424 352c0 80-64 56-64 112 0 16 8 24 32 24h40c32 0 32-40 24-64s-8-48-8-88z" data-original="#e7f2da" class=""></path><path fill="#b1cdb4" d="M440 460a4 4 0 0 1-4-4c0-7.056-1.658-10.372-3.578-14.21A34.952 34.952 0 0 1 428 424a4 4 0 0 1 8 0c0 7.056 1.658 10.372 3.578 14.21A34.952 34.952 0 0 1 444 456a4 4 0 0 1-4 4zM408 467.997h-.006A3.997 3.997 0 0 1 404 464c0-.72.104-17.76 9.172-26.828a4 4 0 0 1 5.656 5.656c-6.712 6.712-6.828 21.033-6.828 21.177a4.002 4.002 0 0 1-4 3.992zM384 468a4 4 0 0 1-4-4c0-15.937 9.518-26.26 19.802-35.042a4 4 0 1 1 5.195 6.084C394.795 443.752 388 452.012 388 464a4 4 0 0 1-4 4zM412.129 428a4 4 0 0 1-2.556-7.08C418.71 413.345 424 407.492 424 400a4 4 0 0 1 8 0c0 11.733-8.556 19.81-17.32 27.08a3.986 3.986 0 0 1-2.551.92z" data-original="#b1cdb4" class=""></path><path fill="#03999c" d="M460 365.33a34.594 34.594 0 0 1-15.56-2.05A22.95 22.95 0 0 1 432 352l16-16a20.698 20.698 0 0 1 9.28 9.13c4.79 9.17 2.72 20.2 2.72 20.2zM393.27 224.22l-15.48 24.34a23.445 23.445 0 0 1-12.31-10.62c-6.41-11.29-3.87-25.96-3.87-25.96s12.96-1.23 22.68 3.48a17.849 17.849 0 0 1 8.98 8.76zM488 288s-5.81 11.63-23.57 12.01a49.218 49.218 0 0 1-10.35-.92l-23.06-27.35a35.173 35.173 0 0 1 17.57-19.72A38.244 38.244 0 0 1 464 248s8 16 0 24c16 0 24 16 24 16zM387.31 329.78c-4.1 8.65-11.71 12.81-19.37 14.69-11.56 2.86-23.25.52-23.25.52s-4.98-13.93 11.83-29.12a77.72 77.72 0 0 1 15.96-10.83z" data-original="#03999c" class=""></path><path fill="#0c6c71" d="m372.48 305.04 14.83 24.74c-4.1 8.65-11.71 12.81-19.37 14.69a24.02 24.02 0 0 1-11.48-27.58c.07-.25.14-.51.22-.76-.05-.09-.11-.17-.16-.26a77.72 77.72 0 0 1 15.96-10.83zM393.27 224.22l-15.48 24.34a23.445 23.445 0 0 1-12.31-10.62l.64-.09a23.575 23.575 0 0 1 3.66-5.33 23.368 23.368 0 0 1 .87-3.01 23.857 23.857 0 0 1 8.2-11.01 23.609 23.609 0 0 1 5.44-3.04 17.849 17.849 0 0 1 8.98 8.76zM457.28 345.13a24.094 24.094 0 0 1-7.49 5.87 24.004 24.004 0 0 1-5.21 12.12 1.998 1.998 0 0 1-.14.16A22.95 22.95 0 0 1 432 352l16-16a20.698 20.698 0 0 1 9.28 9.13zM464.43 300.01a49.218 49.218 0 0 1-10.35-.92l-23.06-27.35a35.173 35.173 0 0 1 17.57-19.72 24.135 24.135 0 0 1-.22 5.3 25.994 25.994 0 0 1-.82 3.49 24.329 24.329 0 0 1 7.4 18.77 24.108 24.108 0 0 1 9.48 20.43z" data-original="#0c6c71" class=""></path><path fill="#fd7584" d="M451.44 339.66a15.957 15.957 0 0 1-9.67 5.64 16 16 0 0 1-25.9 15.03 16.35 16.35 0 0 1-3.14-3.43 16 16 0 0 1-23.29-21.84c.3-.37.62-.71.95-1.05a15.995 15.995 0 0 1 17.98-25.93 16.001 16.001 0 1 1 31.5 5.48 15.992 15.992 0 0 1 11.57 26.1z" data-original="#fd7584" class=""></path><path fill="#db6373" d="M421.111 350.756a15.893 15.893 0 0 1-11.313-4.687 4 4 0 0 1 5.656-5.656 8.01 8.01 0 0 0 12.879-2.207 4 4 0 0 1 7.219 3.45 16.018 16.018 0 0 1-14.44 9.1z" data-original="#db6373" class=""></path><path fill="#db6373" d="M451.8 319.86a24.072 24.072 0 0 1-10.71 2.85 24.131 24.131 0 0 1-21.27 12.87 21.885 21.885 0 0 1-2.44-.13 23.962 23.962 0 0 1-20.2 4.27 23.96 23.96 0 0 1-11.3 6.88 15.959 15.959 0 0 1 3.56-11.54c.3-.37.62-.71.95-1.05a15.995 15.995 0 0 1 17.98-25.93 16.001 16.001 0 1 1 31.5 5.48 15.937 15.937 0 0 1 11.93 6.3z" data-original="#db6373" class=""></path><path fill="#fd7584" d="M418.21 320.76a15.987 15.987 0 0 1-24.02 9.1 15.993 15.993 0 0 1-30.04-10.78 15.596 15.596 0 0 1 1.85-4.13 16.137 16.137 0 0 1-4.5-7.51 15.993 15.993 0 1 1 31.43-3.61 15.988 15.988 0 0 1 25.28 16.93z" data-original="#fd7584" class=""></path><path fill="#db6373" d="M418.21 320.76a15.985 15.985 0 0 1-11.25 11.08 23.835 23.835 0 0 1-7.32-7.27 24.015 24.015 0 0 1-20.26-11.97 23.234 23.234 0 0 1-1.67-3.49 24.002 24.002 0 0 1-16.07-1.6c-.05-.02-.09-.05-.14-.07a15.993 15.993 0 1 1 31.43-3.61 15.988 15.988 0 0 1 25.28 16.93z" data-original="#db6373" class=""></path><path fill="#fd7584" d="M445.94 237.44a15.943 15.943 0 0 1-7.26 8.51 16.056 16.056 0 0 1 1.78 10.15 16.597 16.597 0 0 1-.78 3.02 15.989 15.989 0 0 1-24.6 7.34 16.004 16.004 0 0 1-29.2-12.93 10.756 10.756 0 0 1 .55-1.3 16 16 0 0 1 8.44-30.41 16.004 16.004 0 1 1 31.55-5.22 16.004 16.004 0 0 1 19.52 20.84z" data-original="#fd7584" class=""></path><path fill="#db6373" d="M440.46 256.1a16.597 16.597 0 0 1-.78 3.02 15.989 15.989 0 0 1-24.6 7.34 16.004 16.004 0 0 1-29.2-12.93 10.756 10.756 0 0 1 .55-1.3 15.987 15.987 0 0 1-2.81-27.31 23.662 23.662 0 0 1 3.95-.33 23.937 23.937 0 0 1 18.6 8.81 24.378 24.378 0 0 1 3.67 6.17 24.063 24.063 0 0 1 19.33 14.66c.58-.05 1.17-.08 1.76-.08a23.755 23.755 0 0 1 9.53 1.95zM426.212 237.016a4 4 0 0 1-3.994-3.859 8.004 8.004 0 0 0-12.435-6.374 4 4 0 1 1-4.43-6.662 16.003 16.003 0 0 1 24.859 12.753 3.999 3.999 0 0 1-3.856 4.139 3.538 3.538 0 0 1-.144.003z" data-original="#db6373" class=""></path><path fill="#fd7584" d="M454.93 305.56a15.993 15.993 0 0 1-19.28 8.41 16.205 16.205 0 0 1-1.36 4.45 16 16 0 0 1-29.85-2.45 16 16 0 0 1-11.9-29.49 15.993 15.993 0 1 1 26.09-18.45 15.993 15.993 0 0 1 27.38 15.68 13.185 13.185 0 0 1 1.3.54 16.002 16.002 0 0 1 7.62 21.31z" data-original="#fd7584" class=""></path><path fill="#db6373" d="M415.702 316.007a4 4 0 0 1 0-8 12.013 12.013 0 0 0 12-12 4 4 0 0 1 8 0 20.022 20.022 0 0 1-20 20zM430.87 265.8a23.822 23.822 0 0 1-8.7 16.19 24.575 24.575 0 0 1-3.65 2.46 23.975 23.975 0 0 1-32.21 24.16 16.001 16.001 0 0 1 6.23-22.13 15.993 15.993 0 1 1 26.09-18.45 16.008 16.008 0 0 1 12.33-5.88 24.806 24.806 0 0 1-.09 3.65z" data-original="#db6373" class=""></path><path fill="#fd7584" d="M382.059 298.197a13.429 13.429 0 0 0 1.046-.947 15.994 15.994 0 0 0 25.93-17.982 16.002 16.002 0 1 0-5.48-31.501 15.994 15.994 0 0 0-31.735-1.895 15.999 15.999 0 0 0-11.597 29.034 16 16 0 0 0 21.836 23.291z" data-original="#fd7584" class=""></path><path fill="#db6373" d="M393.677 284.178a11.992 11.992 0 0 1-12-12.114 4 4 0 0 1 3.999-3.96h.04a4 4 0 0 1 3.96 4.04 4 4 0 1 0 6.829-2.789 4 4 0 0 1 5.656-5.658 11.995 11.995 0 0 1-8.484 20.48zM373.878 279.012a3.985 3.985 0 0 1-2.828-1.172 16.01 16.01 0 0 1 4.414-25.754 4 4 0 0 1 3.45 7.219 8.01 8.01 0 0 0-2.208 12.879 4 4 0 0 1-2.828 6.828z" data-original="#db6373" class=""></path><path fill="#e7f2da" d="M400 64c0 24 0 112-80 112-96 0-80-112-96-112h-4c0-15.24 16.26-18.87 24-10.88a13.675 13.675 0 0 1 7.24-3.86A14.116 14.116 0 0 1 264 53.12a13.606 13.606 0 0 1 7.24-3.86C279.03 47.77 288 52.68 288 64c0 40.34 39.75 61.82 65.25 43.42V96.7c.01-13.08 0-32.03 0-32.7H332c0-8.54 5.11-13.44 10.97-14.68a14.092 14.092 0 0 1 13.04 3.81l.01-.01a13.562 13.562 0 0 1 7.23-3.85A14.073 14.073 0 0 1 376 53.12a13.606 13.606 0 0 1 7.24-3.86C391.03 47.77 400 52.68 400 64z" data-original="#e7f2da" class=""></path><g fill="#b1cdb4"><path d="M388 64v16a4 4 0 0 1-8 0V64a15.095 15.095 0 0 0-4-10.88 13.606 13.606 0 0 1 7.24-3.86A23.236 23.236 0 0 1 388 64zM368 64c0 1.96 0 4.34-.04 7.06a4.006 4.006 0 0 1-4 3.94h-.06a4 4 0 0 1-3.94-4.06c.01-.8.02-1.57.02-2.31.01-.43.01-.85.01-1.26.01-1.23.01-2.36.01-3.37 0-4.83-1.59-8.42-3.98-10.88a13.562 13.562 0 0 1 7.23-3.85A23.224 23.224 0 0 1 368 64zM325.264 136.13a65.597 65.597 0 0 1-39.722-13.764 4 4 0 0 1 4.916-6.31c15.262 11.89 36.158 15.43 51.999 8.806a4 4 0 0 1 3.086 7.381 52.605 52.605 0 0 1-20.28 3.888zM276 64v16a4 4 0 0 1-8 0V64a15.095 15.095 0 0 0-4-10.88 13.606 13.606 0 0 1 7.24-3.86A23.236 23.236 0 0 1 276 64zM322.653 158.751a78.768 78.768 0 0 1-28.079-5.272 4 4 0 0 1 2.852-7.475c24.325 9.282 50.312 4.728 67.821-11.882a4 4 0 1 1 5.506 5.804 69.344 69.344 0 0 1-48.1 18.825zM279.996 145.376a3.98 3.98 0 0 1-2.253-.697 77.224 77.224 0 0 1-21.854-22.54 4 4 0 0 1 6.76-4.279 69.269 69.269 0 0 0 19.608 20.213 4 4 0 0 1-2.26 7.303zM256 64v16a4 4 0 0 1-8 0V64a15.095 15.095 0 0 0-4-10.88 13.675 13.675 0 0 1 7.24-3.86A23.234 23.234 0 0 1 256 64zM353.25 64H332c0-8.54 5.11-13.44 10.97-14.68 5.49 1.24 10.28 6.14 10.28 14.68zM368 87.88c-3.59 8.51-8.65 15.1-14.75 19.54V96.7a41.848 41.848 0 0 0 7.38-11.93 4 4 0 1 1 7.37 3.11z" fill="#b1cdb4" data-original="#b1cdb4" class=""></path></g><path fill="#03999c" d="M164.49 142.58a33.848 33.848 0 0 1-17.59-2.97 22.612 22.612 0 0 1-10.41-10.36l-6.15-18.92 22.15 2.92c7.13 3.56 10.28 9.76 11.59 15.55a37.902 37.902 0 0 1 .41 13.78z" data-original="#03999c" class=""></path><path fill="#0c6c71" d="M164.08 128.8a23.758 23.758 0 0 1-11.74-4.34 23.497 23.497 0 0 1-3.73.66c-.21.02-.42.04-.64.05a23.404 23.404 0 0 1 .64 5.1 23.76 23.76 0 0 1-1.71 9.34 22.612 22.612 0 0 1-10.41-10.36l-6.15-18.92 22.15 2.92c7.13 3.56 10.28 9.76 11.59 15.55z" data-original="#0c6c71" class=""></path><path fill="#03999c" d="M231.41 54.45v.01a20.711 20.711 0 0 1-9.49 9.54l-16-16a22.81 22.81 0 0 1 11.9-11.05 34.366 34.366 0 0 1 16.1-2.28s2.01 10.69-2.51 19.78z" data-original="#03999c" class=""></path><path fill="#0c6c71" d="M231.41 54.45v.01a20.711 20.711 0 0 1-9.49 9.54l-16-16a22.81 22.81 0 0 1 11.9-11.05 23.89 23.89 0 0 1 5.73 12.52 24.21 24.21 0 0 1 7.86 4.98z" data-original="#0c6c71" class=""></path><path fill="#fd7584" d="M216.53 87.78a13.43 13.43 0 0 1-1.41.07 15.988 15.988 0 0 1-13.76 16.06c-.21.03-.42.06-.63.08a16.008 16.008 0 0 1-16.66-10.52 16.002 16.002 0 1 1-18.4-26.15 15.984 15.984 0 0 1 10.27-26.63h.05a15.927 15.927 0 0 1 10.78 2.85 15.999 15.999 0 0 1 28.73 12.33 16 16 0 0 1 1.03 31.91z" data-original="#fd7584" class=""></path><path fill="#db6373" d="M205.918 69.598a4 4 0 0 1-4-4 8.01 8.01 0 0 0-10.668-7.546 4 4 0 0 1-2.666-7.543 16.01 16.01 0 0 1 21.334 15.089 4 4 0 0 1-4 4z" data-original="#db6373" class=""></path><path fill="#db6373" d="M201.36 103.91c-.21.03-.42.06-.63.08a16.008 16.008 0 0 1-16.66-10.52 16.002 16.002 0 1 1-18.4-26.15 15.984 15.984 0 0 1 10.27-26.63h.05a85.925 85.925 0 0 1-.67 8.95 23.792 23.792 0 0 1 20.55 21.47c.06.61.09 1.21.1 1.81a23.96 23.96 0 0 1 5.39 30.99z" data-original="#db6373" class=""></path><path fill="#fd7584" d="M182.33 107.44c-.09 0-.18.01-.28.02a15.99 15.99 0 0 1-28 7.77 15.53 15.53 0 0 1-6.19 1.92 15.995 15.995 0 0 1-10.07-29.44A15.993 15.993 0 0 1 159 64.03a15.926 15.926 0 0 1 11.47-6.56 15.653 15.653 0 0 1 3.56.06 15.977 15.977 0 0 1 13.88 14.34 16.217 16.217 0 0 1-.34 5.14 16 16 0 0 1-5.24 30.43z" data-original="#fd7584" class=""></path><path fill="#db6373" d="M167.412 102.161a4 4 0 0 1-.976-7.879 12.01 12.01 0 0 0 8.893-13.745 4 4 0 1 1 7.875-1.414 20.01 20.01 0 0 1-14.81 22.915 4.006 4.006 0 0 1-.982.123zM159.43 87.65a23.98 23.98 0 0 1-14.15 26.83 24.566 24.566 0 0 1-.44 2.68 16.001 16.001 0 0 1-7.05-29.45A15.993 15.993 0 0 1 159 64.03a15.926 15.926 0 0 1 11.47-6.56 15.653 15.653 0 0 1 3.56.06c-2.04 9.9-6.18 21.88-14.6 30.12z" data-original="#db6373" class=""></path><path fill="#03999c" d="M87.38 160.44a23.715 23.715 0 0 1-16.6 7.09c-12.2.38-23.4-7.09-23.4-7.09s4.16-12.48 12.48-19.44a17.855 17.855 0 0 1 11.52-4.56z" data-original="#03999c" class=""></path><path fill="#0c6c71" d="M87.38 160.44a23.715 23.715 0 0 1-16.6 7.09 23.93 23.93 0 0 1-2.38-6.87c-.08-.43-.15-.88-.21-1.33a23.616 23.616 0 0 1-.13-4.67 24.113 24.113 0 0 1-8.2-13.66 17.855 17.855 0 0 1 11.52-4.56z" data-original="#0c6c71" class=""></path><path fill="#03999c" d="M85.25 221.6a50.851 50.851 0 0 1-15.39 10.38 67.508 67.508 0 0 1-24.61 5.62s0-16 8-24c-8 0-24-16-24-16a40.124 40.124 0 0 1 30.89-10.01 43.514 43.514 0 0 1 9.11 2.01z" data-original="#03999c" class=""></path><path fill="#0c6c71" d="M85.25 221.6a50.851 50.851 0 0 1-15.39 10.38 24.02 24.02 0 0 1-8.6-36.65 23.64 23.64 0 0 1-1.12-7.74 43.514 43.514 0 0 1 9.11 2.01z" data-original="#0c6c71" class=""></path><path fill="#03999c" d="m72 40-8 40a41.313 41.313 0 0 1-24-.1A50.93 50.93 0 0 1 24 72s9.22-16.81 20.03-20.14C36.96 48.12 32 24 32 24a51.537 51.537 0 0 1 25.08 5.14A51.027 51.027 0 0 1 72 40z" data-original="#03999c" class=""></path><path fill="#0c6c71" d="m72 40-8 40a41.313 41.313 0 0 1-24-.1 23.922 23.922 0 0 1 8.13-17.88 23.724 23.724 0 0 1 2.95-9.19 24 24 0 0 1 4.73-5.95 23.776 23.776 0 0 1 1.27-17.74A51.027 51.027 0 0 1 72 40z" data-original="#0c6c71" class=""></path><path fill="#03999c" d="M150.71 238.1s-10.93 10.93-32.78 1.17a78.933 78.933 0 0 1-15.22-9.17l16-24a26.133 26.133 0 0 1 18.41 7.75c9.9 9.48 13.59 24.25 13.59 24.25z" data-original="#03999c" class=""></path><path fill="#0c6c71" d="M137.12 213.85a24.029 24.029 0 0 1-11.49 9.31 24.14 24.14 0 0 1-7.7 16.11 78.933 78.933 0 0 1-15.22-9.17l16-24a26.133 26.133 0 0 1 18.41 7.75z" data-original="#0c6c71" class=""></path><path fill="#03999c" d="M168 40s0 25.03-11.88 39.45A26.468 26.468 0 0 1 144 88l-40-32c4.16-12.47 12.64-20.62 19.82-25.57A54.143 54.143 0 0 1 136 24s8 16 8 24c8-8 24-8 24-8z" data-original="#03999c" class=""></path><path fill="#0c6c71" d="M156.12 79.45A26.468 26.468 0 0 1 144 88l-40-32c4.16-12.47 12.64-20.62 19.82-25.57a23.974 23.974 0 0 1 2.07 18.87 23.077 23.077 0 0 1 2.12 3.08 23.887 23.887 0 0 1 13.12 16.56 23.483 23.483 0 0 1 4.21 1.36 23.765 23.765 0 0 1 10.78 9.15z" data-original="#0c6c71" class=""></path><path fill="#fd7584" d="M109.22 80.28a15.623 15.623 0 0 1-4.64-.1 16.007 16.007 0 0 1-31.89 1.8 13.796 13.796 0 0 1-.11-1.41 16.003 16.003 0 0 1-6.34-30.92 16.001 16.001 0 1 1 25.7-19.02 16.003 16.003 0 0 1 24.98 19.41c-.21.38-.44.76-.69 1.13a15.997 15.997 0 0 1-7.01 29.11z" data-original="#fd7584" class=""></path><path fill="#db6373" d="M99.246 49.334a3.999 3.999 0 0 1-3.497-2.053 8.004 8.004 0 0 0-13.974-.005 4 4 0 0 1-6.978-3.912 16.003 16.003 0 0 1 27.938.02 4.002 4.002 0 0 1-3.489 5.95z" data-original="#db6373" class=""></path><path fill="#db6373" d="M109.22 80.28a15.623 15.623 0 0 1-4.64-.1 16.007 16.007 0 0 1-31.89 1.8 13.796 13.796 0 0 1-.11-1.41 15.993 15.993 0 0 1-14.53-23.82A23.834 23.834 0 0 1 64 56a24.107 24.107 0 0 1 5.57.65 23.951 23.951 0 0 1 34.55-2.41c.23-.17.46-.32.7-.47a23.68 23.68 0 0 1 12.1-3.73c-.21.38-.44.76-.69 1.13a15.997 15.997 0 0 1-7.01 29.11z" data-original="#db6373" class=""></path><path fill="#fd7584" d="M132.99 201.65a15.449 15.449 0 0 1-.47 3.05 16.025 16.025 0 0 1-15.6 12.05 15.999 15.999 0 1 1-30.86 8.34 16.001 16.001 0 0 1-15.12-27.98 15.994 15.994 0 0 1 17.15-24.55 15.79 15.79 0 0 1 4.28 1.78 16.004 16.004 0 0 1 30.34 9.96 11.154 11.154 0 0 1-.41 1.35 16.008 16.008 0 0 1 10.69 16z" data-original="#fd7584" class=""></path><path fill="#db6373" d="M96.541 223.12a16.022 16.022 0 0 1-15.88-13.844 4 4 0 1 1 7.928-1.08 8.003 8.003 0 0 0 13.008 5.103 4 4 0 1 1 5.07 6.187 15.937 15.937 0 0 1-10.126 3.634zM132.99 201.65a23.82 23.82 0 0 1-9.45 3.29 24.8 24.8 0 0 1-2.98.18 23.967 23.967 0 0 1-14.38-4.79 24.214 24.214 0 0 1-6.91 1.93 24.852 24.852 0 0 1-2.98.18 24.01 24.01 0 0 1-23.8-21.03 23.38 23.38 0 0 1-.14-4.18 15.988 15.988 0 0 1 15.74-4.67 15.79 15.79 0 0 1 4.28 1.78 16.004 16.004 0 0 1 30.34 9.96 11.154 11.154 0 0 1-.41 1.35 16.008 16.008 0 0 1 10.69 16z" data-original="#db6373" class=""></path><path fill="#fd7584" d="M133 171.05a15.807 15.807 0 0 1 3.45 8.09 16 16 0 0 1-29.14 10.93 16.004 16.004 0 0 1-24.29-20.54 15.906 15.906 0 0 1-6.76-10.37c-.06-.29-.1-.59-.14-.89a16.01 16.01 0 0 1 18.55-17.75 16.003 16.003 0 0 1 31.88-1.8 9.771 9.771 0 0 1 .11 1.41 15.984 15.984 0 0 1 14.44 7.99 15.667 15.667 0 0 1 2.02 6.02A15.998 15.998 0 0 1 133 171.05z" data-original="#fd7584" class=""></path><path fill="#db6373" d="M110.494 185.522a16.03 16.03 0 0 1-13.981-8.205 4 4 0 0 1 6.986-3.896 8.003 8.003 0 0 0 13.972.007 4 4 0 0 1 6.98 3.908 15.996 15.996 0 0 1-13.957 8.186zM141.1 148.12a23.77 23.77 0 0 1-11.17 5.98 24.177 24.177 0 0 1-21.97 15.43h-.44a24.012 24.012 0 0 1-19.32-9.77 23.688 23.688 0 0 1-4.38.49h-.46a23.524 23.524 0 0 1-7.1-1.09c-.06-.29-.1-.59-.14-.89a16.01 16.01 0 0 1 18.55-17.75 16.003 16.003 0 0 1 31.88-1.8 9.771 9.771 0 0 1 .11 1.41 15.984 15.984 0 0 1 14.44 7.99z" data-original="#db6373" class=""></path><path fill="#fd7584" d="M140.61 130.4a15.996 15.996 0 0 1-15.71 16.28 13.33 13.33 0 0 1-1.41-.04 16.001 16.001 0 0 1-31.42 3.03 15.827 15.827 0 0 1-8.41 2.58 15.99 15.99 0 0 1-7.77-30.12 16 16 0 0 1 22.98-21.99 15.994 15.994 0 0 1 28.21 10.04 15.721 15.721 0 0 1-.6 4.62 16.004 16.004 0 0 1 13.69 12.15 15.654 15.654 0 0 1 .44 3.45z" data-original="#fd7584" class=""></path><path fill="#db6373" d="M140.17 126.95a23.98 23.98 0 0 1-28.19 7.12 23.669 23.669 0 0 1-7.3-4.84 23.932 23.932 0 0 1-34.81-1.54 16.011 16.011 0 0 1 6.02-5.56 16 16 0 0 1 22.98-21.99 15.994 15.994 0 0 1 28.21 10.04 15.721 15.721 0 0 1-.6 4.62 16.004 16.004 0 0 1 13.69 12.15z" data-original="#db6373" class=""></path><path fill="#fd7584" d="M150.63 98.65a16.025 16.025 0 0 1-13.66 9.69 16.013 16.013 0 0 1-27.49 14.35A16.566 16.566 0 0 1 107 119a15.997 15.997 0 0 1-21.63-20.71 16.273 16.273 0 0 1 2.42-3.96 16.006 16.006 0 0 1 14.49-28.46 13.764 13.764 0 0 1 1.28.62 15.76 15.76 0 0 1 5.52-5.95 15.984 15.984 0 0 1 24.38 16.02 15.996 15.996 0 0 1 17.17 22.09z" data-original="#fd7584" class=""></path><path fill="#db6373" d="m120.816 111.255-.294-.003a4 4 0 0 1 .073-8c.073.002.15.004.221.003a8.003 8.003 0 0 0 6.888-12.074 4 4 0 0 1 6.89-4.065 16.003 16.003 0 0 1-13.778 24.139zM111.35 106.43A24.107 24.107 0 0 1 112 112a23.837 23.837 0 0 1-2.52 10.69A16.566 16.566 0 0 1 107 119a15.997 15.997 0 0 1-21.63-20.71 16.273 16.273 0 0 1 2.42-3.96 16.006 16.006 0 0 1 14.49-28.46 13.764 13.764 0 0 1 1.28.62 15.76 15.76 0 0 1 5.52-5.95 23.867 23.867 0 0 1 2.84 9.52 23.957 23.957 0 0 1-.57 36.37z" data-original="#db6373" class=""></path><path fill="#fd7584" d="M101.29 103.09a15.996 15.996 0 1 1-28.38 14.2A15.992 15.992 0 0 1 53.44 92a15.992 15.992 0 0 1 19.47-25.29A15.994 15.994 0 0 1 104 72a15.787 15.787 0 0 1-.15 2.07 15.983 15.983 0 0 1-2.56 29.02z" data-original="#fd7584" class=""></path><path fill="#db6373" d="M64 96a4 4 0 0 1-4-4 20.022 20.022 0 0 1 20-20 4 4 0 0 1 0 8 12.013 12.013 0 0 0-12 12 4 4 0 0 1-4 4zM79.951 108.111a11.964 11.964 0 0 1-8.485-3.507 4 4 0 0 1 5.656-5.659 4 4 0 0 0 5.658-5.656 4 4 0 0 1 5.657-5.656 11.994 11.994 0 0 1-8.486 20.478z" data-original="#db6373" class=""></path><path fill="#03999c" d="M488 496H24a8 8 0 0 1 0-16h464a8 8 0 0 1 0 16z" data-original="#03999c" class=""></path></g></svg>