<svg xmlns="http://www.w3.org/2000/svg" version="1.1" xmlns:xlink="http://www.w3.org/1999/xlink" xmlns:svgjs="http://svgjs.com/svgjs" width="512" height="512" x="0" y="0" viewBox="0 0 32 32" style="enable-background:new 0 0 512 512" xml:space="preserve" class=""><g><path d="M28 2H4C2.346 2 1 3.346 1 5v16c0 1.654 1.346 3 3 3h3v5a1.001 1.001 0 0 0 1.625.781L15.851 24H28c1.654 0 3-1.346 3-3V5c0-1.654-1.346-3-3-3zM16 16H8a1 1 0 1 1 0-2h8a1 1 0 1 1 0 2zm8-4H8a1 1 0 1 1 0-2h16a1 1 0 1 1 0 2z" fill="#e4e1d7" data-original="#000000" class=""></path></g></svg>