<svg xmlns="http://www.w3.org/2000/svg" version="1.1" xmlns:xlink="http://www.w3.org/1999/xlink" xmlns:svgjs="http://svgjs.com/svgjs" width="512" height="512" x="0" y="0" viewBox="0 0 68 68" style="enable-background:new 0 0 512 512" xml:space="preserve" class=""><g><path d="M49.89 61.5H8.93c-4.097 0-7.43-3.333-7.43-7.43V13.93c0-4.097 3.333-7.43 7.43-7.43h40.96c4.097 0 7.43 3.333 7.43 7.43V36.7a.5.5 0 1 1-1 0V13.93a6.438 6.438 0 0 0-6.43-6.43H8.93a6.438 6.438 0 0 0-6.43 6.43v40.14a6.438 6.438 0 0 0 6.43 6.43h40.96a.5.5 0 1 1 0 1z" fill="#000000" data-original="#000000"></path><path d="M36.002 24.224c-.302 0-.6-.097-.85-.287l-5.71-4.31a.416.416 0 0 0-.502.002l-5.709 4.309a1.402 1.402 0 0 1-1.479.137 1.406 1.406 0 0 1-.785-1.265V7.004a.5.5 0 0 1 .5-.5h15.456a.5.5 0 0 1 .5.5V22.81c0 .539-.302 1.023-.786 1.264-.203.1-.42.15-.635.15zm-6.81-5.677c.3 0 .601.094.851.281l5.71 4.31c.185.141.37.076.438.04s.232-.139.232-.368V7.504H21.967V22.81c0 .23.16.335.23.37.07.033.251.097.432-.04l5.71-4.31c.252-.19.553-.283.853-.283zM24.745 55.036H7.321a.5.5 0 1 1 0-1h17.424a.5.5 0 1 1 0 1zM11.938 51.392a.5.5 0 0 1-.5-.5v-9.26a.5.5 0 1 1 1 0v9.26a.5.5 0 0 1-.5.5z" fill="#000000" data-original="#000000"></path><path d="M14.313 44.387a.498.498 0 0 1-.353-.147l-2.022-2.021-2.021 2.021a.5.5 0 1 1-.707-.707l2.375-2.375a.5.5 0 0 1 .707 0l2.375 2.375a.5.5 0 0 1-.354.854zM20.128 51.392a.5.5 0 0 1-.5-.5v-9.26a.5.5 0 1 1 1 0v9.26a.5.5 0 0 1-.5.5z" fill="#000000" data-original="#000000"></path><path d="M22.503 44.387a.498.498 0 0 1-.354-.147l-2.021-2.021-2.023 2.021a.5.5 0 1 1-.707-.707l2.376-2.375a.5.5 0 0 1 .707 0l2.375 2.375a.5.5 0 0 1-.353.854zM63.49 61.5H37.96c-1.66 0-3.01-1.35-3.01-3.01V45.21a.5.5 0 1 1 1 0v13.28c0 1.109.902 2.01 2.01 2.01h25.53c1.109 0 2.01-.901 2.01-2.01V45.21a.5.5 0 1 1 1 0v13.28c0 1.66-1.35 3.01-3.01 3.01zM60.14 40.2H41.31a.5.5 0 1 1 0-1h18.83a.5.5 0 1 1 0 1z" fill="#000000" data-original="#000000"></path><path d="M63.49 58.5H37.96c-1.66 0-3.01-1.35-3.01-3.01V42.21a.5.5 0 1 1 1 0v13.28c0 1.109.902 2.01 2.01 2.01h25.53c1.109 0 2.01-.901 2.01-2.01V42.21a.5.5 0 1 1 1 0v13.28c0 1.66-1.35 3.01-3.01 3.01z" fill="#000000" data-original="#000000"></path><path d="M63.49 55.498H37.96c-1.66 0-3.01-1.35-3.01-3.01v-13.28c0-1.66 1.35-3.01 3.01-3.01h25.53c1.66 0 3.01 1.35 3.01 3.01v13.28c0 1.66-1.35 3.01-3.01 3.01zm-25.53-18.3c-1.108 0-2.01.902-2.01 2.01v13.28c0 1.109.902 2.01 2.01 2.01h25.53c1.109 0 2.01-.901 2.01-2.01v-13.28c0-1.108-.901-2.01-2.01-2.01z" fill="#000000" data-original="#000000"></path><path d="M60.14 52.498H41.31a.5.5 0 0 1-.5-.5 2.362 2.362 0 0 0-2.36-2.36.5.5 0 0 1-.5-.5v-6.58a.5.5 0 0 1 .5-.5c1.301 0 2.36-1.058 2.36-2.36a.5.5 0 0 1 .5-.5h18.83a.5.5 0 0 1 .5.5 2.363 2.363 0 0 0 2.36 2.36.5.5 0 0 1 .5.5v6.58a.5.5 0 0 1-.5.5 2.363 2.363 0 0 0-2.36 2.36.5.5 0 0 1-.5.5zm-18.368-1h17.905a3.37 3.37 0 0 1 2.823-2.823V43.02a3.37 3.37 0 0 1-2.823-2.823H41.772a3.368 3.368 0 0 1-2.822 2.823v5.654a3.368 3.368 0 0 1 2.822 2.823z" fill="#000000" data-original="#000000"></path><path d="M50.725 50.153c-2.141 0-3.882-1.93-3.882-4.304s1.741-4.306 3.882-4.306 3.882 1.932 3.882 4.306-1.742 4.304-3.882 4.304zm0-7.61c-1.59 0-2.882 1.483-2.882 3.306s1.293 3.304 2.882 3.304c1.59 0 2.882-1.482 2.882-3.304s-1.293-3.306-2.882-3.306zM42.35 46.349h-1a.5.5 0 1 1 0-1h1a.5.5 0 1 1 0 1zM60.1 46.349h-1a.5.5 0 1 1 0-1h1a.5.5 0 1 1 0 1z" fill="#000000" data-original="#000000"></path></g></svg>