<svg xmlns="http://www.w3.org/2000/svg" version="1.1" xmlns:xlink="http://www.w3.org/1999/xlink" xmlns:svgjs="http://svgjs.com/svgjs" width="512" height="512" x="0" y="0" viewBox="0 0 480 480.296" style="enable-background:new 0 0 512 512" xml:space="preserve" class=""><g><path fill="#60a2d7" d="M472.16 336.297c0 75.11-60.89 136-136 136-75.113 0-136-60.89-136-136 0-75.113 60.887-136 136-136 75.11 0 136 60.887 136 136zm0 0" data-original="#60a2d7"></path><path fill="#f7cc38" d="M280.16 336.297c0 75.11-60.89 136-136 136-75.113 0-136-60.89-136-136 0-75.113 60.887-136 136-136 75.11 0 136 60.887 136 136zm0 0" data-original="#f7cc38"></path><path fill="#8cb28c" d="M280.16 336.297c0-53.195-17.91-96.32-40-96.32-22.094 0-40 43.125-40 96.32s17.906 96.32 40 96.32c22.09 0 40-43.125 40-96.32zm0 0" data-original="#8cb28c"></path><path fill="#ee638c" d="M376.16 144.297c0 75.11-60.89 136-136 136-75.113 0-136-60.89-136-136 0-75.113 60.887-136 136-136 75.11 0 136 60.887 136 136zm0 0" data-original="#ee638c"></path><path fill="#ee638c" d="M376.16 144.297c0 75.11-60.89 136-136 136-75.113 0-136-60.89-136-136 0-75.113 60.887-136 136-136 75.11 0 136 60.887 136 136zm0 0" data-original="#ee638c"></path><path fill="#b495bc" d="M213.59 277.664c60.965 12.184 122.41-18.61 149.137-74.734-60.961-12.188-122.407 18.605-149.137 74.734zm0 0" data-original="#b495bc"></path><path fill="#ef7559" d="M117.59 202.93c26.73 56.125 88.176 86.918 149.137 74.734C240 221.535 178.555 190.742 117.59 202.93zm0 0" data-original="#ef7559"></path><path fill="#4a4a4a" d="M235.086 245.543c-.313.344-.629.68-.934 1.023a142.754 142.754 0 0 0-5.601 6.778l-.45.61a135.861 135.861 0 0 0-14.398 23.534l-.07.137 1.238.223c3.36.629 6.762 1.14 10.2 1.527.906.098 1.8.219 2.714.297 4.086.375 8.207.625 12.39.625 4.184 0 8.305-.25 12.391-.625.914-.078 1.809-.2 2.711-.297 3.442-.395 6.844-.902 10.203-1.527l1.239-.223-.07-.137a135.881 135.881 0 0 0-14.403-23.535l-.445-.61a134.562 134.562 0 0 0-5.602-6.777c-.304-.343-.625-.68-.937-1.023a139.465 139.465 0 0 0-5.07-5.367 132.243 132.243 0 0 0-5.106 5.367zm0 0" data-original="#4a4a4a"></path><path d="M144.16 480.297a143.278 143.278 0 0 0 96-36.977c44.25 39.774 108.422 48.196 161.442 21.192 53.02-27.004 83.941-83.86 77.793-143.04-6.149-59.183-48.094-108.468-105.532-124 24.04-60.109 5.012-128.87-46.511-168.074-51.52-39.199-122.868-39.199-174.387 0-51.52 39.204-70.55 107.965-46.508 168.075C36.793 216.328-8.125 283.867 1.41 355.403s70.582 124.94 142.75 124.894zm64-144a127.208 127.208 0 0 1 10.11-49.848 130.715 130.715 0 0 0 43.777 0c19.172 45.219 10.656 97.434-21.887 134.223a127.319 127.319 0 0 1-32-84.375zm46.176-64.8a121.176 121.176 0 0 1-28.352 0 128.232 128.232 0 0 1 14.176-19.579 128.765 128.765 0 0 1 14.176 19.578zm-2.879-30.872a126.39 126.39 0 0 1 98.879-31.527 128.309 128.309 0 0 1-79.266 59.238 144.288 144.288 0 0 0-19.613-27.742zm-42.21 27.773a128.29 128.29 0 0 1-79.263-59.3 126.4 126.4 0 0 1 98.88 31.46 144.545 144.545 0 0 0-19.618 27.81zm254.913 67.899c.086 50.363-29.422 96.082-75.351 116.75-45.934 20.668-99.72 12.426-137.352-21.047 36.48-40.527 46.723-98.281 26.398-148.879a144.52 144.52 0 0 0 89.208-70.898c56.972 14.222 96.984 65.351 97.097 124.074zm-224-320a127.996 127.996 0 0 1 117.887 177.848 140.847 140.847 0 0 0-117.887 35.128 140.852 140.852 0 0 0-117.89-35.128 128.007 128.007 0 0 1 11.207-120.57A127.996 127.996 0 0 1 240.16 16.296zM113.246 212.223a144.538 144.538 0 0 0 89.211 70.898C182.129 333.72 192.371 391.473 228.855 432c-39.738 35.234-97.12 42.238-144.164 17.59-47.046-24.645-73.957-75.805-67.613-128.535 6.344-52.73 44.621-96.047 96.168-108.832zm0 0" fill="#047959" data-original="#000000" class=""></path></g></svg>