<svg xmlns="http://www.w3.org/2000/svg" version="1.1" xmlns:xlink="http://www.w3.org/1999/xlink" xmlns:svgjs="http://svgjs.com/svgjs" width="512" height="512" x="0" y="0" viewBox="0 0 512 512" style="enable-background:new 0 0 512 512" xml:space="preserve" class=""><g><path d="M183.667 75h150.027v30H183.667z" fill="#ffffff" data-original="#000000"></path><path d="M512 285.62c0-74.957-47.107-139.108-113.267-164.433V0H123.48L0 123.703V512h398.733v-61.945C464.893 424.729 512 360.578 512 285.62zM121.41 44.605v77.001H44.767zM368.733 482H30V151.606h121.41V30h217.323v82.686A176.222 176.222 0 0 0 336 109.621c-36.569 0-70.566 11.215-98.74 30.38h-53.593v30h19.751a176.756 176.756 0 0 0-23.837 35H65.039v30h102.392a174.824 174.824 0 0 0-6.73 35L65.039 270v30h95.552a174.854 174.854 0 0 0 6.471 35H65.04v30h113.907a176.657 176.657 0 0 0 23.401 35H65.039v30h170.432c28.52 19.918 63.181 31.621 100.529 31.621 11.184 0 22.123-1.061 32.733-3.065zM336 431.621c-80.505 0-146-65.496-146-146.001 0-80.504 65.495-145.999 146-145.999s146 65.495 146 145.999c0 80.505-65.495 146.001-146 146.001z" fill="#ffffff" data-original="#000000"></path><path d="m390.321 192.617-75.804 75.803-37.448-37.449-63.64 63.639 101.088 101.088L453.96 256.256zM255.855 294.609l21.213-21.212 37.449 37.449 75.804-75.803 21.212 21.213-97.016 97.015z" fill="#ffffff" data-original="#000000"></path></g></svg>