<svg xmlns="http://www.w3.org/2000/svg" version="1.1" xmlns:xlink="http://www.w3.org/1999/xlink" xmlns:svgjs="http://svgjs.com/svgjs" width="512" height="512" x="0" y="0" viewBox="0 0 64 64" style="enable-background:new 0 0 512 512" xml:space="preserve" class=""><g><g data-name="Artboard 23"><path d="M8.477 62a23 23 0 0 1 29.432-35.038l4.933 4.523A22.993 22.993 0 0 1 45.718 36L44 58.965A23.087 23.087 0 0 1 41.523 62Z" style="" fill="#2d9739" data-original="#2d9739"></path><path d="M45.718 36a22.993 22.993 0 0 0-2.876-4.515l-4.933-4.524-.087-.059a17.692 17.692 0 0 0-19.63 0A23 23 0 0 0 14.477 62h27.046A23.087 23.087 0 0 0 44 58.965Z" style="" fill="#44bc59" data-original="#44bc59"></path><path d="M44.473 33.761a23.078 23.078 0 0 0-1.631-2.276l-2.207-2.024a14.871 14.871 0 0 1-3.427 1.739l-4.372 1.49A1.248 1.248 0 0 0 32 33.878v6.87a1.222 1.222 0 0 0 1.86 1.067l4.393-2.746a28.882 28.882 0 0 0 6.22-5.308Z" style="" fill="#2d9739" data-original="#2d9739"></path><rect width="14" height="4" x="18" y="19" rx="2" style="" fill="#ffc239" data-original="#ffc239"></rect><circle cx="25" cy="43" r="12" style="" fill="#abe4a3" data-original="#abe4a3"></circle><path d="M25 31a11.927 11.927 0 0 0-6.548 1.952 11.991 11.991 0 0 0 16.6 16.6A11.991 11.991 0 0 0 25 31Z" style="" fill="#cdf8c8" data-original="#cdf8c8"></path><path d="m20 19-2.78-5c-.685-1.662.249-4 1.78-4h12c1.531 0 2.465 2.338 1.78 4L30 19ZM25 42a2 2 0 1 1 2-2h2a4 4 0 0 0-3-3.858V35h-2v1.142A3.992 3.992 0 0 0 25 44a2 2 0 1 1-2 2h-2a4 4 0 0 0 3 3.858V51h2v-1.142A3.992 3.992 0 0 0 25 42Z" style="" fill="#2d9739" data-original="#2d9739"></path><path d="M2 61h60v2H2zM37 43h4v16h-4zM44 36h4v23h-4zM51 29h4v30h-4z" style="" fill="#ffc239" data-original="#ffc239"></path><path d="M36.628 40.084a11.99 11.99 0 0 0-4.5-6.724 1.246 1.246 0 0 0-.125.518v6.87a1.222 1.222 0 0 0 1.86 1.067Z" style="" fill="#abe4a3" data-original="#abe4a3"></path><path d="M58 23h4v36h-4zM30 47h4v12h-4z" style="" fill="#ffc239" data-original="#ffc239"></path><path d="M20 19a1.979 1.979 0 0 0-.974.263A2 2 0 0 0 21 21h10a1.979 1.979 0 0 0 .974-.263A2 2 0 0 0 30 19Z" style="" fill="#ffd55d" data-original="#ffd55d"></path><path d="M32.78 14c.685-1.662-.249-4-1.78-4H20.637a1.49 1.49 0 0 0-1.437 1.981l.008.019 1.481 2.664A4.545 4.545 0 0 0 24.665 17h6.447Z" style="" fill="#44bc59" data-original="#44bc59"></path><path d="M32 47v9a2 2 0 0 0 2 2V47ZM39 43v13a2 2 0 0 0 2 2V43ZM46 36v20a2 2 0 0 0 2 2V36ZM53 29v27a2 2 0 0 0 2 2V29ZM60 23v33a2 2 0 0 0 2 2V23Z" style="" fill="#ffd55d" data-original="#ffd55d"></path><path d="M59.505 14.269a1 1 0 0 1-1.236 1.236L53 14c-2.52 8.377-7.434 16.522-14.747 21.092l-4.393 2.746A1.222 1.222 0 0 1 32 36.771V29.9a1.248 1.248 0 0 1 .836-1.186l4.372-1.49C43.058 25.231 48.791 19.184 50 13l-4.459-2.229a1 1 0 0 1-.107-1.727l9.425-6.284a1 1 0 0 1 1.516.557Z" style="" fill="#f3a606" data-original="#f3a606"></path><path d="m33.86 35.246 4.393-2.746c6.793-4.245 11.516-11.576 14.174-19.312a1.986 1.986 0 0 1 2.429-1.25l3.413.975a.982.982 0 0 0 .814-.124l-2.708-9.472a1 1 0 0 0-1.516-.557l-9.425 6.284a1 1 0 0 0 .107 1.727L50 13c-1.209 6.184-6.942 12.231-12.792 14.225l-4.372 1.49A1.248 1.248 0 0 0 32 29.9v4.28a1.222 1.222 0 0 0 1.86 1.066Z" style="" fill="#ffc239" data-original="#ffc239"></path></g></g></svg>