<svg xmlns="http://www.w3.org/2000/svg" version="1.1" xmlns:xlink="http://www.w3.org/1999/xlink" xmlns:svgjs="http://svgjs.com/svgjs" width="512" height="512" x="0" y="0" viewBox="0 0 24 24" style="enable-background:new 0 0 512 512" xml:space="preserve" class=""><g><path fill="#fff" fill-rule="evenodd" d="M16 3a1 1 0 0 1 1 1v1h4a1 1 0 1 1 0 2h-4v1a1 1 0 1 1-2 0V4a1 1 0 0 1 1-1zM2 6a1 1 0 0 1 1-1h9a1 1 0 1 1 0 2H3a1 1 0 0 1-1-1zm6 3a1 1 0 0 1 1 1v4a1 1 0 1 1-2 0v-1H3a1 1 0 1 1 0-2h4v-1a1 1 0 0 1 1-1zm3 3a1 1 0 0 1 1-1h9a1 1 0 1 1 0 2h-9a1 1 0 0 1-1-1zm5 3a1 1 0 0 1 1 1v1h4a1 1 0 1 1 0 2h-4v1a1 1 0 1 1-2 0v-4a1 1 0 0 1 1-1zM2 18a1 1 0 0 1 1-1h9a1 1 0 1 1 0 2H3a1 1 0 0 1-1-1z" clip-rule="evenodd" data-original="#000000" class=""></path></g></svg>