<svg xmlns="http://www.w3.org/2000/svg" version="1.1" xmlns:xlink="http://www.w3.org/1999/xlink" xmlns:svgjs="http://svgjs.com/svgjs" width="512" height="512" x="0" y="0" viewBox="0 0 173.397 173.397" style="enable-background:new 0 0 512 512" xml:space="preserve" class=""><g><path fill="#9ba7af" fill-rule="nonzero" d="M27.678 36.406a4.379 4.379 0 0 0-7.714-4.148C11.742 47.465 9.203 64.44 11.832 80.54c2.644 16.19 10.515 31.493 23.088 43.226a4.378 4.378 0 0 0 5.965-6.41C29.768 106.983 22.809 93.45 20.47 79.135a66.974 66.974 0 0 1 7.207-42.73zm104.835 80.95a4.378 4.378 0 0 0 5.965 6.411c12.572-11.733 20.443-27.036 23.087-43.226 2.63-16.101.09-33.076-8.132-48.283a4.38 4.38 0 0 0-7.713 4.148 66.973 66.973 0 0 1 7.206 42.73c-2.337 14.315-9.297 27.847-20.413 38.22z" data-original="#9ba7af" class=""></path><path fill="#cc232e" d="m24.913 45.057 12.879-6.773 96.124-.356 14.568 7.13-12.774 99.814a11.632 11.632 0 0 1-11.589 10.2H49.276a11.632 11.632 0 0 1-11.588-10.2L24.913 45.057z" data-original="#cc232e"></path><path fill="#f29c1f" d="M24.913 18.326h123.57a4.957 4.957 0 0 1 4.943 4.942v16.847a4.957 4.957 0 0 1-4.942 4.942H24.913a4.957 4.957 0 0 1-4.942-4.942V23.268a4.957 4.957 0 0 1 4.942-4.942z" data-original="#f29c1f"></path><circle cx="86.699" cy="100.064" r="37.677" fill="#f29c1f" data-original="#f29c1f"></circle><path fill="#ffdb00" d="M88.674 103.677c-3.802-8.51-3.108-17.382-1.84-26.616-20.555 23.17-18.783 37.918-9.48 43.407 10.167 6 28.059 1.472 24.986-12.168-1.125-4.996-5.502-8.688-2.044-20.14-7.429 4.199-10.36 11.75-11.622 15.517z" data-original="#ffdb00"></path></g></svg>