<svg xmlns="http://www.w3.org/2000/svg" version="1.1" xmlns:xlink="http://www.w3.org/1999/xlink" xmlns:svgjs="http://svgjs.com/svgjs" width="512" height="512" x="0" y="0" viewBox="0 0 58 52" style="enable-background:new 0 0 512 512" xml:space="preserve" class=""><g><g fill="none"><path fill="#388e3c" d="M49.41 19.43 46 23l-4.18-.27c-2.433-4.636-4.769-8.065-9.82-9.85L30 9l2-5.07c8.428 1.912 13.606 7.785 17.41 15.5z" data-original="#c03a2b" class=""></path><path fill="#388e3c" d="M57.76 39.08a1 1 0 0 1-1.47 1l-4.39-2.36c-5.52 7.39-13.86 13.05-23.16 13.73A25.555 25.555 0 0 1 4.26 36.82a21.759 21.759 0 0 1-.82-14.86c.343.057-.292.04 10.32.04a12.714 12.714 0 0 0 2.07 11.41c2.92 3.93 8.16 6.33 13.03 5.2a18.033 18.033 0 0 0 10.51-7.64l-5.56-2.99a1 1 0 0 1 .08-1.8l19.88-8.65a1.01 1.01 0 0 1 1.4.8z" data-original="#e64c3c" class=""></path><path fill="#f0c419" d="M32 3.93V18a4 4 0 0 1-4 4h-1a1 1 0 0 0-1 1v3.794a1 1 0 0 1-1.659.752L18.57 22.49a2.071 2.071 0 0 0-1.32-.49c-14.364 0-13.467.017-13.81-.04A3.992 3.992 0 0 1 0 18V4a4 4 0 0 1 4-4h24.07C30.24 0 32 1.76 32 3.93z" data-original="#f0c419" class=""></path><g fill="#e64c3c"><path d="M14 17.993H6a1 1 0 0 1-1-1c0-2.648 2.852-4.681 5.032-6.178a8.472 8.472 0 0 0 2.53-2.2 2.363 2.363 0 0 0 .046-2.542C11.388 4.29 7.062 4.571 7 7.993a1 1 0 1 1-2 0c.111-5.444 6.953-6.419 9.258-3.049a4.36 4.36 0 0 1 .015 4.707 9.792 9.792 0 0 1-3.108 2.812c-1.258.865-3.172 2.187-3.886 3.53H14a1 1 0 0 1 0 2z" fill="#e64c3c" data-original="#e64c3c" class=""></path><path d="M23 18a1 1 0 0 1-1-1v-3h-6a1 1 0 0 1-.79-1.614l7-9A1 1 0 0 1 24 4v8h2a1 1 0 0 1 0 2h-2v3a1 1 0 0 1-1 1zm-4.956-6H22V6.915z" fill="#e64c3c" data-original="#e64c3c" class=""></path></g></g></g></svg>