<svg xmlns="http://www.w3.org/2000/svg" version="1.1" xmlns:xlink="http://www.w3.org/1999/xlink" xmlns:svgjs="http://svgjs.com/svgjs" width="512" height="512" x="0" y="0" viewBox="0 0 72 72" style="enable-background:new 0 0 512 512" xml:space="preserve" class=""><g><path d="M63 15H9c-1.7 0-3-1.3-3-3s1.3-3 3-3h54c1.7 0 3 1.3 3 3s-1.3 3-3 3zM63 31H9c-1.7 0-3-1.3-3-3s1.3-3 3-3h54c1.7 0 3 1.3 3 3s-1.3 3-3 3zM63 47H9c-1.7 0-3-1.3-3-3s1.3-3 3-3h54c1.7 0 3 1.3 3 3s-1.3 3-3 3zM45 63H9c-1.7 0-3-1.3-3-3s1.3-3 3-3h36c1.7 0 3 1.3 3 3s-1.3 3-3 3z" fill="#000000" data-original="#000000"></path></g></svg>