<svg xmlns="http://www.w3.org/2000/svg" version="1.1" xmlns:xlink="http://www.w3.org/1999/xlink" xmlns:svgjs="http://svgjs.com/svgjs" width="512" height="512" x="0" y="0" viewBox="0 0 32 32" style="enable-background:new 0 0 512 512" xml:space="preserve" class=""><g><linearGradient id="a" x1="1.391" x2="31.891" y1="32.877" y2="1.877" gradientUnits="userSpaceOnUse"><stop offset="0" stop-color="#0e5dd8"></stop><stop offset="1" stop-color="#eb55ff"></stop></linearGradient><path fill="url(#a)" d="M30 16.195v7.61a.194.194 0 0 1-.302.162L26.874 22H25.5v-4h1.374l2.824-1.967a.194.194 0 0 1 .302.162zM23 15H11a1 1 0 0 0-1 1v8a1 1 0 0 0 1 1h12a1 1 0 0 0 1-1v-8a1 1 0 0 0-1-1zm-3 5h-1a1 1 0 0 1 0-2h1a1 1 0 0 1 0 2zm-9.25-7.5a3.254 3.254 0 0 0-3.25 3.25.75.75 0 0 1-1.5 0A4.756 4.756 0 0 1 10.75 11a.75.75 0 0 1 0 1.5zm0-4c-3.998 0-7.25 3.252-7.25 7.25a.75.75 0 0 1-1.5 0C2 10.925 5.925 7 10.75 7a.75.75 0 0 1 0 1.5z" data-original="url(#a)"></path></g></svg>