<svg xmlns="http://www.w3.org/2000/svg" version="1.1" xmlns:xlink="http://www.w3.org/1999/xlink" xmlns:svgjs="http://svgjs.com/svgjs" width="512" height="512" x="0" y="0" viewBox="0 0 510.699 510.699" style="enable-background:new 0 0 512 512" xml:space="preserve" class=""><g><path d="M81.983 397.158a7.5 7.5 0 1 1 0-15 7.5 7.5 0 0 1 0 15z" fill="#41583d" data-original="#000000" class=""></path><path d="M485.793 269.263c-7.191-12.468-24.385-17.643-37.518-10.067l-95.87 55.361c-3.138-11.716-13.847-20.366-26.538-20.366h-45.771c-18.475-7.906-38.492-15.47-58.809-15.47-39.382 0-72.864 27.499-92.543 59.701l-14.748-14.748a7.502 7.502 0 0 0-10.607 0l-15.995 15.995-8.213-8.213c-3.536-2.928-7.072-2.928-10.607 0l-44.791 44.792a7.5 7.5 0 0 0 0 10.607L145.43 508.503c3.536 2.928 7.072 2.928 10.607 0l66.09-66.091c2.929-3.536 2.93-7.071.001-10.607l-14.654-14.654h35.524c4.143 0 7.5-3.357 7.5-7.5s-3.357-7.5-7.5-7.5h-50.523L139.7 349.377c8.073-14.068 35.819-55.656 81.587-55.656 20.475 0 38.455 15.47 57.409 15.47h47.171c15.453 0 16.772 24.933-.001 24.933h-90.56c-4.143 0-7.5 3.357-7.5 7.5s3.357 7.5 7.5 7.5h90.56c11.082 0 20.815-6.497 25.146-16.443l104.762-60.494c6.943-3.179 12.62-1.651 17.032 4.584 3.789 6.536-.417 13.67-5.428 17.601l-126.425 98.814c-7.386 5.781-16.625 8.965-26.018 8.965h-39.26c-4.143 0-7.5 3.357-7.5 7.5s3.357 7.5 7.5 7.5h39.26c12.729 0 25.252-4.316 35.259-12.15l126.043-98.516c12.944-9.853 16.129-22.26 9.556-37.222zm-335.06 223.33L39.692 381.552l34.185-34.186 111.041 111.042zm44.792-44.793L98 350.276l10.692-10.692 97.525 97.524zM53.526 232.44h69.07c4.143 0 7.5-3.357 7.5-7.5s-3.357-7.5-7.5-7.5h-61.57V15h388.801v84.83c0 4.143 3.357 7.5 7.5 7.5s7.5-3.357 7.5-7.5V7.5c0-4.143-3.357-7.5-7.5-7.5H53.526a7.499 7.499 0 0 0-7.5 7.5v217.44a7.5 7.5 0 0 0 7.5 7.5z" fill="#41583d" data-original="#000000" class=""></path><path d="M155.287 232.44h302.04c4.143 0 7.5-3.357 7.5-7.5v-92.43c0-4.143-3.357-7.5-7.5-7.5s-7.5 3.357-7.5 7.5v84.93h-294.54c-4.143 0-7.5 3.357-7.5 7.5s3.357 7.5 7.5 7.5z" fill="#41583d" data-original="#000000" class=""></path><path d="M395.207 201.379c1.989 0 3.896-.79 5.304-2.196l31.063-31.063a7.502 7.502 0 0 0 2.196-5.304V69.63a7.5 7.5 0 0 0-2.188-5.294l-31.063-31.168a7.5 7.5 0 0 0-5.313-2.206h-279.56a7.504 7.504 0 0 0-5.313 2.206L79.271 64.336a7.504 7.504 0 0 0-2.188 5.294v93.187c0 1.989.79 3.896 2.196 5.304l31.063 31.063a7.502 7.502 0 0 0 5.304 2.196h279.561zM200.803 116.17c0-38.713 24.504-70.208 54.624-70.208s54.624 31.495 54.624 70.208-24.504 70.209-54.624 70.209-54.624-31.496-54.624-70.209zm191.29-70.208 26.677 26.767v86.981l-26.67 26.669h-97.282C313.061 171 325.05 145.271 325.05 116.17s-11.989-54.829-30.232-70.208zm-273.34 140.417L92.084 159.71V72.729l26.677-26.767h97.274c-18.243 15.379-30.232 41.107-30.232 70.208s11.989 54.83 30.232 70.209z" fill="#41583d" data-original="#000000" class=""></path><path d="M138.943 93.191c-12.699 0-23.031 10.332-23.031 23.031s10.332 23.031 23.031 23.031 23.031-10.332 23.031-23.031-10.332-23.031-23.031-23.031zm0 31.063c-4.429 0-8.031-3.603-8.031-8.031s3.603-8.031 8.031-8.031 8.031 3.603 8.031 8.031-3.602 8.031-8.031 8.031zM371.91 139.254c12.699 0 23.031-10.332 23.031-23.031s-10.332-23.031-23.031-23.031-23.031 10.332-23.031 23.031 10.332 23.031 23.031 23.031zm0-31.063c4.429 0 8.031 3.603 8.031 8.031s-3.603 8.031-8.031 8.031-8.031-3.603-8.031-8.031 3.602-8.031 8.031-8.031zM223.303 107.839h64.248a7.499 7.499 0 0 0 5.304-12.803l-15.53-15.531a7.5 7.5 0 0 0-10.606-.001 7.498 7.498 0 0 0-.001 10.606l2.729 2.729h-46.143c-4.143 0-7.5 3.357-7.5 7.5s3.356 7.5 7.499 7.5zM295.051 131.401c0-4.143-3.357-7.5-7.5-7.5h-64.249a7.499 7.499 0 0 0-5.304 12.804l15.531 15.531c3.536 2.928 7.072 2.928 10.607 0a7.5 7.5 0 0 0 0-10.607l-2.729-2.728h46.143a7.5 7.5 0 0 0 7.501-7.5z" fill="#41583d" data-original="#000000" class=""></path></g></svg>