<svg xmlns="http://www.w3.org/2000/svg" version="1.1" xmlns:xlink="http://www.w3.org/1999/xlink" xmlns:svgjs="http://svgjs.com/svgjs" width="512" height="512" x="0" y="0" viewBox="0 0 512 512.001" style="enable-background:new 0 0 512 512" xml:space="preserve" class=""><g><path d="M284.284 256 506.142 34.142c7.811-7.81 7.811-20.474 0-28.284-7.811-7.811-20.474-7.811-28.284 0L256 227.716 34.142 5.858c-7.811-7.811-20.474-7.811-28.284 0-7.811 7.81-7.811 20.474 0 28.284L227.716 256 5.858 477.858c-7.811 7.811-7.811 20.474 0 28.284 7.81 7.81 20.473 7.811 28.284 0L256 284.284l221.858 221.858c7.81 7.81 20.473 7.811 28.284 0s7.811-20.474 0-28.284L284.284 256z" fill="#000000" data-original="#000000" class=""></path></g></svg>