<svg xmlns="http://www.w3.org/2000/svg" version="1.1" xmlns:xlink="http://www.w3.org/1999/xlink" xmlns:svgjs="http://svgjs.com/svgjs" width="512" height="512" x="0" y="0" viewBox="0 0 512 512" style="enable-background:new 0 0 512 512" xml:space="preserve" class=""><g><path d="M437.02 74.98C388.667 26.629 324.38 0 256 0S123.333 26.629 74.98 74.98C26.629 123.332 0 187.62 0 256s26.629 132.668 74.98 181.02C123.333 485.371 187.62 512 256 512s132.667-26.629 181.02-74.98C485.371 388.668 512 324.38 512 256s-26.629-132.668-74.98-181.02zM256 497C123.112 497 15 388.888 15 256S123.112 15 256 15s241 108.112 241 241-108.112 241-241 241z" fill="#000000" data-original="#000000" class=""></path><path d="M415.806 96.194C373.12 53.508 316.367 30 256 30S138.88 53.508 96.194 96.194C53.508 138.88 30 195.634 30 256c0 28.04 5.087 55.428 15.121 81.402a7.498 7.498 0 0 0 9.699 4.294 7.499 7.499 0 0 0 4.293-9.698c-8.468-21.923-13.148-44.932-13.969-68.498h79.165c.716 48.513 8.371 94.793 21.655 134.065a255.866 255.866 0 0 0-29.569 16.61 211.152 211.152 0 0 1-45.003-55.943 7.499 7.499 0 0 0-10.197-2.918 7.5 7.5 0 0 0-2.918 10.197 226.152 226.152 0 0 0 52.299 63.449c.251.244.519.462.797.665a226.603 226.603 0 0 0 73.035 40.713 7.473 7.473 0 0 0 1.844.608A225.499 225.499 0 0 0 256 482c60.367 0 117.12-23.508 159.806-66.194C458.492 373.12 482 316.366 482 256c0-60.366-23.508-117.12-66.194-159.806zM168.37 64.077c-6.379 11.007-12.142 23.144-17.247 36.2a240.453 240.453 0 0 1-22.451-12.412 211.26 211.26 0 0 1 39.698-23.788zM45.148 248.5c2.103-59.879 29.271-113.484 71.317-150.629a255.977 255.977 0 0 0 29.499 16.564c-13.284 39.272-20.938 85.552-21.655 134.065H45.148zm83.465 175.67a240.922 240.922 0 0 1 22.51-12.447c5.101 13.048 10.861 25.178 17.235 36.179a211.636 211.636 0 0 1-39.745-23.732zM248.5 466.865a210.527 210.527 0 0 1-56.254-9.748c-10.587-14.396-19.807-31.812-27.457-51.491 26.456-10.837 54.719-16.864 83.711-17.751v78.99zm0-93.996c-30.749.886-60.731 7.215-88.812 18.637-12.479-37.386-19.679-81.555-20.38-128.006H248.5v109.369zm0-124.369H139.308c.701-46.451 7.901-90.62 20.38-128.006 28.081 11.422 58.063 17.751 88.812 18.637V248.5zm0-124.374c-28.993-.887-57.255-6.914-83.711-17.751 7.657-19.698 16.887-37.127 27.486-51.531 17.84-5.664 36.699-9.01 56.225-9.696v78.978zM466.852 248.5h-79.161c-.716-48.513-8.371-94.793-21.655-134.065a255.977 255.977 0 0 0 29.499-16.564c42.046 37.145 69.214 90.75 71.317 150.629zM383.328 87.865a240.684 240.684 0 0 1-22.451 12.412c-5.105-13.056-10.868-25.193-17.247-36.199a211.288 211.288 0 0 1 39.698 23.787zM263.501 45.148c19.525.685 38.384 4.031 56.224 9.696 10.599 14.404 19.829 31.833 27.487 51.531-26.456 10.837-54.718 16.864-83.711 17.751V45.148zm-.001 93.983c30.749-.886 60.731-7.215 88.812-18.637 12.48 37.386 19.68 81.555 20.38 128.006H263.5V139.131zm0 124.369h109.192c-.701 46.451-7.901 90.62-20.38 128.006-28.081-11.422-58.063-17.751-88.812-18.637V263.5zm0 203.352v-78.978c28.993.887 57.255 6.914 83.711 17.751-7.657 19.698-16.887 37.127-27.486 51.531-17.84 5.664-36.699 9.01-56.225 9.696zm80.13-18.929c6.379-11.007 12.142-23.144 17.247-36.2a240.453 240.453 0 0 1 22.451 12.412 211.26 211.26 0 0 1-39.698 23.788zm51.905-33.794a255.977 255.977 0 0 0-29.499-16.564c13.284-39.272 20.938-85.552 21.655-134.065h79.161c-2.103 59.879-29.271 113.484-71.317 150.629z" fill="#000000" data-original="#000000" class=""></path></g></svg>