<svg xmlns="http://www.w3.org/2000/svg" version="1.1" xmlns:xlink="http://www.w3.org/1999/xlink" xmlns:svgjs="http://svgjs.com/svgjs" width="512" height="512" x="0" y="0" viewBox="0 0 64 64" style="enable-background:new 0 0 512 512" xml:space="preserve" class=""><g><path fill="#c2c2c2" d="M24 14h33v46H24z" data-original="#c2c2c2"></path><path fill="#212a41" d="M57 60.5H24a.5.5 0 0 1-.5-.5V14a.5.5 0 0 1 .5-.5h33a.5.5 0 0 1 .5.5v46a.5.5 0 0 1-.5.5zm-32.5-1h32v-45h-32z" data-original="#212a41" class=""></path><path fill="#e0e0e0" d="M27 14h33v46H27z" data-original="#e0e0e0"></path><path fill="#212a41" d="M60 60.5H27a.5.5 0 0 1-.5-.5V14a.5.5 0 0 1 .5-.5h33a.5.5 0 0 1 .5.5v46a.5.5 0 0 1-.5.5zm-32.5-1h32v-45h-32z" data-original="#212a41" class=""></path><path fill="#c2c2c2" d="M58 58.5a.5.5 0 0 1-.5-.5V16a.5.5 0 0 1 1 0v42a.5.5 0 0 1-.5.5z" data-original="#c2c2c2"></path><g fill="#212a41"><path d="M53.5 46.5h-20a.5.5 0 0 1 0-1h20a.5.5 0 0 1 0 1zM53.5 50.5h-20a.5.5 0 0 1 0-1h20a.5.5 0 0 1 0 1zM53.5 54.5h-20a.5.5 0 0 1 0-1h20a.5.5 0 0 1 0 1z" fill="#212a41" data-original="#212a41" class=""></path></g><path fill="#fefefe" d="M29 58.5a.5.5 0 0 1-.5-.5V16a.5.5 0 0 1 1 0v42a.5.5 0 0 1-.5.5z" data-original="#fefefe"></path><path fill="#005b8a" d="M4 44h6v16H4z" data-original="#005b8a"></path><path fill="#212a41" d="M10 60.5H4a.5.5 0 0 1-.5-.5V44a.5.5 0 0 1 .5-.5h6a.5.5 0 0 1 .5.5v16a.5.5 0 0 1-.5.5zm-5.5-1h5v-15h-5z" data-original="#212a41" class=""></path><path fill="#0079a8" d="M10 44h6v16h-6z" data-original="#0079a8"></path><path fill="#212a41" d="M16 60.5h-6a.5.5 0 0 1-.5-.5V44a.5.5 0 0 1 .5-.5h6a.5.5 0 0 1 .5.5v16a.5.5 0 0 1-.5.5zm-5.5-1h5v-15h-5z" data-original="#212a41" class=""></path><path fill="#e0c8a4" d="M37 50a2 2 0 0 0-2-2 2 2 0 1 0 0-4H25v-2a2 2 0 0 0-2-2h-1.298c-.454 0-.895.155-1.249.438L16 44v16h19a2 2 0 1 0 0-4 2 2 0 1 0 0-4 2 2 0 0 0 2-2z" data-original="#e0c8a4"></path><path fill="#212a41" d="M35 60.5H16a.5.5 0 0 1-.5-.5V44c0-.152.069-.295.188-.391l4.452-3.562a2.51 2.51 0 0 1 1.562-.548H23c1.378 0 2.5 1.122 2.5 2.5v1.5H35a2.5 2.5 0 0 1 1.499 4.5 2.5 2.5 0 0 1 0 4 2.5 2.5 0 0 1 0 4A2.5 2.5 0 0 1 35 60.5zm-18.5-1H35c.827 0 1.5-.673 1.5-1.5s-.673-1.5-1.5-1.5a.5.5 0 0 1 0-1c.827 0 1.5-.673 1.5-1.5s-.673-1.5-1.5-1.5a.5.5 0 0 1 0-1c.827 0 1.5-.673 1.5-1.5s-.673-1.5-1.5-1.5a.5.5 0 0 1 0-1c.827 0 1.5-.673 1.5-1.5s-.673-1.5-1.5-1.5H25a.5.5 0 0 1-.5-.5v-2c0-.827-.673-1.5-1.5-1.5h-1.298c-.34 0-.672.117-.937.329L16.5 44.24z" data-original="#212a41" class=""></path><path fill="#fee6c2" d="M18 58.5a.5.5 0 0 1-.5-.5V44.961c0-.152.069-.295.188-.391l3.702-2.961a.5.5 0 0 1 .625.781L18.5 45.202V58a.5.5 0 0 1-.5.5z" data-original="#fee6c2"></path><path fill="#212a41" d="M35 48.5h-6a.5.5 0 0 1 0-1h6a.5.5 0 0 1 0 1zM35 52.5h-6a.5.5 0 0 1 0-1h6a.5.5 0 0 1 0 1zM35 56.5h-6a.5.5 0 0 1 0-1h6a.5.5 0 0 1 0 1z" data-original="#212a41" class=""></path><path fill="#db8e11" d="M32 22H6a2 2 0 0 1-2-2V6a2 2 0 0 1 2-2h26a2 2 0 0 1 2 2v14a2 2 0 0 1-2 2z" data-original="#db8e11" class=""></path><path fill="#212a41" d="M32 22.5H6A2.503 2.503 0 0 1 3.5 20V6c0-1.378 1.122-2.5 2.5-2.5h26c1.378 0 2.5 1.122 2.5 2.5v14c0 1.378-1.122 2.5-2.5 2.5zM6 4.5c-.827 0-1.5.673-1.5 1.5v14c0 .827.673 1.5 1.5 1.5h26c.827 0 1.5-.673 1.5-1.5V6c0-.827-.673-1.5-1.5-1.5z" data-original="#212a41" class=""></path><path fill="#f9ac2f" d="M35 22H9a2 2 0 0 1-2-2V6a2 2 0 0 1 2-2h26a2 2 0 0 1 2 2v14a2 2 0 0 1-2 2z" data-original="#f9ac2f" class=""></path><path fill="#212a41" d="M35 22.5H9A2.503 2.503 0 0 1 6.5 20V6c0-1.378 1.122-2.5 2.5-2.5h26c1.378 0 2.5 1.122 2.5 2.5v14c0 1.378-1.122 2.5-2.5 2.5zM9 4.5c-.827 0-1.5.673-1.5 1.5v14c0 .827.673 1.5 1.5 1.5h26c.827 0 1.5-.673 1.5-1.5V6c0-.827-.673-1.5-1.5-1.5z" data-original="#212a41" class=""></path><path fill="#ffca4d" d="M9 20.5a.5.5 0 0 1-.5-.5V6a.5.5 0 0 1 1 0v14a.5.5 0 0 1-.5.5z" data-original="#ffca4d" class=""></path><path fill="#db8e11" d="M35 20.5a.5.5 0 0 1-.5-.5V6a.5.5 0 0 1 1 0v14a.5.5 0 0 1-.5.5z" data-original="#db8e11" class=""></path><path fill="#e0e0e0" d="m30 9 1.236 2.633 2.764.423-2 2.05.472 2.894L30 15.633 27.528 17 28 14.106l-2-2.05 2.764-.423z" data-original="#e0e0e0"></path><path fill="#212a41" d="M32.472 17.5a.507.507 0 0 1-.242-.062L30 16.205l-2.23 1.233a.5.5 0 0 1-.736-.518l.432-2.646-1.824-1.869a.499.499 0 0 1 .282-.843l2.5-.382 1.123-2.392c.165-.351.74-.351.905 0l1.123 2.392 2.5.382a.499.499 0 0 1 .282.843l-1.824 1.869.432 2.646a.498.498 0 0 1-.493.58zM30 15.133c.083 0 .167.021.242.062l1.571.869-.307-1.878a.502.502 0 0 1 .136-.43l1.32-1.354-1.802-.275a.5.5 0 0 1-.377-.282L30 10.177l-.783 1.669a.5.5 0 0 1-.377.282l-1.802.275 1.32 1.354a.502.502 0 0 1 .136.43l-.307 1.878 1.571-.869a.497.497 0 0 1 .242-.063z" data-original="#212a41" class=""></path><path fill="#e0e0e0" d="m22 9 1.236 2.633 2.764.423-2 2.05.472 2.894L22 15.633 19.528 17 20 14.106l-2-2.05 2.764-.423z" data-original="#e0e0e0"></path><path fill="#212a41" d="M24.472 17.5a.507.507 0 0 1-.242-.062L22 16.205l-2.23 1.233a.5.5 0 0 1-.736-.518l.432-2.646-1.824-1.869a.499.499 0 0 1 .282-.843l2.5-.382 1.123-2.392c.165-.351.74-.351.905 0l1.123 2.392 2.5.382a.499.499 0 0 1 .282.843l-1.824 1.869.432 2.646a.498.498 0 0 1-.493.58zM22 15.133c.083 0 .167.021.242.062l1.571.869-.307-1.878a.502.502 0 0 1 .136-.43l1.32-1.354-1.802-.275a.5.5 0 0 1-.377-.282L22 10.177l-.783 1.669a.5.5 0 0 1-.377.282l-1.802.275 1.32 1.354a.502.502 0 0 1 .136.43l-.307 1.878 1.571-.869a.497.497 0 0 1 .242-.063z" data-original="#212a41" class=""></path><path fill="#e0e0e0" d="m14 9 1.236 2.633 2.764.423-2 2.05.472 2.894L14 15.633 11.528 17 12 14.106l-2-2.05 2.764-.423z" data-original="#e0e0e0"></path><path fill="#212a41" d="M16.472 17.5a.507.507 0 0 1-.242-.062L14 16.205l-2.23 1.233a.5.5 0 0 1-.736-.518l.432-2.646-1.824-1.869a.499.499 0 0 1 .282-.843l2.5-.382 1.123-2.392c.165-.351.74-.351.905 0l1.123 2.392 2.5.382a.499.499 0 0 1 .282.843l-1.824 1.869.432 2.646a.498.498 0 0 1-.493.58zM14 15.133c.083 0 .167.021.242.062l1.571.869-.307-1.878a.502.502 0 0 1 .136-.43l1.32-1.354-1.802-.275a.5.5 0 0 1-.377-.282L14 10.177l-.783 1.669a.5.5 0 0 1-.377.282l-1.802.275 1.32 1.354a.502.502 0 0 1 .136.43l-.307 1.878 1.571-.869a.497.497 0 0 1 .242-.063z" data-original="#212a41" class=""></path><circle cx="43.5" cy="30.064" r="10" fill="#d32e5e" data-original="#d32e5e"></circle><path fill="#212a41" d="M43.5 40.564c-5.79 0-10.5-4.71-10.5-10.5s4.71-10.5 10.5-10.5 10.5 4.71 10.5 10.5-4.71 10.5-10.5 10.5zm0-20c-5.238 0-9.5 4.262-9.5 9.5s4.262 9.5 9.5 9.5 9.5-4.262 9.5-9.5-4.262-9.5-9.5-9.5z" data-original="#212a41" class=""></path><path fill="#e0e0e0" d="M44.5 27.064h-7a1 1 0 0 0-1 1v3a1 1 0 0 0 1 1h7l5 2v-9z" data-original="#e0e0e0"></path><path fill="#212a41" d="M49.5 34.564a.5.5 0 0 1-.186-.036l-4.911-1.964H37.5c-.827 0-1.5-.673-1.5-1.5v-3c0-.827.673-1.5 1.5-1.5h6.904l4.911-1.964a.5.5 0 0 1 .686.464v9a.501.501 0 0 1-.501.5zm-12-7a.5.5 0 0 0-.5.5v3a.5.5 0 0 0 .5.5h7a.5.5 0 0 1 .186.036L49 33.326v-7.523l-4.314 1.726a.513.513 0 0 1-.186.036h-7z" data-original="#212a41" class=""></path><path fill="#0079a8" d="M40.5 37.064h-1a1 1 0 0 1-1-1v-4h3v4a1 1 0 0 1-1 1z" data-original="#0079a8"></path><path fill="#212a41" d="M40.5 37.564h-1c-.827 0-1.5-.673-1.5-1.5v-4a.5.5 0 0 1 .5-.5h3a.5.5 0 0 1 .5.5v4c0 .828-.673 1.5-1.5 1.5zm-1.5-5v3.5a.5.5 0 0 0 .5.5h1a.5.5 0 0 0 .5-.5v-3.5zM44.5 32.564a.5.5 0 0 1-.5-.5v-5a.5.5 0 0 1 1 0v5a.5.5 0 0 1-.5.5z" data-original="#212a41" class=""></path></g></svg>