<svg xmlns="http://www.w3.org/2000/svg" version="1.1" xmlns:xlink="http://www.w3.org/1999/xlink" xmlns:svgjs="http://svgjs.com/svgjs" width="512" height="512" x="0" y="0" viewBox="0 0 512 512" style="enable-background:new 0 0 512 512" xml:space="preserve" class=""><g><path fill="#fe9923" fill-rule="evenodd" d="M152.596 171.357c12.973-22.484 74.637-11.169 137.698 25.248 63.09 36.417 103.695 84.149 90.722 106.633a15702.055 15702.055 0 0 0-21.611 37.406c-12.973 22.484-74.637 11.169-137.698-25.248s-103.666-84.148-90.693-106.633c7.184-12.45 14.397-24.928 21.582-37.406z" clip-rule="evenodd" data-original="#fe9923" class=""></path><path fill="#fecd3d" fill-rule="evenodd" d="M290.294 196.604c63.09 36.417 103.695 84.149 90.722 106.633-13.002 22.484-74.637 11.198-137.727-25.218-63.061-36.417-103.666-84.178-90.693-106.662 12.972-22.484 74.637-11.17 137.698 25.247z" clip-rule="evenodd" data-original="#fecd3d" class=""></path><path fill="#fea832" fill-rule="evenodd" d="M279.328 215.627c50.175 28.971 85.225 62.159 78.331 74.143-6.923 11.955-53.2-1.832-103.375-30.774-50.175-28.971-85.254-62.188-78.331-74.143 6.893-11.984 53.2 1.803 103.375 30.774z" clip-rule="evenodd" data-original="#fea832" class=""></path><path fill="#c85929" d="m323.947 330.724-11.489 19.924c4.305.698 8.377 1.163 12.246 1.367l9.046-15.649zm-41.216 12.45a256.031 256.031 0 0 1-10.791-3.81l10.937-18.965 9.744 5.643zm-38.046-15.562a364.548 364.548 0 0 1-10.064-5.09l10.442-18.121 9.744 5.672zm-35.602-19.837c-3.2-2.036-6.37-4.072-9.453-6.166l10.151-17.569 9.773 5.643zm-33.247-23.881a256.415 256.415 0 0 1-8.697-7.446l9.89-17.161 9.744 5.643zm-30.017-29.465c-2.734-3.374-5.207-6.69-7.33-9.889l9.046-15.678 9.773 5.643z" data-original="#c85929"></path><path fill="#ffcebf" fill-rule="evenodd" d="M67.72 323.424h76.557c30.832 23.764 61.664 47.557 92.496 71.35 12.42 9.57 15.824 26.702 8.784 40.169l91.566-44.387c15.852-7.679 35.079-1.018 42.758 14.834 7.679 15.823.989 35.079-14.834 42.758-163.847 79.437-132.171 82.433-297.327-3.722z" clip-rule="evenodd" data-original="#ffcebf" class=""></path><path fill="#ffb09e" d="m152.479 391.342-6.225-4.799-9.57 12.42 66.58 51.368c8.668 6.69 19.285 9.22 29.407 7.94 10.122-1.309 19.779-6.457 26.469-15.154 1.134-1.483 2.182-3.025 3.083-4.625.96-1.687 1.774-3.345 2.414-4.974l3.956-9.744-23.037 11.169a24.03 24.03 0 0 1-14.864 7.766c-6.137.785-12.595-.727-17.859-4.799z" data-original="#ffb09e"></path><path fill="#435469" fill-rule="evenodd" d="M.5 301.463h67.22v164.923H.5z" clip-rule="evenodd" data-original="#435469" class=""></path><path fill="#ffcebf" fill-rule="evenodd" d="M444.309 188.576h-76.586a113492.679 113492.679 0 0 1-92.468-71.35c-12.449-9.57-15.852-26.702-8.784-40.169l-91.595 44.387c-15.824 7.679-35.079 1.018-42.758-14.834-7.679-15.823-.989-35.079 14.834-42.758 163.847-79.436 132.2-82.432 297.356 3.723v121.001z" clip-rule="evenodd" data-original="#ffcebf" class=""></path><path fill="#ffb09e" d="m359.52 120.658 6.225 4.799 9.57-12.42-66.551-51.367c-8.697-6.69-19.314-9.221-29.407-7.941-10.151 1.309-19.779 6.457-26.498 15.154a44.09 44.09 0 0 0-3.083 4.625 43.108 43.108 0 0 0-2.414 4.974l-3.956 9.744 23.066-11.169a23.885 23.885 0 0 1 14.834-7.766c6.167-.785 12.595.727 17.859 4.799z" data-original="#ffb09e"></path><path fill="#435469" fill-rule="evenodd" d="M444.309 45.614H511.5v164.923h-67.191z" clip-rule="evenodd" data-original="#435469" class=""></path><path fill="#fea832" d="M80.838 176.185v20.099h20.099v14.369H80.838v20.129H66.469v-20.129H46.341v-14.369h20.128v-20.099zM441.778 244.656v20.128h20.1v14.369h-20.1v20.128h-14.369v-20.128h-20.128v-14.369h20.128v-20.128z" data-original="#fea832" class=""></path></g></svg>