<svg xmlns="http://www.w3.org/2000/svg" version="1.1" xmlns:xlink="http://www.w3.org/1999/xlink" xmlns:svgjs="http://svgjs.com/svgjs" width="512" height="512" x="0" y="0" viewBox="0 0 512 512" style="enable-background:new 0 0 512 512" xml:space="preserve" class=""><g><path d="M0 0v432.356l56.889 22.755L79.645 512h268.371V0z" style="" fill="#ece7ea" data-original="#ece7ea" class=""></path><path d="M291.127 452.267h-73.274a8.533 8.533 0 0 1 0-17.066h73.274a8.533 8.533 0 0 1 0 17.066zM291.127 88.178H56.889a8.533 8.533 0 0 1 0-17.066h234.238a8.533 8.533 0 0 1 0 17.066zM291.127 133.689H56.889a8.533 8.533 0 0 1 0-17.066h234.238a8.533 8.533 0 0 1 0 17.066zM291.127 179.2H56.889a8.533 8.533 0 0 1 0-17.066h234.238a8.533 8.533 0 0 1 0 17.066zM291.127 224.711H56.889a8.533 8.533 0 0 1 0-17.066h234.238a8.533 8.533 0 0 1 0 17.066zM291.127 270.222H56.889a8.533 8.533 0 0 1 0-17.066h234.238a8.533 8.533 0 0 1 0 17.066zM291.127 315.733H56.889a8.533 8.533 0 0 1 0-17.066h234.238a8.533 8.533 0 0 1 0 17.066z" style="" fill="#8b7e7f" data-original="#8b7e7f" class=""></path><path d="m476.467 170.993-5.632-37.813-37.812-5.632-24.136 24.137 5.632 37.813 37.813 5.631z" style="" fill="#c2b8b9" data-original="#c2b8b9"></path><path d="M185.698 410.272a5.69 5.69 0 0 0 8.045 8.045l35.446-20.87 4.78-27.401-27.401 4.78-20.87 35.446z" style="" fill="#463836" data-original="#463836"></path><path d="m236.384 324.188-29.816 50.638 22.622 22.621 50.638-29.815-5.631-37.813z" style="" fill="#f99d88" data-original="#f99d88"></path><path d="M503.016 144.443c11.977-11.977 11.979-31.466 0-43.445s-31.468-11.977-43.445 0l-26.55 26.55 43.445 43.445 26.55-26.55z" style="" fill="#f14742" data-original="#f14742"></path><path d="M222.376 228.941h243.949v61.439H222.376z" style="" transform="rotate(134.999 344.353 259.66)" fill="#ffd24d" data-original="#ffd24d"></path><path d="M0 432.356 79.645 512v-79.644z" style="" fill="#d6ced1" data-original="#d6ced1"></path></g></svg>