<svg xmlns="http://www.w3.org/2000/svg" version="1.1" xmlns:xlink="http://www.w3.org/1999/xlink" xmlns:svgjs="http://svgjs.com/svgjs" width="512" height="512" x="0" y="0" viewBox="0 0 512 512" style="enable-background:new 0 0 512 512" xml:space="preserve"><g><linearGradient id="a" x1="77.07" x2="434.93" y1="476.281" y2="118.421" gradientUnits="userSpaceOnUse"><stop offset="0" stop-color="#e81e25"></stop><stop offset=".108" stop-color="#ea3522"></stop><stop offset=".416" stop-color="#f1711c"></stop><stop offset=".678" stop-color="#f59d17"></stop><stop offset=".881" stop-color="#f8b814"></stop><stop offset="1" stop-color="#f9c213"></stop></linearGradient><path fill="url(#a)" fill-rule="evenodd" d="M511.221 197.173A16.023 16.023 0 0 0 496 186.113h-.03l-171.928.33-52.812-163.61a16 16 0 0 0-30.46 0l-52.81 163.61-171.93-.33H16a16 16 0 0 0-9.379 28.97l139.29 100.79L92.46 479.282a16 16 0 0 0 24.64 17.9L256 395.852l138.9 101.33a16 16 0 0 0 24.639-17.9l-53.448-163.41L505.38 215.083a16.024 16.024 0 0 0 5.841-17.91z" data-original="url(#a)"></path></g></svg>