<svg xmlns="http://www.w3.org/2000/svg" version="1.1" xmlns:xlink="http://www.w3.org/1999/xlink" xmlns:svgjs="http://svgjs.com/svgjs" width="512" height="512" x="0" y="0" viewBox="0 0 64 64" style="enable-background:new 0 0 512 512" xml:space="preserve" class=""><g><path d="M54.963 19.44H38.209V7.489a7.167 7.167 0 0 0-2.129-5.13A7.21 7.21 0 0 0 30.949.23H7.909C3.906.23.649 3.487.649 7.49v15.36c0 4.003 3.257 7.26 7.26 7.26h.42v4.26c0 1.402.837 2.647 2.131 3.171.417.168.85.25 1.279.25.896 0 1.769-.355 2.408-1.018l4.878-4.851v14.273c0 4.625 3.763 8.388 8.388 8.388h12.191l8.083 8.039a3.753 3.753 0 0 0 4.115.872 3.779 3.779 0 0 0 2.364-3.523v-5.388h.796c4.625 0 8.388-3.763 8.388-8.388V27.828c.001-4.625-3.762-8.388-8.387-8.388zm-35.931 8.245-7.021 6.981c-.122.127-.265.16-.426.093a.39.39 0 0 1-.256-.39v-5.76a1.5 1.5 0 0 0-1.5-1.5h-1.92a4.265 4.265 0 0 1-4.26-4.26V7.489a4.265 4.265 0 0 1 4.26-4.26h23.04c1.134 0 2.203.444 3.015 1.256a4.194 4.194 0 0 1 1.245 3.004V19.44h-7.796a8.334 8.334 0 0 0-5.928 2.46 8.327 8.327 0 0 0-2.453 5.785zm41.319 18.509a5.394 5.394 0 0 1-5.388 5.388h-2.296a1.5 1.5 0 0 0-1.5 1.5v6.888a.766.766 0 0 1-.49.743.753.753 0 0 1-.854-.199l-8.541-8.495a1.502 1.502 0 0 0-1.058-.437H27.413a5.394 5.394 0 0 1-5.388-5.388V27.828c0-1.436.562-2.787 1.581-3.806a5.351 5.351 0 0 1 3.807-1.582h27.55a5.394 5.394 0 0 1 5.388 5.388z" fill="#41583d" data-original="#000000" class=""></path><path d="M31.902 34.822c-1.22 0-2.213.994-2.213 2.213s.994 2.213 2.213 2.213c1.221 0 2.215-.994 2.215-2.213s-.994-2.213-2.215-2.213zM41.187 34.822c-1.22 0-2.213.994-2.213 2.213s.994 2.213 2.213 2.213c1.221 0 2.215-.994 2.215-2.213s-.993-2.213-2.215-2.213zM50.473 34.822c-1.22 0-2.213.994-2.213 2.213s.994 2.213 2.213 2.213c1.221 0 2.215-.994 2.215-2.213s-.994-2.213-2.215-2.213z" fill="#41583d" data-original="#000000" class=""></path></g></svg>