<svg xmlns="http://www.w3.org/2000/svg" version="1.1" xmlns:xlink="http://www.w3.org/1999/xlink" xmlns:svgjs="http://svgjs.com/svgjs" width="512" height="512" x="0" y="0" viewBox="0 0 500 500" style="enable-background:new 0 0 512 512" xml:space="preserve" class=""><g><path fill-rule="evenodd" d="M276.081 360.988c-25.142 13.501-56.349 5.557-72.098-18.174-2.372-3.574-5.723-6.043-9.613-7.128v106.707l46.553-46.552c5.007-5.007 13.149-5.007 18.155-.001l46.553 46.553V335.687c-3.891 1.087-7.239 3.551-9.612 7.128a55.457 55.457 0 0 1-19.938 18.173zm-21.835-136.139 21.882 15.898-8.355-25.715a7.235 7.235 0 0 1 2.631-8.091l21.854-15.877h-27.023c-3.127 0-5.91-2.038-6.876-5.007L250 160.336l-8.357 25.721-.007-.002c-.985 3.006-3.731 5.009-6.869 5.009h-27.023l21.853 15.877a7.247 7.247 0 0 1 2.631 8.091l-8.355 25.714 21.882-15.897a7.178 7.178 0 0 1 8.491 0zM250 301.737c-52.577 0-95.197-42.62-95.197-95.197 0-52.576 42.62-95.197 95.197-95.197s95.197 42.62 95.197 95.197-42.62 95.197-95.197 95.197zm0-65.105-30.999 22.521c-4.003 2.909-9.593 1.036-11.118-3.622l-.007.002a7.21 7.21 0 0 1 .003-4.472l11.838-36.431-30.989-22.515c-2.53-1.839-3.623-5.153-2.623-8.09l-.007-.002a7.228 7.228 0 0 1 6.876-5.006h38.314l11.835-36.425c2.161-6.647 11.591-6.646 13.752 0l11.835 36.425h38.314c3.137 0 5.884 2.002 6.869 5.009l.007-.002a7.18 7.18 0 0 1-.003 4.47l.007.002a7.215 7.215 0 0 1-2.634 3.62l-30.989 22.514 11.837 36.432c2.147 6.597-5.458 12.209-11.122 8.092zm0 118.863c-14.655 0-28.036-7.321-35.996-19.316-6.687-10.076-18.321-14.912-30.2-12.51-30.237 6.112-57.047-20.697-50.934-50.934 2.401-11.88-2.434-23.513-12.51-30.2-25.724-17.072-25.724-54.919 0-71.992 10.076-6.687 14.912-18.32 12.51-30.2-6.112-30.237 20.697-57.047 50.934-50.934 11.88 2.401 23.513-2.434 30.2-12.51 17.072-25.724 54.919-25.724 71.991 0 6.687 10.077 18.32 14.912 30.2 12.51 30.237-6.113 57.046 20.697 50.934 50.934-2.401 11.879 2.434 23.512 12.51 30.2 25.724 17.072 25.724 54.92 0 71.992-10.076 6.687-14.912 18.32-12.51 30.2 6.112 30.237-20.697 57.047-50.934 50.934-11.879-2.402-23.513 2.434-30.2 12.51-7.959 11.995-21.339 19.316-35.995 19.316zm75.832-73.124c-41.881 41.881-109.782 41.881-151.663 0s-41.881-109.782 0-151.663 109.782-41.881 151.663 0 41.881 109.782 0 151.663z" clip-rule="evenodd" fill="#000000" data-original="#000000"></path></g></svg>