<svg xmlns="http://www.w3.org/2000/svg" version="1.1" xmlns:xlink="http://www.w3.org/1999/xlink" xmlns:svgjs="http://svgjs.com/svgjs" width="512" height="512" x="0" y="0" viewBox="0 0 128 128" style="enable-background:new 0 0 512 512" xml:space="preserve" class=""><g><path d="M91.3 4.557H36.7a8.645 8.645 0 0 0-8.636 8.635v101.616a8.645 8.645 0 0 0 8.636 8.635h54.6a8.645 8.645 0 0 0 8.636-8.635V13.192A8.645 8.645 0 0 0 91.3 4.557zm5.136 110.251a5.141 5.141 0 0 1-5.136 5.135H36.7a5.141 5.141 0 0 1-5.136-5.135V13.192A5.141 5.141 0 0 1 36.7 8.057h54.6a5.141 5.141 0 0 1 5.136 5.135z" fill="#fff" data-original="#000000" class=""></path><path d="M90.86 17.967H37.14a1.75 1.75 0 0 0-1.75 1.75v88.566a1.75 1.75 0 0 0 1.75 1.75h53.72a1.749 1.749 0 0 0 1.75-1.75V19.717a1.749 1.749 0 0 0-1.75-1.75zm-1.75 88.566H38.89V21.467h50.22z" fill="#fff" data-original="#000000" class=""></path><path d="M62.667 81.994a1.75 1.75 0 0 0 2.666 0c.454-.534 11.1-13.186 11.04-23.838a12.373 12.373 0 0 0-24.746-.01c-.065 10.662 10.586 23.314 11.04 23.848zM64 49.284a8.885 8.885 0 0 1 8.873 8.883c.044 7.283-6.1 16.212-8.874 19.873-2.777-3.659-8.916-12.58-8.872-19.884A8.882 8.882 0 0 1 64 49.284z" fill="#fff" data-original="#000000" class=""></path><path d="M64 63.645a5.489 5.489 0 1 0-5.488-5.489A5.495 5.495 0 0 0 64 63.645zm0-7.477a1.989 1.989 0 1 1-1.988 1.988A1.99 1.99 0 0 1 64 56.168zM46.415 49.061a1.751 1.751 0 0 0 1.75-1.75v-4.49h4.49a1.75 1.75 0 0 0 0-3.5h-6.24a1.75 1.75 0 0 0-1.75 1.75v6.24a1.751 1.751 0 0 0 1.75 1.75zM75.345 42.821h4.49v4.49a1.75 1.75 0 0 0 3.5 0v-6.24a1.749 1.749 0 0 0-1.75-1.75h-6.24a1.75 1.75 0 0 0 0 3.5zM46.415 88.679h6.24a1.75 1.75 0 0 0 0-3.5h-4.49v-4.49a1.75 1.75 0 0 0-3.5 0v6.24a1.75 1.75 0 0 0 1.75 1.75zM81.585 78.939a1.75 1.75 0 0 0-1.75 1.75v4.49h-4.49a1.75 1.75 0 0 0 0 3.5h6.24a1.749 1.749 0 0 0 1.75-1.75v-6.24a1.75 1.75 0 0 0-1.75-1.75zM59.676 14.762h8.647a1.75 1.75 0 0 0 0-3.5h-8.647a1.75 1.75 0 0 0 0 3.5z" fill="#fff" data-original="#000000" class=""></path></g></svg>