<svg xmlns="http://www.w3.org/2000/svg" version="1.1" xmlns:xlink="http://www.w3.org/1999/xlink" xmlns:svgjs="http://svgjs.com/svgjs" width="512" height="512" x="0" y="0" viewBox="0 0 596.447 596.447" style="enable-background:new 0 0 512 512" xml:space="preserve" class=""><g><path d="M113.665 342.144a9.037 9.037 0 0 1-9.037-9.037V263.25a9.037 9.037 0 1 1 18.074 0v69.857a9.037 9.037 0 0 1-9.037 9.037z" fill="#ffffff" data-original="#000000" class=""></path><path d="M501.446 596.447H149c-.102 0-.204-.001-.306-.005-24.901-.844-44.473-21.789-43.63-46.69l.016-.39v-44.099a9.037 9.037 0 1 1 18.074 0v44.281c0 .143-.004.287-.01.43l-.016.394c-.504 14.889 11.163 27.424 26.036 28.005H501.25l.179-.008c7.242-.349 13.907-3.493 18.775-8.855 4.868-5.361 7.356-12.297 7.008-19.531a8.988 8.988 0 0 1-.011-.435V46.812c0-.128.002-.255.008-.382l.014-.333c.261-7.184-2.308-14.091-7.239-19.395-4.895-5.266-11.536-8.327-18.714-8.628H148.726l-.18.008c-7.24.33-13.912 3.457-18.794 8.806s-7.389 12.278-7.059 19.513c.006.137.009.275.009.412v44.372a9.037 9.037 0 1 1-18.074 0V47.009c-.491-11.979 3.686-23.444 11.774-32.306C124.539 5.789 135.66.576 147.717.026l.529-.022c.1-.002.201-.004.302-.004h352.898c.11 0 .219.002.329.006 12.062.44 23.23 5.551 31.448 14.391s12.5 20.351 12.061 32.412l-.008.195v502.335c.518 11.973-3.629 23.443-11.691 32.322-8.113 8.936-19.22 14.177-31.276 14.758l-.492.022c-.125.004-.248.006-.371.006z" fill="#ffffff" data-original="#000000" class=""></path><path d="M113.665 221.227a9.037 9.037 0 0 1-9.037-9.037v-69.856a9.037 9.037 0 1 1 18.074 0v69.856a9.037 9.037 0 0 1-9.037 9.037zM113.665 463.15a9.037 9.037 0 0 1-9.037-9.037v-69.856a9.037 9.037 0 1 1 18.074 0v69.856a9.038 9.038 0 0 1-9.037 9.037z" fill="#ffffff" data-original="#000000" class=""></path><path d="M143.036 151.461H84.294c-18.288 0-33.166-14.878-33.166-33.166v-2.892c0-18.288 14.878-33.166 33.166-33.166h58.741c18.288 0 33.166 14.878 33.166 33.166v2.892c.001 18.288-14.878 33.166-33.165 33.166zm-58.742-51.15c-8.322 0-15.092 6.77-15.092 15.092v2.892c0 8.322 6.77 15.092 15.092 15.092h58.741c8.322 0 15.092-6.77 15.092-15.092v-2.892c0-8.322-6.77-15.092-15.092-15.092zM143.036 272.378H84.294c-18.288 0-33.166-14.878-33.166-33.166v-2.892c0-18.288 14.878-33.166 33.166-33.166h58.741c18.288 0 33.166 14.878 33.166 33.166v2.892c.001 18.287-14.878 33.166-33.165 33.166zm-58.742-51.151c-8.322 0-15.092 6.77-15.092 15.092v2.892c0 8.322 6.77 15.092 15.092 15.092h58.741c8.322 0 15.092-6.77 15.092-15.092v-2.892c0-8.322-6.77-15.092-15.092-15.092zM143.036 393.293H84.294c-18.288 0-33.166-14.878-33.166-33.166v-2.892c0-18.288 14.878-33.166 33.166-33.166h58.741c18.288 0 33.166 14.878 33.166 33.166v2.892c.001 18.289-14.878 33.166-33.165 33.166zm-58.742-51.149c-8.322 0-15.092 6.77-15.092 15.092v2.892c0 8.322 6.77 15.092 15.092 15.092h58.741c8.322 0 15.092-6.77 15.092-15.092v-2.892c0-8.322-6.77-15.092-15.092-15.092zM143.036 514.3H84.294c-18.288 0-33.166-14.878-33.166-33.166v-2.893c0-18.288 14.878-33.166 33.166-33.166h58.741c18.288 0 33.166 14.878 33.166 33.166v2.893c.001 18.289-14.878 33.166-33.165 33.166zm-58.742-51.15c-8.322 0-15.092 6.77-15.092 15.092v2.893c0 8.322 6.77 15.092 15.092 15.092h58.741c8.322 0 15.092-6.77 15.092-15.092v-2.893c0-8.322-6.77-15.092-15.092-15.092zM343.659 274.547c-57.704 0-104.65-46.946-104.65-104.65s46.946-104.649 104.65-104.649 104.649 46.945 104.649 104.649-46.945 104.65-104.649 104.65zm0-191.225c-47.738 0-86.576 38.838-86.576 86.575 0 47.738 38.838 86.576 86.576 86.576s86.575-38.838 86.575-86.576c.001-47.738-38.837-86.575-86.575-86.575z" fill="#ffffff" data-original="#000000" class=""></path><path d="M343.659 197.189c-23.321 0-42.294-18.972-42.294-42.293s18.973-42.294 42.294-42.294c23.32 0 42.293 18.973 42.293 42.294s-18.973 42.293-42.293 42.293zm0-66.513c-13.355 0-24.22 10.865-24.22 24.22 0 13.354 10.865 24.219 24.22 24.219s24.219-10.865 24.219-24.219c0-13.355-10.864-24.22-24.219-24.22z" fill="#ffffff" data-original="#000000" class=""></path><path d="M269.636 239.394a9 9 0 0 1-4.588-1.258 9.037 9.037 0 0 1-3.185-12.377 95.066 95.066 0 0 1 14.69-18.926c37.073-36.991 97.329-36.925 134.322.149a101.374 101.374 0 0 1 14.532 18.702 9.037 9.037 0 0 1-3.065 12.407c-4.27 2.58-9.828 1.208-12.407-3.064a83.204 83.204 0 0 0-11.899-15.323c-29.905-29.974-78.696-30.028-108.716-.076a76.99 76.99 0 0 0-11.895 15.324 9.036 9.036 0 0 1-7.789 4.442zM439.18 455.92H248.046a9.037 9.037 0 1 1 0-18.074H439.18a9.037 9.037 0 1 1 0 18.074zM439.18 509.782H248.046a9.037 9.037 0 1 1 0-18.074H439.18a9.037 9.037 0 1 1 0 18.074z" fill="#ffffff" data-original="#000000" class=""></path></g></svg>