<svg xmlns="http://www.w3.org/2000/svg" version="1.1" xmlns:xlink="http://www.w3.org/1999/xlink" xmlns:svgjs="http://svgjs.com/svgjs" width="512" height="512" x="0" y="0" viewBox="0 0 100 100" style="enable-background:new 0 0 512 512" xml:space="preserve" class=""><g><path fill="#000000" fill-rule="evenodd" d="M44.13 31.186c-5.644-5.644-14.795-5.644-20.44 0-5.644 5.645-5.644 14.796 0 20.44L50.2 78.135l26.279-26.28c5.644-5.644 5.644-14.796 0-20.44s-14.796-5.644-20.44 0l-3.476 3.475a3.344 3.344 0 0 1-4.728 0zm-23.754-3.314c7.475-7.475 19.594-7.475 27.07 0l2.753 2.754 2.525-2.525c7.475-7.475 19.594-7.475 27.07 0s7.474 19.594 0 27.069L51.897 83.064a2.364 2.364 0 0 1-.311.262 2.372 2.372 0 0 1-3.069-.244L20.376 54.94c-7.475-7.475-7.475-19.594 0-27.07z" clip-rule="evenodd" data-original="#000000"></path></g></svg>