<svg xmlns="http://www.w3.org/2000/svg" version="1.1" xmlns:xlink="http://www.w3.org/1999/xlink" xmlns:svgjs="http://svgjs.com/svgjs" width="512" height="512" x="0" y="0" viewBox="0 0 512 512" style="enable-background:new 0 0 512 512" xml:space="preserve" class=""><g><path fill="#ff619e" d="M512 256c0 96.88-53.82 181.2-133.2 224.67h-43v18.63l.01.01C310.7 507.55 283.87 512 256 512c-51.5 0-99.46-15.21-139.61-41.39l2.53-109.06L.3 268.39c-.2-4.1-.3-8.24-.3-12.39 0-46.22 12.25-89.57 33.68-127C77.8 51.93 160.84 0 256 0s178.2 51.93 222.32 129C499.75 166.43 512 209.78 512 256z" data-original="#ff619e" class=""></path><path fill="#ff4784" d="M512 256c0 96.88-53.82 181.2-133.2 224.67h-43v18.63c-25.11 8.24-51.93 12.7-79.8 12.7-51.5 0-99.46-15.21-139.61-41.39l2.53-109.06L.3 268.39c-.2-4.1-.3-8.24-.3-12.39 0-46.22 12.25-89.57 33.68-127 24.14 42.17 59.93 76.81 102.99 99.53 5.56 2.95 11.25 5.69 17.05 8.21C185.04 250.42 219.64 258 256 258c95.16 0 178.21-51.93 222.32-129C499.75 166.43 512 209.78 512 256z" data-original="#ff4784" class=""></path><path fill="#2a4a70" d="m153.72 236.74-10.37-10.16-6.68 1.95L.3 268.39c2.97 62.42 28.3 118.98 68.17 161.86l23.21-.96-2.58 20.83c8.62 7.41 17.73 14.26 27.29 20.49l90.55-26.46 30.6-125.23z" data-original="#2a4a70" class=""></path><path fill="#1a3760" d="m143.475 226.53 153.734-44.999 63.693 217.6-153.733 45z" data-original="#1a3760" class=""></path><path fill="#1a3760" d="m215.3 323.83-16.03 94.09-110.17 32.2a258.011 258.011 0 0 1-20.63-19.87L27.19 289l123.83-36.19z" data-original="#1a3760" class=""></path><path fill="#162352" d="m151.157 252.766 123.852-36.252 48.335 165.13-123.852 36.253z" data-original="#162352" class=""></path><circle cx="88.225" cy="320.095" r="25.169" fill="#f4dee8" transform="rotate(-61.31 88.107 320.087)" data-original="#f4dee8"></circle><path fill="#ff3445" d="m157.133 273.73 20.316 23.449-6.195 24.869c-13.341 3.899-27.318-3.75-31.22-17.098-3.898-13.341 3.758-27.321 17.099-31.22z" data-original="#ff3445" class=""></path><path fill="#dd1265" d="M188.353 290.829c3.901 13.349-3.758 27.321-17.099 31.22l-14.121-48.318c13.341-3.9 27.321 3.757 31.22 17.098z" data-original="#dd1265"></path><circle cx="240.164" cy="275.69" r="25.169" fill="#ffbc00" transform="rotate(-61.31 240.043 275.74)" data-original="#ffbc00" class=""></circle><circle cx="110.129" cy="395.041" r="25.169" fill="#f4b4d1" transform="rotate(-61.31 109.981 395.031)" data-original="#f4b4d1" class=""></circle><path fill="#ff42c0" d="m179.038 348.683 18.715 20.753-4.594 27.565c-13.341 3.899-27.321-3.758-31.22-17.099-3.9-13.348 3.758-27.32 17.099-31.219z" data-original="#ff42c0"></path><path fill="#e100ad" d="M210.258 365.781c3.899 13.341-3.758 27.321-17.098 31.22l-14.121-48.318c13.34-3.899 27.318 3.749 31.219 17.098z" data-original="#e100ad"></path><circle cx="262.068" cy="350.636" r="25.169" fill="#ff3445" transform="rotate(-61.31 261.918 350.683)" data-original="#ff3445" class=""></circle><path fill="#ff3445" d="m223.874 33.414 39.598 33.018 26.934 45.817-8.089 6.826-63.982-75.814c-2.55-3.022-1.218-7.668 2.543-8.882z" data-original="#ff3445" class=""></path><path fill="#dd1265" d="m234.782 29.929 41.816 28.115 21.897 47.379-8.089 6.826-66.532-78.835 1.237-.397 8.481-2.73c.393-.123.787-.246 1.19-.358z" data-original="#dd1265"></path><path fill="#ba0d5c" d="m272.106 41.322 42.571 50.444-16.183 13.658-63.712-75.494c13.558-3.871 28.183.561 37.324 11.392z" data-original="#ba0d5c"></path><path fill="#ffffff" d="m263.327 85.186 22.762 11.544 7.554 24.378-10.564 8.916-30.316-35.923z" data-original="#ffffff"></path><path fill="#cff6ff" d="m273.891 76.271 20.793 8.221 9.524 27.701-10.565 8.915-30.316-35.922z" data-original="#cff6ff"></path><path fill="#b0edf7" d="m273.83 76.244 21.123-17.832 30.318 35.912-21.122 17.832z" data-original="#b0edf7"></path><path fill="#2a4a70" d="m281.827 113.013 60.158 53.436 20.928 45.159-13.47 11.367-81.086-98.595z" data-original="#2a4a70" class=""></path><path fill="#1a3760" d="m295.302 101.641 59.582 43.261 21.504 55.334-13.475 11.372-81.086-98.595z" data-original="#1a3760" class=""></path><path fill="#162352" d="m322.253 78.896 81.086 98.595-26.951 22.745-81.086-98.595z" data-original="#162352" class=""></path><path fill="#964235" d="m450.934 229.585 8.822 40.077-33.91 24.507-28.412-11.037-3.207-65.554c18.787.819 37.95 4.721 56.707 12.007z" data-original="#964235" class=""></path><path fill="#87342b" d="m500.876 259.007-46.619 46.199-28.412-11.037 25.088-64.584c18.758 7.287 35.53 17.344 49.943 29.422z" data-original="#87342b"></path><path fill="#2a4a70" d="m417.52 315.6-39.67 90.35s-18.808 45.289-28.639 74.56a51.112 51.112 0 0 1-10.221 17.68l-3.19 1.11c-5.96-6.13-8.29-15.31-5.29-23.88l50.78-145.54z" data-original="#2a4a70" class=""></path><path fill="#1a3760" d="m417.52 315.6-18.84 94.91-50.86 84.52c-2.94 1.13-5.9 2.21-8.89 3.23-1.41-4.9-.93-11.82 1.68-18.92l53.11-144.64z" data-original="#1a3760" class=""></path><path fill="#162352" d="M434.61 350.59 378.8 480.67a252.625 252.625 0 0 1-30.98 14.36l69.7-179.43z" data-original="#162352" class=""></path><path fill="#ffffff" d="m394.233 334.904-12.943-5.028 13.409-56.147 16.494 6.407 1.035 33.503z" data-original="#ffffff"></path><path fill="#cff6ff" d="m428.661 286.922-.429 29.297-20.28 24.014-13.719-5.329 16.96-54.768z" data-original="#cff6ff"></path><path fill="#b0edf7" d="m462.624 300.115-28.01 50.476-26.662-10.358 20.709-53.311z" data-original="#b0edf7"></path></g></svg>